#ifndef __MIDIFILE_H__
#define __MIDIFILE_H__

#include <Arduino.h>

static const uint8_t  Jay[]  PROGMEM =
{
  0x4D, 0x54, 0x68, 0x64, 0x00, 0x00, 0x00, 0x06, 0x00, 0x00, 0x00, 0x01, 0x00, 0x78, 0x4D, 0x54,
  0x72, 0x6B, 0x00, 0x00, 0x04, 0xDB, 0x00, 0xFF, 0x58, 0x04, 0x04, 0x02, 0x18, 0x08, 0x00, 0xFF,
  0x51, 0x03, 0x0C, 0xE5, 0x0E, 0x00, 0xFF, 0x03, 0x0C, 0x51, 0x69, 0x20, 0x4C, 0x69, 0x20, 0x58,
  0x69, 0x61, 0x6E, 0x67, 0x20, 0x00, 0xFF, 0x02, 0x03, 0x50, 0x4E, 0x45, 0x00, 0xFF, 0x59, 0x02,
  0x00, 0x00, 0x00, 0xC9, 0x00, 0x00, 0xB9, 0x07, 0x78, 0x00, 0xB9, 0x0A, 0x40, 0x00, 0xC5, 0x00,
  0x00, 0xB5, 0x07, 0x64, 0x00, 0xB5, 0x0A, 0x37, 0x00, 0xC1, 0x21, 0x00, 0xB1, 0x07, 0x78, 0x00,
  0xB1, 0x0A, 0x40, 0x00, 0xC0, 0x41, 0x00, 0xB0, 0x07, 0x78, 0x00, 0xB0, 0x0A, 0x40, 0x04, 0xFF,
  0x51, 0x03, 0x0C, 0xE5, 0x0E, 0x01, 0xFF, 0x51, 0x03, 0x0C, 0xE5, 0x0E, 0x00, 0x99, 0x24, 0x64,
  0x00, 0x99, 0x2A, 0x64, 0x00, 0x95, 0x3C, 0x64, 0x00, 0x91, 0x22, 0x64, 0x1E, 0x89, 0x2A, 0x00,
  0x00, 0x89, 0x24, 0x00, 0x00, 0x99, 0x28, 0x64, 0x1E, 0x89, 0x28, 0x00, 0x00, 0x99, 0x2A, 0x52,
  0x00, 0x99, 0x28, 0x64, 0x00, 0x90, 0x46, 0x64, 0x1E, 0x89, 0x28, 0x00, 0x00, 0x89, 0x2A, 0x00,
  0x00, 0x99, 0x28, 0x64, 0x1E, 0x89, 0x28, 0x00, 0x00, 0x99, 0x31, 0x64, 0x00, 0x99, 0x24, 0x64,
  0x00, 0x99, 0x2A, 0x64, 0x00, 0x85, 0x3C, 0x00, 0x00, 0x95, 0x3F, 0x64, 0x00, 0x81, 0x22, 0x00,
  0x00, 0x91, 0x24, 0x64, 0x00, 0x80, 0x46, 0x00, 0x00, 0x90, 0x4B, 0x64, 0x1E, 0x89, 0x2A, 0x00,
  0x00, 0x89, 0x31, 0x00, 0x00, 0x89, 0x24, 0x00, 0x1E, 0x99, 0x2A, 0x52, 0x00, 0x85, 0x3F, 0x00,
  0x00, 0x95, 0x3C, 0x64, 0x1E, 0x89, 0x2A, 0x00, 0x00, 0x99, 0x24, 0x64, 0x1E, 0x89, 0x24, 0x00,
  0x00, 0x99, 0x28, 0x64, 0x00, 0x99, 0x2A, 0x64, 0x00, 0x85, 0x3C, 0x00, 0x00, 0x95, 0x3F, 0x64,
  0x00, 0x80, 0x4B, 0x00, 0x00, 0x90, 0x4A, 0x64, 0x1E, 0x89, 0x2A, 0x00, 0x00, 0x89, 0x28, 0x00,
  0x00, 0x81, 0x24, 0x00, 0x1E, 0x99, 0x24, 0x64, 0x00, 0x99, 0x2A, 0x52, 0x00, 0x85, 0x3F, 0x00,
  0x00, 0x95, 0x3C, 0x64, 0x00, 0x91, 0x1F, 0x64, 0x00, 0x80, 0x4A, 0x00, 0x00, 0x90, 0x4B, 0x64,
  0x1A, 0x80, 0x4B, 0x00, 0x04, 0x89, 0x24, 0x00, 0x00, 0x89, 0x2A, 0x00, 0x00, 0x90, 0x4B, 0x64,
  0x1E, 0x99, 0x2A, 0x64, 0x00, 0x99, 0x24, 0x64, 0x00, 0x85, 0x3C, 0x00, 0x00, 0x95, 0x3F, 0x64,
  0x00, 0x81, 0x1F, 0x00, 0x00, 0x91, 0x20, 0x64, 0x1E, 0x89, 0x24, 0x00, 0x00, 0x89, 0x2A, 0x00,
  0x1E, 0x99, 0x2A, 0x52, 0x00, 0x85, 0x3F, 0x00, 0x00, 0x95, 0x3C, 0x64, 0x1E, 0x89, 0x2A, 0x00,
  0x00, 0x80, 0x4B, 0x00, 0x1E, 0x99, 0x28, 0x64, 0x00, 0x99, 0x2A, 0x64, 0x00, 0x85, 0x3C, 0x00,
  0x00, 0x95, 0x3F, 0x64, 0x1E, 0x89, 0x2A, 0x00, 0x00, 0x89, 0x28, 0x00, 0x1E, 0x99, 0x24, 0x64,
  0x00, 0x99, 0x2A, 0x52, 0x00, 0x85, 0x3F, 0x00, 0x00, 0x95, 0x3C, 0x64, 0x00, 0x90, 0x4B, 0x64,
  0x1E, 0x89, 0x2A, 0x00, 0x00, 0x89, 0x24, 0x00, 0x00, 0x99, 0x28, 0x64, 0x00, 0x81, 0x20, 0x00,
  0x15, 0x80, 0x4B, 0x00, 0x09, 0x89, 0x28, 0x00, 0x00, 0x99, 0x2A, 0x64, 0x00, 0x99, 0x24, 0x64,
  0x00, 0x85, 0x3C, 0x00, 0x00, 0x95, 0x3E, 0x64, 0x00, 0x91, 0x22, 0x64, 0x00, 0x90, 0x4B, 0x64,
  0x1E, 0x89, 0x24, 0x00, 0x00, 0x89, 0x2A, 0x00, 0x1E, 0x99, 0x2A, 0x52, 0x00, 0x85, 0x3E, 0x00,
  0x00, 0x95, 0x3A, 0x64, 0x00, 0x80, 0x4B, 0x00, 0x00, 0x90, 0x4A, 0x64, 0x1E, 0x89, 0x2A, 0x00,
  0x00, 0x99, 0x24, 0x64, 0x1E, 0x89, 0x24, 0x00, 0x00, 0x99, 0x2A, 0x64, 0x00, 0x99, 0x28, 0x64,
  0x00, 0x85, 0x3A, 0x00, 0x00, 0x95, 0x3E, 0x64, 0x00, 0x80, 0x4A, 0x00, 0x00, 0x90, 0x48, 0x64,
  0x1E, 0x89, 0x28, 0x00, 0x00, 0x89, 0x2A, 0x00, 0x0F, 0x81, 0x22, 0x00, 0x0F, 0x99, 0x2A, 0x52,
  0x00, 0x99, 0x24, 0x64, 0x00, 0x85, 0x3E, 0x00, 0x00, 0x95, 0x3A, 0x64, 0x00, 0x91, 0x22, 0x64,
  0x00, 0x80, 0x48, 0x00, 0x00, 0x90, 0x4A, 0x64, 0x1E, 0x89, 0x24, 0x00, 0x00, 0x89, 0x2A, 0x00,
  0x00, 0x81, 0x22, 0x00, 0x00, 0x91, 0x24, 0x64, 0x00, 0x80, 0x4A, 0x00, 0x00, 0x90, 0x48, 0x64,
  0x1E, 0x99, 0x24, 0x64, 0x00, 0x99, 0x2A, 0x64, 0x00, 0x85, 0x3A, 0x00, 0x00, 0x95, 0x3F, 0x64,
  0x00, 0x81, 0x24, 0x00, 0x00, 0x91, 0x27, 0x64, 0x1E, 0x89, 0x2A, 0x00, 0x00, 0x89, 0x24, 0x00,
  0x00, 0x99, 0x28, 0x64, 0x00, 0x80, 0x48, 0x00, 0x00, 0x90, 0x46, 0x64, 0x0F, 0x81, 0x27, 0x00,
  0x0F, 0x89, 0x28, 0x00, 0x00, 0x99, 0x2A, 0x52, 0x00, 0x85, 0x3F, 0x00, 0x00, 0x95, 0x3A, 0x64,
  0x00, 0x91, 0x27, 0x64, 0x1E, 0x89, 0x2A, 0x00, 0x00, 0x80, 0x46, 0x00, 0x1E, 0x99, 0x2A, 0x64,
  0x00, 0x99, 0x28, 0x64, 0x00, 0x85, 0x3A, 0x00, 0x00, 0x95, 0x3E, 0x64, 0x00, 0x81, 0x27, 0x00,
  0x00, 0x91, 0x26, 0x64, 0x1E, 0x89, 0x28, 0x00, 0x00, 0x89, 0x2A, 0x00, 0x1E, 0x99, 0x2A, 0x52,
  0x00, 0x99, 0x24, 0x64, 0x00, 0x85, 0x3E, 0x00, 0x00, 0x95, 0x3F, 0x64, 0x00, 0x90, 0x46, 0x64,
  0x1E, 0x89, 0x24, 0x00, 0x00, 0x89, 0x2A, 0x00, 0x00, 0x99, 0x28, 0x64, 0x0F, 0x81, 0x26, 0x00,
  0x06, 0x80, 0x46, 0x00, 0x09, 0x89, 0x28, 0x00, 0x00, 0x99, 0x24, 0x64, 0x00, 0x99, 0x2A, 0x64,
  0x00, 0x85, 0x3F, 0x00, 0x00, 0x95, 0x3F, 0x64, 0x00, 0x91, 0x24, 0x64, 0x00, 0x90, 0x46, 0x64,
  0x1E, 0x89, 0x2A, 0x00, 0x00, 0x89, 0x24, 0x00, 0x1E, 0x99, 0x2A, 0x52, 0x00, 0x85, 0x3F, 0x00,
  0x00, 0x95, 0x3C, 0x64, 0x1E, 0x89, 0x2A, 0x00, 0x00, 0x99, 0x24, 0x64, 0x1E, 0x89, 0x24, 0x00,
  0x00, 0x99, 0x2A, 0x64, 0x00, 0x99, 0x28, 0x64, 0x00, 0x85, 0x3C, 0x00, 0x00, 0x95, 0x3F, 0x64,
  0x00, 0x80, 0x46, 0x00, 0x00, 0x90, 0x44, 0x64, 0x1E, 0x89, 0x28, 0x00, 0x00, 0x89, 0x2A, 0x00,
  0x00, 0x81, 0x24, 0x00, 0x1E, 0x99, 0x2A, 0x52, 0x00, 0x99, 0x24, 0x64, 0x00, 0x85, 0x3F, 0x00,
  0x00, 0x95, 0x3C, 0x64, 0x00, 0x91, 0x1F, 0x64, 0x00, 0x80, 0x44, 0x00, 0x00, 0x90, 0x43, 0x64,
  0x1E, 0x89, 0x24, 0x00, 0x00, 0x89, 0x2A, 0x00, 0x00, 0x80, 0x43, 0x00, 0x00, 0x90, 0x46, 0x64,
  0x0F, 0x81, 0x1F, 0x00, 0x0F, 0x99, 0x24, 0x64, 0x00, 0x99, 0x2A, 0x64, 0x00, 0x85, 0x3C, 0x00,
  0x00, 0x95, 0x3F, 0x64, 0x00, 0x91, 0x20, 0x64, 0x1E, 0x89, 0x2A, 0x00, 0x00, 0x89, 0x24, 0x00,
  0x1E, 0x99, 0x2A, 0x52, 0x00, 0x85, 0x3F, 0x00, 0x00, 0x95, 0x3C, 0x64, 0x0F, 0x80, 0x46, 0x00,
  0x0F, 0x89, 0x2A, 0x00, 0x1E, 0x99, 0x28, 0x64, 0x00, 0x99, 0x2A, 0x64, 0x00, 0x85, 0x3C, 0x00,
  0x00, 0x95, 0x3F, 0x64, 0x1E, 0x89, 0x2A, 0x00, 0x00, 0x89, 0x28, 0x00, 0x0F, 0x81, 0x20, 0x00,
  0x0F, 0x99, 0x24, 0x64, 0x00, 0x99, 0x2A, 0x52, 0x00, 0x85, 0x3F, 0x00, 0x00, 0x95, 0x3C, 0x64,
  0x00, 0x91, 0x20, 0x64, 0x00, 0x90, 0x46, 0x64, 0x1E, 0x89, 0x2A, 0x00, 0x00, 0x89, 0x24, 0x00,
  0x0F, 0x81, 0x20, 0x00, 0x06, 0x80, 0x46, 0x00, 0x09, 0x99, 0x24, 0x64, 0x00, 0x99, 0x2A, 0x64,
  0x00, 0x85, 0x3C, 0x00, 0x00, 0x95, 0x3E, 0x64, 0x00, 0x91, 0x22, 0x64, 0x00, 0x90, 0x46, 0x64,
  0x1E, 0x89, 0x2A, 0x00, 0x00, 0x89, 0x24, 0x00, 0x1E, 0x99, 0x2A, 0x52, 0x00, 0x85, 0x3E, 0x00,
  0x00, 0x95, 0x3A, 0x64, 0x00, 0x80, 0x46, 0x00, 0x00, 0x90, 0x48, 0x64, 0x1E, 0x89, 0x2A, 0x00,
  0x00, 0x99, 0x24, 0x64, 0x1E, 0x89, 0x24, 0x00, 0x00, 0x99, 0x28, 0x64, 0x00, 0x99, 0x2A, 0x64,
  0x00, 0x85, 0x3A, 0x00, 0x00, 0x95, 0x3E, 0x64, 0x00, 0x80, 0x48, 0x00, 0x00, 0x90, 0x41, 0x64,
  0x0F, 0x81, 0x22, 0x00, 0x0F, 0x89, 0x28, 0x00, 0x00, 0x89, 0x2A, 0x00, 0x1E, 0x99, 0x24, 0x64,
  0x00, 0x99, 0x2A, 0x52, 0x00, 0x85, 0x3E, 0x00, 0x00, 0x95, 0x3A, 0x64, 0x00, 0x91, 0x22, 0x64,
  0x00, 0x80, 0x41, 0x00, 0x00, 0x90, 0x44, 0x64, 0x1A, 0x80, 0x44, 0x00, 0x04, 0x89, 0x24, 0x00,
  0x00, 0x89, 0x2A, 0x00, 0x00, 0x81, 0x22, 0x00, 0x00, 0x91, 0x24, 0x64, 0x00, 0x90, 0x44, 0x64,
  0x1E, 0x99, 0x2A, 0x64, 0x00, 0x99, 0x24, 0x64, 0x00, 0x85, 0x3A, 0x00, 0x00, 0x95, 0x3F, 0x64,
  0x00, 0x81, 0x24, 0x00, 0x00, 0x91, 0x27, 0x64, 0x1E, 0x89, 0x24, 0x00, 0x00, 0x89, 0x2A, 0x00,
  0x00, 0x99, 0x28, 0x64, 0x00, 0x80, 0x44, 0x00, 0x00, 0x90, 0x43, 0x64, 0x0F, 0x81, 0x27, 0x00,
  0x0F, 0x89, 0x28, 0x00, 0x00, 0x99, 0x2A, 0x52, 0x00, 0x85, 0x3F, 0x00, 0x00, 0x95, 0x3A, 0x64,
  0x00, 0x91, 0x27, 0x64, 0x1E, 0x89, 0x2A, 0x00, 0x00, 0x99, 0x24, 0x64, 0x1E, 0x89, 0x24, 0x00,
  0x00, 0x85, 0x3A, 0x00, 0x00, 0x81, 0x27, 0x00, 0x00, 0x80, 0x43, 0x00, 0xBD, 0x06, 0xFF, 0x2F,
  0x00
};

static const uint8_t  Canon[]  PROGMEM = {
  0x4D, 0x54, 0x68, 0x64, 0x00, 0x00, 0x00, 0x06, 0x00, 0x00, 0x00, 0x01, 0x01, 0xE0, 0x4D, 0x54,
  0x72, 0x6B, 0x00, 0x00, 0x12, 0x67, 0x00, 0xFF, 0x58, 0x04, 0x04, 0x02, 0x18, 0x08, 0x00, 0xFF,
  0x51, 0x03, 0x05, 0x62, 0xAD, 0x00, 0xFF, 0x03, 0x06, 0x54, 0x79, 0x70, 0x65, 0x20, 0x30, 0x00,
  0xFF, 0x01, 0x11, 0x50, 0x73, 0x6D, 0x50, 0x6C, 0x61, 0x79, 0x65, 0x72, 0x20, 0x56, 0x34, 0x2E,
  0x30, 0x30, 0x63, 0x0A, 0x00, 0xFF, 0x59, 0x02, 0x00, 0x00, 0x00, 0xC9, 0x00, 0x00, 0xB9, 0x07,
  0x7F, 0x00, 0xB9, 0x07, 0x08, 0x00, 0xB9, 0x00, 0x7B, 0x00, 0xB9, 0x20, 0x00, 0x00, 0x99, 0x2A,
  0x65, 0x00, 0x99, 0x28, 0x77, 0x00, 0x99, 0x24, 0x7F, 0x00, 0x99, 0x31, 0x7F, 0x00, 0xB9, 0x07,
  0x10, 0x00, 0xC8, 0x58, 0x00, 0xB8, 0x07, 0x5D, 0x00, 0xB8, 0x07, 0x08, 0x00, 0xB8, 0x00, 0x7A,
  0x00, 0xB8, 0x20, 0x00, 0x00, 0x98, 0x32, 0x7F, 0x00, 0xB8, 0x07, 0x0B, 0x00, 0xC7, 0x62, 0x00,
  0xB7, 0x07, 0x63, 0x00, 0xB7, 0x07, 0x08, 0x00, 0xB7, 0x00, 0x7A, 0x00, 0xB7, 0x20, 0x00, 0x00,
  0x97, 0x5D, 0x7F, 0x00, 0xB7, 0x07, 0x0C, 0x00, 0xC6, 0x5B, 0x00, 0xB6, 0x07, 0x6F, 0x00, 0xB6,
  0x07, 0x08, 0x00, 0xB6, 0x00, 0x7A, 0x00, 0xB6, 0x20, 0x00, 0x00, 0x96, 0x42, 0x7A, 0x00, 0x96,
  0x45, 0x75, 0x00, 0xB6, 0x07, 0x0D, 0x00, 0xC5, 0x64, 0x00, 0xB5, 0x07, 0x51, 0x00, 0xB5, 0x07,
  0x08, 0x00, 0xB5, 0x00, 0x7A, 0x00, 0xB5, 0x20, 0x00, 0x00, 0x95, 0x32, 0x7F, 0x00, 0xB5, 0x07,
  0x0A, 0x00, 0xC4, 0x31, 0x00, 0xB4, 0x07, 0x6F, 0x00, 0xB4, 0x07, 0x08, 0x00, 0xB4, 0x00, 0x7A,
  0x00, 0xB4, 0x20, 0x00, 0x00, 0x94, 0x42, 0x7F, 0x00, 0x94, 0x45, 0x7F, 0x00, 0xB4, 0x07, 0x0D,
  0x00, 0xC3, 0x01, 0x00, 0xB3, 0x07, 0x7F, 0x00, 0xB3, 0x07, 0x08, 0x00, 0xB3, 0x00, 0x7A, 0x00,
  0xB3, 0x20, 0x00, 0x00, 0x93, 0x45, 0x7F, 0x00, 0x93, 0x4A, 0x7F, 0x00, 0x93, 0x4E, 0x7F, 0x00,
  0x93, 0x3E, 0x7F, 0x00, 0xB3, 0x07, 0x10, 0x00, 0xC2, 0x30, 0x00, 0xB2, 0x07, 0x6F, 0x00, 0xB2,
  0x07, 0x7F, 0x00, 0xB2, 0x00, 0x7A, 0x00, 0xB2, 0x20, 0x00, 0x00, 0xC1, 0x27, 0x00, 0xB1, 0x07,
  0x7A, 0x00, 0xB1, 0x07, 0x08, 0x00, 0xB1, 0x00, 0x7A, 0x00, 0xB1, 0x20, 0x00, 0x00, 0x91, 0x26,
  0x7F, 0x00, 0xB1, 0x07, 0x0F, 0x00, 0xC0, 0x30, 0x00, 0xB0, 0x07, 0x7F, 0x00, 0xB0, 0x07, 0x08,
  0x00, 0xB0, 0x00, 0x7A, 0x00, 0xB0, 0x20, 0x00, 0x00, 0x90, 0x5D, 0x7F, 0x00, 0x90, 0x51, 0x7F,
  0x00, 0xB0, 0x07, 0x10, 0x0A, 0x89, 0x31, 0x00, 0x00, 0x89, 0x24, 0x00, 0x00, 0x89, 0x28, 0x00,
  0x00, 0x89, 0x2A, 0x00, 0x81, 0x66, 0xB9, 0x07, 0x18, 0x00, 0xB8, 0x07, 0x11, 0x00, 0x87, 0x5D,
  0x00, 0x00, 0xB7, 0x07, 0x12, 0x00, 0xB6, 0x07, 0x14, 0x00, 0xB5, 0x07, 0x0F, 0x00, 0xB4, 0x07,
  0x14, 0x00, 0xB3, 0x07, 0x18, 0x00, 0xB1, 0x07, 0x17, 0x00, 0x80, 0x5D, 0x00, 0x00, 0x80, 0x51,
  0x00, 0x00, 0xB0, 0x07, 0x18, 0x81, 0x70, 0x99, 0x2A, 0x75, 0x00, 0x99, 0x28, 0x6C, 0x00, 0xB9,
  0x07, 0x20, 0x00, 0x98, 0x39, 0x7F, 0x00, 0xB8, 0x07, 0x17, 0x00, 0x97, 0x5A, 0x7F, 0x00, 0xB7,
  0x07, 0x18, 0x00, 0xB6, 0x07, 0x1B, 0x00, 0x95, 0x39, 0x7F, 0x00, 0xB5, 0x07, 0x14, 0x00, 0xB4,
  0x07, 0x1B, 0x00, 0xB3, 0x07, 0x20, 0x00, 0xB1, 0x07, 0x1E, 0x00, 0x90, 0x5A, 0x7F, 0x00, 0x90,
  0x4E, 0x7F, 0x00, 0xB0, 0x07, 0x20, 0x0A, 0x89, 0x28, 0x00, 0x00, 0x89, 0x2A, 0x00, 0x81, 0x66,
  0x99, 0x28, 0x62, 0x00, 0xB9, 0x07, 0x28, 0x00, 0x88, 0x39, 0x00, 0x00, 0xB8, 0x07, 0x1D, 0x00,
  0x87, 0x5A, 0x00, 0x00, 0x97, 0x5B, 0x7A, 0x00, 0xB7, 0x07, 0x1F, 0x00, 0xB6, 0x07, 0x22, 0x00,
  0x85, 0x39, 0x00, 0x00, 0xB5, 0x07, 0x19, 0x00, 0xB4, 0x07, 0x22, 0x00, 0xB3, 0x07, 0x28, 0x00,
  0xB1, 0x07, 0x26, 0x00, 0x80, 0x5A, 0x00, 0x00, 0x80, 0x4E, 0x00, 0x00, 0x90, 0x5B, 0x77, 0x00,
  0x90, 0x4F, 0x77, 0x00, 0xB0, 0x07, 0x28, 0x0A, 0x89, 0x28, 0x00, 0x81, 0x66, 0x99, 0x2A, 0x6D,
  0x00, 0x99, 0x28, 0x75, 0x00, 0xB9, 0x07, 0x30, 0x00, 0x98, 0x3E, 0x7F, 0x00, 0xB8, 0x07, 0x23,
  0x00, 0x87, 0x5B, 0x00, 0x00, 0x97, 0x5D, 0x7F, 0x00, 0xB7, 0x07, 0x25, 0x00, 0xB6, 0x07, 0x29,
  0x00, 0x95, 0x3E, 0x7F, 0x00, 0xB5, 0x07, 0x1E, 0x00, 0xB4, 0x07, 0x29, 0x00, 0x83, 0x4E, 0x00,
  0x00, 0x83, 0x4A, 0x00, 0x00, 0x83, 0x45, 0x00, 0x00, 0x93, 0x45, 0x7F, 0x00, 0xB3, 0x07, 0x30,
  0x00, 0xB1, 0x07, 0x2E, 0x00, 0x80, 0x5B, 0x00, 0x00, 0x80, 0x4F, 0x00, 0x00, 0x90, 0x5D, 0x7F,
  0x00, 0x90, 0x51, 0x7F, 0x00, 0xB0, 0x07, 0x30, 0x0A, 0x89, 0x28, 0x00, 0x00, 0x89, 0x2A, 0x00,
  0x81, 0x66, 0xB9, 0x07, 0x38, 0x00, 0x88, 0x3E, 0x00, 0x00, 0xB8, 0x07, 0x29, 0x00, 0x87, 0x5D,
  0x00, 0x00, 0xB7, 0x07, 0x2B, 0x00, 0xB6, 0x07, 0x30, 0x00, 0x85, 0x3E, 0x00, 0x00, 0xB5, 0x07,
  0x23, 0x00, 0xB4, 0x07, 0x30, 0x00, 0x93, 0x4A, 0x7E, 0x00, 0xB3, 0x07, 0x38, 0x00, 0xB1, 0x07,
  0x35, 0x00, 0x80, 0x5D, 0x00, 0x00, 0x80, 0x51, 0x00, 0x00, 0xB0, 0x07, 0x38, 0x81, 0x70, 0x99,
  0x2A, 0x75, 0x00, 0x99, 0x28, 0x6D, 0x00, 0xB9, 0x07, 0x40, 0x00, 0x98, 0x42, 0x7F, 0x00, 0xB8,
  0x07, 0x2E, 0x00, 0x97, 0x5A, 0x7F, 0x00, 0xB7, 0x07, 0x31, 0x00, 0xB6, 0x07, 0x37, 0x00, 0x95,
  0x42, 0x7F, 0x00, 0xB5, 0x07, 0x28, 0x00, 0xB4, 0x07, 0x37, 0x00, 0x83, 0x4A, 0x00, 0x00, 0x93,
  0x4C, 0x7F, 0x00, 0xB3, 0x07, 0x40, 0x00, 0xB1, 0x07, 0x3D, 0x00, 0x90, 0x5A, 0x7F, 0x00, 0x90,
  0x4E, 0x7F, 0x00, 0xB0, 0x07, 0x40, 0x0A, 0x89, 0x28, 0x00, 0x00, 0x89, 0x2A, 0x00, 0x81, 0x66,
  0x99, 0x28, 0x5F, 0x00, 0xB9, 0x07, 0x48, 0x00, 0x88, 0x42, 0x00, 0x00, 0xB8, 0x07, 0x34, 0x00,
  0x87, 0x5A, 0x00, 0x00, 0x97, 0x5B, 0x7E, 0x00, 0xB7, 0x07, 0x38, 0x00, 0xB6, 0x07, 0x3E, 0x00,
  0x85, 0x42, 0x00, 0x00, 0xB5, 0x07, 0x2D, 0x00, 0xB4, 0x07, 0x3E, 0x00, 0x83, 0x4C, 0x00, 0x00,
  0x93, 0x4E, 0x7E, 0x00, 0xB3, 0x07, 0x48, 0x00, 0xB1, 0x07, 0x45, 0x00, 0x80, 0x5A, 0x00, 0x00,
  0x80, 0x4E, 0x00, 0x00, 0x90, 0x5B, 0x7A, 0x00, 0x90, 0x4F, 0x7A, 0x00, 0xB0, 0x07, 0x48, 0x0A,
  0x89, 0x28, 0x00, 0x81, 0x66, 0x99, 0x2A, 0x69, 0x00, 0x99, 0x28, 0x72, 0x00, 0x99, 0x24, 0x7F,
  0x00, 0xB9, 0x07, 0x50, 0x00, 0x88, 0x32, 0x00, 0x00, 0x98, 0x2D, 0x7F, 0x00, 0xB8, 0x07, 0x3A,
  0x00, 0x87, 0x5B, 0x00, 0x00, 0x97, 0x5D, 0x7F, 0x00, 0xB7, 0x07, 0x3E, 0x00, 0x86, 0x42, 0x00,
  0x00, 0x96, 0x40, 0x76, 0x00, 0xB6, 0x07, 0x45, 0x00, 0x85, 0x32, 0x00, 0x00, 0x95, 0x2D, 0x7F,
  0x00, 0xB5, 0x07, 0x33, 0x00, 0x84, 0x42, 0x00, 0x00, 0x94, 0x40, 0x7F, 0x00, 0xB4, 0x07, 0x45,
  0x00, 0x83, 0x3E, 0x00, 0x00, 0x83, 0x45, 0x00, 0x00, 0x83, 0x4E, 0x00, 0x00, 0x93, 0x51, 0x7F,
  0x00, 0x93, 0x3D, 0x7F, 0x00, 0x93, 0x4C, 0x7F, 0x00, 0x93, 0x45, 0x7F, 0x00, 0xB3, 0x07, 0x50,
  0x00, 0x81, 0x26, 0x00, 0x00, 0x91, 0x21, 0x7F, 0x00, 0xB1, 0x07, 0x4C, 0x00, 0x80, 0x5B, 0x00,
  0x00, 0x80, 0x4F, 0x00, 0x00, 0x90, 0x5D, 0x7F, 0x00, 0x90, 0x51, 0x7F, 0x00, 0xB0, 0x07, 0x50,
  0x0A, 0x89, 0x24, 0x00, 0x00, 0x89, 0x28, 0x00, 0x00, 0x89, 0x2A, 0x00, 0x32, 0x99, 0x28, 0x5B,
  0x0A, 0x89, 0x28, 0x00, 0x32, 0x99, 0x28, 0x55, 0x0A, 0x89, 0x28, 0x00, 0x32, 0x99, 0x28, 0x49,
  0x0A, 0x89, 0x28, 0x00, 0x32, 0x99, 0x28, 0x60, 0x00, 0xB9, 0x07, 0x58, 0x00, 0xB8, 0x07, 0x40,
  0x00, 0x87, 0x5D, 0x00, 0x00, 0x97, 0x51, 0x7B, 0x00, 0xB7, 0x07, 0x44, 0x00, 0xB6, 0x07, 0x4C,
  0x00, 0xB5, 0x07, 0x38, 0x00, 0xB4, 0x07, 0x4C, 0x00, 0xB3, 0x07, 0x58, 0x00, 0xB1, 0x07, 0x54,
  0x00, 0x80, 0x5D, 0x00, 0x00, 0x80, 0x51, 0x00, 0x00, 0x90, 0x51, 0x7E, 0x00, 0x90, 0x45, 0x7E,
  0x00, 0xB0, 0x07, 0x58, 0x0A, 0x89, 0x28, 0x00, 0x32, 0x99, 0x28, 0x46, 0x0A, 0x89, 0x28, 0x00,
  0x32, 0x99, 0x28, 0x60, 0x0A, 0x89, 0x28, 0x00, 0x32, 0x99, 0x28, 0x43, 0x0A, 0x89, 0x28, 0x00,
  0x32, 0x99, 0x2A, 0x77, 0x00, 0x99, 0x28, 0x7A, 0x00, 0xB9, 0x07, 0x60, 0x00, 0x98, 0x3D, 0x7F,
  0x00, 0xB8, 0x07, 0x46, 0x00, 0x87, 0x51, 0x00, 0x00, 0x97, 0x53, 0x7F, 0x00, 0xB7, 0x07, 0x4A,
  0x00, 0xB6, 0x07, 0x53, 0x00, 0x95, 0x3D, 0x7F, 0x00, 0xB5, 0x07, 0x3D, 0x00, 0xB4, 0x07, 0x53,
  0x00, 0xB3, 0x07, 0x60, 0x00, 0xB1, 0x07, 0x5C, 0x00, 0x80, 0x51, 0x00, 0x00, 0x80, 0x45, 0x00,
  0x00, 0x90, 0x53, 0x7F, 0x00, 0x90, 0x47, 0x7F, 0x00, 0xB0, 0x07, 0x60, 0x0A, 0x89, 0x28, 0x00,
  0x00, 0x89, 0x2A, 0x00, 0x81, 0x66, 0x99, 0x28, 0x5B, 0x00, 0xB9, 0x07, 0x68, 0x00, 0x88, 0x3D,
  0x00, 0x00, 0xB8, 0x07, 0x4C, 0x00, 0x87, 0x53, 0x00, 0x00, 0x97, 0x55, 0x76, 0x00, 0xB7, 0x07,
  0x51, 0x00, 0xB6, 0x07, 0x5A, 0x00, 0x85, 0x3D, 0x00, 0x00, 0xB5, 0x07, 0x42, 0x00, 0xB4, 0x07,
  0x5A, 0x00, 0xB3, 0x07, 0x68, 0x00, 0xB1, 0x07, 0x63, 0x00, 0x80, 0x53, 0x00, 0x00, 0x80, 0x47,
  0x00, 0x00, 0x90, 0x55, 0x7A, 0x00, 0x90, 0x49, 0x7A, 0x00, 0xB0, 0x07, 0x68, 0x0A, 0x89, 0x28,
  0x00, 0x81, 0x66, 0x99, 0x2A, 0x6A, 0x00, 0x99, 0x28, 0x6C, 0x00, 0x99, 0x53, 0x7F, 0x00, 0xB9,
  0x07, 0x70, 0x00, 0x98, 0x40, 0x7F, 0x00, 0xB8, 0x07, 0x52, 0x00, 0x87, 0x55, 0x00, 0x00, 0x97,
  0x56, 0x7F, 0x00, 0xB7, 0x07, 0x57, 0x00, 0x86, 0x45, 0x00, 0x00, 0x96, 0x43, 0x74, 0x00, 0xB6,
  0x07, 0x61, 0x00, 0x95, 0x40, 0x7F, 0x00, 0xB5, 0x07, 0x47, 0x00, 0x84, 0x45, 0x00, 0x00, 0x94,
  0x43, 0x7F, 0x00, 0xB4, 0x07, 0x61, 0x00, 0xB3, 0x07, 0x70, 0x00, 0xB1, 0x07, 0x6B, 0x00, 0x80,
  0x55, 0x00, 0x00, 0x80, 0x49, 0x00, 0x00, 0x90, 0x56, 0x7F, 0x00, 0x90, 0x4A, 0x7F, 0x00, 0xB0,
  0x07, 0x70, 0x0A, 0x89, 0x53, 0x00, 0x00, 0x89, 0x28, 0x00, 0x00, 0x89, 0x2A, 0x00, 0x81, 0x66,
  0x99, 0x28, 0x65, 0x00, 0xB9, 0x07, 0x78, 0x00, 0x88, 0x40, 0x00, 0x00, 0xB8, 0x07, 0x57, 0x00,
  0x87, 0x56, 0x00, 0x00, 0x97, 0x58, 0x7E, 0x00, 0xB7, 0x07, 0x5D, 0x00, 0xB6, 0x07, 0x68, 0x00,
  0x85, 0x40, 0x00, 0x00, 0xB5, 0x07, 0x4C, 0x00, 0xB4, 0x07, 0x68, 0x00, 0xB3, 0x07, 0x78, 0x00,
  0xB1, 0x07, 0x73, 0x00, 0x80, 0x56, 0x00, 0x00, 0x80, 0x4A, 0x00, 0x00, 0x90, 0x58, 0x7B, 0x00,
  0x90, 0x4C, 0x7B, 0x00, 0xB0, 0x07, 0x78, 0x0A, 0x89, 0x28, 0x00, 0x81, 0x66, 0x99, 0x2E, 0x7F,
  0x00, 0x99, 0x28, 0x69, 0x00, 0xB9, 0x07, 0x7F, 0x00, 0x98, 0x45, 0x7F, 0x00, 0xB8, 0x07, 0x5D,
  0x00, 0x87, 0x58, 0x00, 0x00, 0x97, 0x5A, 0x7F, 0x00, 0xB7, 0x07, 0x63, 0x00, 0xB6, 0x07, 0x6F,
  0x00, 0x95, 0x45, 0x7F, 0x00, 0xB5, 0x07, 0x51, 0x00, 0xB4, 0x07, 0x6F, 0x00, 0x83, 0x51, 0x00,
  0x00, 0x93, 0x4F, 0x7F, 0x00, 0xB3, 0x07, 0x7F, 0x00, 0x81, 0x21, 0x00, 0x00, 0x91, 0x28, 0x7F,
  0x00, 0xB1, 0x07, 0x7A, 0x00, 0x80, 0x58, 0x00, 0x00, 0x80, 0x4C, 0x00, 0x00, 0x90, 0x5A, 0x7F,
  0x00, 0x90, 0x4E, 0x7F, 0x00, 0xB0, 0x07, 0x7F, 0x0A, 0x89, 0x28, 0x00, 0x00, 0x89, 0x2E, 0x00,
  0x81, 0x66, 0x99, 0x28, 0x5C, 0x00, 0x88, 0x45, 0x00, 0x00, 0x87, 0x5A, 0x00, 0x00, 0x97, 0x5B,
  0x7B, 0x00, 0x85, 0x45, 0x00, 0x00, 0x80, 0x5A, 0x00, 0x00, 0x80, 0x4E, 0x00, 0x00, 0x90, 0x5B,
  0x7F, 0x00, 0x90, 0x4F, 0x7F, 0x0A, 0x89, 0x28, 0x00, 0x81, 0x66, 0x99, 0x2A, 0x68, 0x00, 0x99,
  0x28, 0x72, 0x00, 0x99, 0x24, 0x7F, 0x00, 0x88, 0x2D, 0x00, 0x00, 0x98, 0x2F, 0x7F, 0x00, 0x87,
  0x5B, 0x00, 0x00, 0x97, 0x5A, 0x7F, 0x00, 0x86, 0x43, 0x00, 0x00, 0x86, 0x40, 0x00, 0x00, 0x96,
  0x42, 0x7E, 0x00, 0x96, 0x3E, 0x7D, 0x00, 0x85, 0x2D, 0x00, 0x00, 0x95, 0x2F, 0x7F, 0x00, 0x84,
  0x43, 0x00, 0x00, 0x84, 0x40, 0x00, 0x00, 0x94, 0x42, 0x7F, 0x00, 0x94, 0x3E, 0x7F, 0x00, 0x83,
  0x4C, 0x00, 0x00, 0x83, 0x3D, 0x00, 0x00, 0x83, 0x45, 0x00, 0x00, 0x83, 0x4F, 0x00, 0x00, 0x93,
  0x4A, 0x7F, 0x00, 0x93, 0x45, 0x7F, 0x00, 0x93, 0x4E, 0x7F, 0x00, 0x93, 0x3B, 0x7F, 0x00, 0x81,
  0x28, 0x00, 0x00, 0x91, 0x23, 0x7F, 0x00, 0x80, 0x5B, 0x00, 0x00, 0x80, 0x4F, 0x00, 0x00, 0x90,
  0x5A, 0x7F, 0x00, 0x90, 0x4E, 0x7F, 0x0A, 0x89, 0x24, 0x00, 0x00, 0x89, 0x28, 0x00, 0x00, 0x89,
  0x2A, 0x00, 0x81, 0x66, 0x87, 0x5A, 0x00, 0x00, 0x80, 0x5A, 0x00, 0x00, 0x80, 0x4E, 0x00, 0x81,
  0x70, 0x99, 0x2A, 0x78, 0x00, 0x99, 0x28, 0x6E, 0x00, 0x98, 0x36, 0x7F, 0x00, 0x97, 0x56, 0x7F,
  0x00, 0x95, 0x36, 0x7F, 0x00, 0x83, 0x4A, 0x00, 0x00, 0x83, 0x45, 0x00, 0x00, 0x93, 0x42, 0x7F,
  0x00, 0x90, 0x56, 0x7F, 0x00, 0x90, 0x4A, 0x7F, 0x09, 0x89, 0x28, 0x00, 0x00, 0x89, 0x2A, 0x00,
  0x81, 0x67, 0x99, 0x28, 0x62, 0x00, 0x88, 0x36, 0x00, 0x00, 0x87, 0x56, 0x00, 0x00, 0x97, 0x58,
  0x75, 0x00, 0x85, 0x36, 0x00, 0x00, 0x80, 0x4A, 0x00, 0x00, 0x80, 0x56, 0x00, 0x00, 0x90, 0x58,
  0x7A, 0x00, 0x90, 0x4C, 0x7A, 0x09, 0x89, 0x28, 0x00, 0x81, 0x67, 0x99, 0x2A, 0x6C, 0x00, 0x99,
  0x28, 0x72, 0x00, 0x98, 0x3B, 0x7F, 0x00, 0x87, 0x58, 0x00, 0x00, 0x97, 0x5A, 0x7F, 0x00, 0x86,
  0x42, 0x00, 0x00, 0x96, 0x47, 0x76, 0x00, 0x95, 0x3B, 0x7F, 0x00, 0x84, 0x42, 0x00, 0x00, 0x94,
  0x47, 0x7F, 0x00, 0x83, 0x4E, 0x00, 0x00, 0x83, 0x42, 0x00, 0x00, 0x93, 0x53, 0x7F, 0x00, 0x93,
  0x4E, 0x7F, 0x00, 0x93, 0x47, 0x7F, 0x00, 0x93, 0x4A, 0x7F, 0x00, 0x81, 0x23, 0x00, 0x00, 0x91,
  0x2A, 0x7F, 0x00, 0x80, 0x58, 0x00, 0x00, 0x80, 0x4C, 0x00, 0x00, 0x90, 0x5A, 0x7F, 0x00, 0x90,
  0x4E, 0x7F, 0x09, 0x89, 0x28, 0x00, 0x00, 0x89, 0x2A, 0x00, 0x81, 0x67, 0x88, 0x3B, 0x00, 0x00,
  0x87, 0x5A, 0x00, 0x00, 0x85, 0x3B, 0x00, 0x00, 0x80, 0x4E, 0x00, 0x00, 0x80, 0x5A, 0x00, 0x81,
  0x70, 0x99, 0x28, 0x71, 0x00, 0x99, 0x2A, 0x7C, 0x00, 0x98, 0x3E, 0x7F, 0x00, 0x97, 0x4E, 0x7F,
  0x00, 0x95, 0x3E, 0x7F, 0x00, 0x83, 0x53, 0x00, 0x00, 0x93, 0x55, 0x7F, 0x00, 0x90, 0x4E, 0x7F,
  0x00, 0x90, 0x42, 0x7F, 0x09, 0x89, 0x2A, 0x00, 0x00, 0x89, 0x28, 0x00, 0x81, 0x67, 0x88, 0x3E,
  0x00, 0x00, 0x87, 0x4E, 0x00, 0x00, 0x97, 0x4F, 0x77, 0x00, 0x85, 0x3E, 0x00, 0x00, 0x80, 0x42,
  0x00, 0x00, 0x80, 0x4E, 0x00, 0x00, 0x90, 0x4F, 0x7A, 0x00, 0x90, 0x43, 0x7A, 0x81, 0x70, 0x99,
  0x2A, 0x69, 0x00, 0x99, 0x24, 0x7F, 0x00, 0x99, 0x28, 0x73, 0x00, 0x88, 0x2F, 0x00, 0x00, 0x98,
  0x2A, 0x7F, 0x00, 0x87, 0x4F, 0x00, 0x00, 0x97, 0x51, 0x7F, 0x00, 0x86, 0x3E, 0x00, 0x00, 0x86,
  0x47, 0x00, 0x00, 0x96, 0x45, 0x7B, 0x00, 0x96, 0x42, 0x77, 0x00, 0x85, 0x2F, 0x00, 0x00, 0x95,
  0x2A, 0x7F, 0x00, 0x84, 0x3E, 0x00, 0x00, 0x84, 0x47, 0x00, 0x00, 0x94, 0x45, 0x7F, 0x00, 0x94,
  0x42, 0x7F, 0x00, 0x83, 0x55, 0x00, 0x00, 0x83, 0x4E, 0x00, 0x00, 0x83, 0x3B, 0x00, 0x00, 0x83,
  0x4A, 0x00, 0x00, 0x83, 0x47, 0x00, 0x00, 0x93, 0x51, 0x7F, 0x00, 0x93, 0x56, 0x7F, 0x00, 0x93,
  0x4C, 0x7F, 0x00, 0x93, 0x42, 0x7F, 0x00, 0x93, 0x39, 0x7F, 0x00, 0x81, 0x2A, 0x00, 0x00, 0x91,
  0x2D, 0x7F, 0x00, 0x80, 0x4F, 0x00, 0x00, 0x80, 0x43, 0x00, 0x00, 0x90, 0x51, 0x7F, 0x00, 0x90,
  0x45, 0x7F, 0x0A, 0x89, 0x28, 0x00, 0x00, 0x89, 0x24, 0x00, 0x00, 0x89, 0x2A, 0x00, 0x81, 0x66,
  0x87, 0x51, 0x00, 0x00, 0x97, 0x53, 0x78, 0x00, 0x83, 0x51, 0x00, 0x00, 0x83, 0x56, 0x00, 0x00,
  0x93, 0x55, 0x7B, 0x00, 0x80, 0x51, 0x00, 0x00, 0x80, 0x45, 0x00, 0x00, 0x90, 0x53, 0x7D, 0x00,
  0x90, 0x47, 0x7D, 0x81, 0x70, 0x99, 0x2A, 0x78, 0x00, 0x99, 0x28, 0x74, 0x00, 0x98, 0x39, 0x7F,
  0x00, 0x87, 0x53, 0x00, 0x00, 0x97, 0x51, 0x7F, 0x00, 0x95, 0x39, 0x7F, 0x00, 0x83, 0x4C, 0x00,
  0x00, 0x83, 0x55, 0x00, 0x00, 0x93, 0x51, 0x7F, 0x00, 0x80, 0x53, 0x00, 0x00, 0x80, 0x47, 0x00,
  0x00, 0x90, 0x51, 0x7F, 0x00, 0x90, 0x45, 0x7F, 0x0A, 0x89, 0x28, 0x00, 0x00, 0x89, 0x2A, 0x00,
  0x81, 0x66, 0x88, 0x39, 0x00, 0x00, 0x87, 0x51, 0x00, 0x00, 0x97, 0x4F, 0x78, 0x00, 0x85, 0x39,
  0x00, 0x00, 0x83, 0x51, 0x00, 0x00, 0x93, 0x4E, 0x7B, 0x00, 0x80, 0x51, 0x00, 0x00, 0x80, 0x45,
  0x00, 0x00, 0x90, 0x4F, 0x78, 0x00, 0x90, 0x43, 0x78, 0x81, 0x70, 0x99, 0x2A, 0x67, 0x00, 0x99,
  0x28, 0x71, 0x00, 0x99, 0x53, 0x7F, 0x00, 0x98, 0x3D, 0x7F, 0x00, 0x87, 0x4F, 0x00, 0x00, 0x97,
  0x51, 0x7F, 0x00, 0x86, 0x45, 0x00, 0x00, 0x96, 0x4A, 0x75, 0x00, 0x95, 0x3D, 0x7F, 0x00, 0x84,
  0x45, 0x00, 0x00, 0x94, 0x4A, 0x7F, 0x00, 0x83, 0x4E, 0x00, 0x00, 0x93, 0x4C, 0x7F, 0x00, 0x81,
  0x2D, 0x00, 0x00, 0x91, 0x21, 0x7F, 0x00, 0x80, 0x4F, 0x00, 0x00, 0x80, 0x43, 0x00, 0x00, 0x90,
  0x51, 0x7F, 0x00, 0x90, 0x45, 0x7F, 0x0A, 0x89, 0x53, 0x00, 0x00, 0x89, 0x28, 0x00, 0x00, 0x89,
  0x2A, 0x00, 0x81, 0x66, 0x99, 0x28, 0x5A, 0x00, 0x88, 0x3D, 0x00, 0x00, 0x87, 0x51, 0x00, 0x00,
  0x97, 0x4E, 0x78, 0x00, 0x85, 0x3D, 0x00, 0x00, 0x83, 0x4C, 0x00, 0x00, 0x93, 0x4A, 0x7F, 0x00,
  0x80, 0x45, 0x00, 0x00, 0x80, 0x51, 0x00, 0x00, 0x90, 0x4E, 0x7B, 0x00, 0x90, 0x42, 0x7B, 0x0A,
  0x89, 0x28, 0x00, 0x81, 0x66, 0x99, 0x2E, 0x7D, 0x00, 0x99, 0x28, 0x6A, 0x00, 0x98, 0x42, 0x7F,
  0x00, 0x87, 0x4E, 0x00, 0x00, 0x97, 0x4F, 0x7F, 0x00, 0x95, 0x42, 0x7F, 0x00, 0x83, 0x4A, 0x00,
  0x00, 0x93, 0x45, 0x7F, 0x00, 0x80, 0x4E, 0x00, 0x00, 0x80, 0x42, 0x00, 0x00, 0x90, 0x4F, 0x7F,
  0x00, 0x90, 0x43, 0x7F, 0x0A, 0x89, 0x28, 0x00, 0x00, 0x89, 0x2E, 0x00, 0x6E, 0x83, 0x42, 0x00,
  0x78, 0x99, 0x28, 0x5B, 0x00, 0x88, 0x42, 0x00, 0x00, 0x87, 0x4F, 0x00, 0x00, 0x97, 0x51, 0x7F,
  0x00, 0x85, 0x42, 0x00, 0x00, 0x83, 0x45, 0x00, 0x00, 0x93, 0x42, 0x7C, 0x00, 0x80, 0x43, 0x00,
  0x00, 0x80, 0x4F, 0x00, 0x00, 0x90, 0x51, 0x7B, 0x00, 0x90, 0x45, 0x7B, 0x0A, 0x89, 0x28, 0x00,
  0x81, 0x66, 0x99, 0x2A, 0x69, 0x00, 0x99, 0x28, 0x72, 0x00, 0x99, 0x24, 0x7F, 0x00, 0x88, 0x2A,
  0x00, 0x00, 0x98, 0x2B, 0x7F, 0x00, 0x87, 0x51, 0x00, 0x00, 0x97, 0x4F, 0x7F, 0x00, 0x86, 0x42,
  0x00, 0x00, 0x86, 0x4A, 0x00, 0x00, 0x96, 0x4F, 0x7B, 0x00, 0x96, 0x47, 0x73, 0x00, 0x85, 0x2A,
  0x00, 0x00, 0x95, 0x2B, 0x7F, 0x00, 0x84, 0x4A, 0x00, 0x00, 0x84, 0x42, 0x00, 0x00, 0x94, 0x4F,
  0x7F, 0x00, 0x94, 0x47, 0x7F, 0x00, 0x83, 0x39, 0x00, 0x00, 0x83, 0x42, 0x00, 0x00, 0x93, 0x43,
  0x7F, 0x00, 0x93, 0x47, 0x7F, 0x00, 0x93, 0x3E, 0x7F, 0x00, 0x93, 0x37, 0x7F, 0x00, 0x81, 0x21,
  0x00, 0x00, 0x91, 0x1F, 0x7F, 0x00, 0x80, 0x51, 0x00, 0x00, 0x80, 0x45, 0x00, 0x00, 0x90, 0x4F,
  0x7F, 0x00, 0x90, 0x43, 0x7F, 0x0A, 0x89, 0x24, 0x00, 0x00, 0x89, 0x28, 0x00, 0x00, 0x89, 0x2A,
  0x00, 0x81, 0x66, 0x87, 0x4F, 0x00, 0x00, 0x83, 0x43, 0x00, 0x00, 0x80, 0x4F, 0x00, 0x00, 0x80,
  0x43, 0x00, 0x81, 0x70, 0x99, 0x2A, 0x7C, 0x00, 0x99, 0x28, 0x70, 0x00, 0x98, 0x32, 0x7F, 0x00,
  0x97, 0x53, 0x7F, 0x00, 0x95, 0x32, 0x7F, 0x00, 0x83, 0x47, 0x00, 0x00, 0x93, 0x47, 0x7F, 0x00,
  0x93, 0x43, 0x7F, 0x00, 0x90, 0x53, 0x7F, 0x00, 0x90, 0x47, 0x7F, 0x0A, 0x89, 0x28, 0x00, 0x00,
  0x89, 0x2A, 0x00, 0x81, 0x66, 0x99, 0x28, 0x5E, 0x00, 0x88, 0x32, 0x00, 0x00, 0x87, 0x53, 0x00,
  0x00, 0x97, 0x51, 0x76, 0x00, 0x85, 0x32, 0x00, 0x00, 0x80, 0x53, 0x00, 0x00, 0x80, 0x47, 0x00,
  0x00, 0x90, 0x51, 0x7E, 0x00, 0x90, 0x45, 0x7E, 0x0A, 0x89, 0x28, 0x00, 0x81, 0x66, 0x99, 0x2A,
  0x6B, 0x00, 0x99, 0x28, 0x74, 0x00, 0x98, 0x37, 0x7F, 0x00, 0x87, 0x51, 0x00, 0x00, 0x97, 0x4F,
  0x7F, 0x00, 0x95, 0x37, 0x7F, 0x00, 0x83, 0x47, 0x00, 0x00, 0x83, 0x43, 0x00, 0x00, 0x93, 0x47,
  0x7F, 0x00, 0x93, 0x4A, 0x7F, 0x00, 0x93, 0x43, 0x7F, 0x00, 0x81, 0x1F, 0x00, 0x00, 0x91, 0x26,
  0x7F, 0x00, 0x80, 0x51, 0x00, 0x00, 0x80, 0x45, 0x00, 0x00, 0x90, 0x4F, 0x7F, 0x00, 0x90, 0x43,
  0x7F, 0x0A, 0x89, 0x28, 0x00, 0x00, 0x89, 0x2A, 0x00, 0x81, 0x66, 0x88, 0x37, 0x00, 0x00, 0x87,
  0x4F, 0x00, 0x00, 0x85, 0x37, 0x00, 0x00, 0x83, 0x47, 0x00, 0x00, 0x83, 0x43, 0x00, 0x00, 0x83,
  0x4A, 0x00, 0x00, 0x80, 0x4F, 0x00, 0x00, 0x80, 0x43, 0x00, 0x81, 0x70, 0x99, 0x2A, 0x75, 0x00,
  0x99, 0x28, 0x6E, 0x00, 0x98, 0x3B, 0x7F, 0x00, 0x97, 0x4E, 0x7F, 0x00, 0x95, 0x3B, 0x7F, 0x00,
  0x93, 0x47, 0x7F, 0x00, 0x93, 0x4A, 0x7F, 0x00, 0x93, 0x43, 0x7F, 0x00, 0x90, 0x4E, 0x7F, 0x00,
  0x90, 0x42, 0x7F, 0x0A, 0x89, 0x28, 0x00, 0x00, 0x89, 0x2A, 0x00, 0x81, 0x66, 0x99, 0x28, 0x62,
  0x00, 0x88, 0x3B, 0x00, 0x00, 0x87, 0x4E, 0x00, 0x00, 0x97, 0x4C, 0x78, 0x00, 0x85, 0x3B, 0x00,
  0x00, 0x83, 0x47, 0x00, 0x00, 0x83, 0x3E, 0x00, 0x00, 0x83, 0x37, 0x00, 0x00, 0x83, 0x43, 0x00,
  0x00, 0x83, 0x4A, 0x00, 0x00, 0x80, 0x4E, 0x00, 0x00, 0x80, 0x42, 0x00, 0x00, 0x90, 0x4C, 0x7B,
  0x00, 0x90, 0x40, 0x7B, 0x0A, 0x89, 0x28, 0x00, 0x81, 0x66, 0x99, 0x2A, 0x6C, 0x00, 0x99, 0x28,
  0x75, 0x00, 0x99, 0x24, 0x7F, 0x00, 0x88, 0x2B, 0x00, 0x00, 0x98, 0x26, 0x7F, 0x00, 0x87, 0x4C,
  0x00, 0x00, 0x97, 0x4E, 0x7F, 0x00, 0x86, 0x47, 0x00, 0x00, 0x86, 0x4F, 0x00, 0x00, 0x96, 0x51,
  0x7B, 0x00, 0x96, 0x4E, 0x74, 0x00, 0x85, 0x2B, 0x00, 0x00, 0x95, 0x26, 0x7F, 0x00, 0x84, 0x4F,
  0x00, 0x00, 0x84, 0x47, 0x00, 0x00, 0x94, 0x51, 0x7F, 0x00, 0x94, 0x4E, 0x7F, 0x00, 0x93, 0x4C,
  0x7F, 0x00, 0x93, 0x51, 0x7F, 0x00, 0x93, 0x4A, 0x7F, 0x00, 0x93, 0x45, 0x7F, 0x00, 0x93, 0x36,
  0x7F, 0x00, 0x81, 0x26, 0x00, 0x00, 0x91, 0x1E, 0x7F, 0x00, 0x80, 0x4C, 0x00, 0x00, 0x80, 0x40,
  0x00, 0x00, 0x90, 0x4E, 0x7F, 0x00, 0x90, 0x42, 0x7F, 0x0A, 0x89, 0x24, 0x00, 0x00, 0x89, 0x28,
  0x00, 0x00, 0x89, 0x2A, 0x00, 0x32, 0x99, 0x28, 0x5E, 0x0A, 0x89, 0x28, 0x00, 0x32, 0x99, 0x28,
  0x5A, 0x0A, 0x89, 0x28, 0x00, 0x32, 0x99, 0x28, 0x40, 0x0A, 0x89, 0x28, 0x00, 0x32, 0x99, 0x28,
  0x5C, 0x00, 0x87, 0x4E, 0x00, 0x00, 0x97, 0x4C, 0x7B, 0x00, 0x83, 0x4C, 0x00, 0x00, 0x83, 0x51,
  0x00, 0x00, 0x83, 0x45, 0x00, 0x00, 0x83, 0x4A, 0x00, 0x00, 0x80, 0x4E, 0x00, 0x00, 0x80, 0x42,
  0x00, 0x00, 0x90, 0x4C, 0x75, 0x00, 0x90, 0x40, 0x75, 0x0A, 0x89, 0x28, 0x00, 0x32, 0x99, 0x28,
  0x4D, 0x0A, 0x89, 0x28, 0x00, 0x32, 0x99, 0x28, 0x5B, 0x0A, 0x89, 0x28, 0x00, 0x32, 0x99, 0x28,
  0x42, 0x0A, 0x89, 0x28, 0x00, 0x32, 0x99, 0x2A, 0x78, 0x00, 0x99, 0x28, 0x76, 0x00, 0x98, 0x36,
  0x7F, 0x00, 0x87, 0x4C, 0x00, 0x00, 0x97, 0x4A, 0x7F, 0x00, 0x95, 0x36, 0x7F, 0x00, 0x93, 0x4C,
  0x7F, 0x00, 0x93, 0x4A, 0x7F, 0x00, 0x93, 0x51, 0x7F, 0x00, 0x93, 0x45, 0x7F, 0x00, 0x80, 0x40,
  0x00, 0x00, 0x80, 0x4C, 0x00, 0x00, 0x90, 0x4A, 0x7F, 0x00, 0x90, 0x3E, 0x7F, 0x0A, 0x89, 0x28,
  0x00, 0x00, 0x89, 0x2A, 0x00, 0x81, 0x66, 0x99, 0x28, 0x5C, 0x00, 0x88, 0x36, 0x00, 0x00, 0x87,
  0x4A, 0x00, 0x00, 0x97, 0x4C, 0x7F, 0x00, 0x85, 0x36, 0x00, 0x00, 0x83, 0x4A, 0x00, 0x00, 0x83,
  0x45, 0x00, 0x00, 0x83, 0x4C, 0x00, 0x00, 0x83, 0x51, 0x00, 0x00, 0x80, 0x3E, 0x00, 0x00, 0x80,
  0x4A, 0x00, 0x00, 0x90, 0x4C, 0x7A, 0x00, 0x90, 0x40, 0x7A, 0x0A, 0x89, 0x28, 0x00, 0x81, 0x66,
  0x99, 0x2A, 0x65, 0x00, 0x99, 0x28, 0x74, 0x00, 0x99, 0x53, 0x7F, 0x00, 0x98, 0x39, 0x7F, 0x00,
  0x87, 0x4C, 0x00, 0x00, 0x97, 0x4E, 0x7F, 0x00, 0x86, 0x51, 0x00, 0x00, 0x86, 0x4E, 0x00, 0x00,
  0x96, 0x42, 0x74, 0x00, 0x96, 0x4A, 0x78, 0x00, 0x95, 0x39, 0x7F, 0x00, 0x84, 0x51, 0x00, 0x00,
  0x84, 0x4E, 0x00, 0x00, 0x94, 0x42, 0x7F, 0x00, 0x94, 0x4A, 0x7F, 0x00, 0x93, 0x4A, 0x7F, 0x00,
  0x93, 0x45, 0x7F, 0x00, 0x93, 0x3E, 0x7F, 0x00, 0x81, 0x1E, 0x00, 0x00, 0x91, 0x26, 0x7F, 0x00,
  0x80, 0x40, 0x00, 0x00, 0x80, 0x4C, 0x00, 0x00, 0x90, 0x4E, 0x7F, 0x00, 0x90, 0x42, 0x7F, 0x0A,
  0x89, 0x53, 0x00, 0x00, 0x89, 0x28, 0x00, 0x00, 0x89, 0x2A, 0x00, 0x81, 0x66, 0x99, 0x28, 0x62,
  0x00, 0x88, 0x39, 0x00, 0x00, 0x87, 0x4E, 0x00, 0x00, 0x97, 0x4F, 0x7E, 0x00, 0x85, 0x39, 0x00,
  0x00, 0x83, 0x4A, 0x00, 0x00, 0x83, 0x45, 0x00, 0x00, 0x80, 0x4E, 0x00, 0x00, 0x80, 0x42, 0x00,
  0x00, 0x90, 0x4F, 0x7C, 0x00, 0x90, 0x43, 0x7C, 0x0A, 0x89, 0x28, 0x00, 0x81, 0x66, 0x99, 0x2E,
  0x7E, 0x00, 0x99, 0x28, 0x71, 0x00, 0x98, 0x3E, 0x7F, 0x00, 0x87, 0x4F, 0x00, 0x00, 0x97, 0x51,
  0x7F, 0x00, 0x95, 0x3E, 0x7F, 0x00, 0x93, 0x4A, 0x7F, 0x00, 0x93, 0x45, 0x7F, 0x00, 0x80, 0x4F,
  0x00, 0x00, 0x80, 0x43, 0x00, 0x00, 0x90, 0x51, 0x7F, 0x00, 0x90, 0x45, 0x7F, 0x0A, 0x89, 0x28,
  0x00, 0x00, 0x89, 0x2E, 0x00, 0x81, 0x66, 0x99, 0x28, 0x5B, 0x00, 0x88, 0x3E, 0x00, 0x00, 0x87,
  0x51, 0x00, 0x00, 0x97, 0x53, 0x7F, 0x00, 0x85, 0x3E, 0x00, 0x00, 0x83, 0x4A, 0x00, 0x00, 0x83,
  0x45, 0x00, 0x00, 0x80, 0x51, 0x00, 0x00, 0x80, 0x45, 0x00, 0x00, 0x90, 0x53, 0x7A, 0x00, 0x90,
  0x47, 0x7A, 0x0A, 0x89, 0x28, 0x00, 0x81, 0x66, 0x99, 0x2A, 0x6C, 0x00, 0x99, 0x28, 0x76, 0x00,
  0x99, 0x24, 0x7F, 0x00, 0x88, 0x26, 0x00, 0x00, 0x98, 0x2B, 0x7F, 0x00, 0x87, 0x53, 0x00, 0x00,
  0x97, 0x4F, 0x7F, 0x00, 0x86, 0x4A, 0x00, 0x00, 0x86, 0x42, 0x00, 0x00, 0x96, 0x4F, 0x74, 0x00,
  0x96, 0x47, 0x7E, 0x00, 0x85, 0x26, 0x00, 0x00, 0x95, 0x2B, 0x7F, 0x00, 0x84, 0x42, 0x00, 0x00,
  0x84, 0x4A, 0x00, 0x00, 0x94, 0x4F, 0x7F, 0x00, 0x94, 0x47, 0x7F, 0x00, 0x83, 0x36, 0x00, 0x00,
  0x83, 0x3E, 0x00, 0x00, 0x93, 0x4A, 0x7F, 0x00, 0x93, 0x47, 0x7F, 0x00, 0x93, 0x43, 0x7F, 0x00,
  0x93, 0x34, 0x7F, 0x00, 0x93, 0x3E, 0x7F, 0x00, 0x81, 0x26, 0x00, 0x00, 0x91, 0x28, 0x7F, 0x00,
  0x80, 0x47, 0x00, 0x00, 0x80, 0x53, 0x00, 0x00, 0x90, 0x4F, 0x7F, 0x00, 0x90, 0x43, 0x7F, 0x0A,
  0x89, 0x24, 0x00, 0x00, 0x89, 0x28, 0x00, 0x00, 0x89, 0x2A, 0x00, 0x81, 0x66, 0x87, 0x4F, 0x00,
  0x00, 0x80, 0x4F, 0x00, 0x00, 0x80, 0x43, 0x00, 0x81, 0x70, 0x99, 0x2A, 0x7A, 0x00, 0x99, 0x28,
  0x69, 0x00, 0x98, 0x34, 0x7F, 0x00, 0x97, 0x53, 0x7F, 0x00, 0x95, 0x34, 0x7F, 0x00, 0x90, 0x53,
  0x7F, 0x00, 0x90, 0x47, 0x7F, 0x0A, 0x89, 0x28, 0x00, 0x00, 0x89, 0x2A, 0x00, 0x81, 0x66, 0x99,
  0x28, 0x5C, 0x00, 0x88, 0x34, 0x00, 0x00, 0x87, 0x53, 0x00, 0x00, 0x97, 0x51, 0x75, 0x00, 0x85,
  0x34, 0x00, 0x00, 0x80, 0x47, 0x00, 0x00, 0x80, 0x53, 0x00, 0x00, 0x90, 0x51, 0x75, 0x00, 0x90,
  0x45, 0x75, 0x0A, 0x89, 0x28, 0x00, 0x81, 0x66, 0x99, 0x2A, 0x65, 0x00, 0x99, 0x28, 0x73, 0x00,
  0x98, 0x3B, 0x7F, 0x00, 0x87, 0x51, 0x00, 0x00, 0x97, 0x53, 0x7F, 0x00, 0x95, 0x3B, 0x7F, 0x00,
  0x83, 0x47, 0x00, 0x00, 0x83, 0x4A, 0x00, 0x00, 0x83, 0x43, 0x00, 0x00, 0x93, 0x43, 0x7F, 0x00,
  0x81, 0x28, 0x00, 0x00, 0x91, 0x1C, 0x7F, 0x00, 0x80, 0x45, 0x00, 0x00, 0x80, 0x51, 0x00, 0x00,
  0x90, 0x53, 0x7F, 0x00, 0x90, 0x47, 0x7F, 0x0A, 0x89, 0x28, 0x00, 0x00, 0x89, 0x2A, 0x00, 0x81,
  0x66, 0x88, 0x3B, 0x00, 0x00, 0x87, 0x53, 0x00, 0x00, 0x85, 0x3B, 0x00, 0x00, 0x83, 0x43, 0x00,
  0x00, 0x93, 0x45, 0x7A, 0x00, 0x80, 0x53, 0x00, 0x00, 0x80, 0x47, 0x00, 0x81, 0x70, 0x99, 0x28,
  0x70, 0x00, 0x99, 0x2A, 0x7E, 0x00, 0x98, 0x3E, 0x7F, 0x00, 0x97, 0x55, 0x7F, 0x00, 0x95, 0x3E,
  0x7F, 0x00, 0x83, 0x45, 0x00, 0x00, 0x93, 0x47, 0x7F, 0x00, 0x90, 0x55, 0x7F, 0x00, 0x90, 0x49,
  0x7F, 0x0A, 0x89, 0x2A, 0x00, 0x00, 0x89, 0x28, 0x00, 0x81, 0x66, 0x88, 0x3E, 0x00, 0x00, 0x87,
  0x55, 0x00, 0x00, 0x97, 0x56, 0x75, 0x00, 0x85, 0x3E, 0x00, 0x00, 0x83, 0x47, 0x00, 0x00, 0x93,
  0x4A, 0x78, 0x00, 0x80, 0x55, 0x00, 0x00, 0x80, 0x49, 0x00, 0x00, 0x90, 0x56, 0x7F, 0x00, 0x90,
  0x4A, 0x7F, 0x81, 0x70, 0x99, 0x2A, 0x6B, 0x00, 0x99, 0x24, 0x7F, 0x00, 0x99, 0x28, 0x6A, 0x00,
  0x88, 0x2B, 0x00, 0x00, 0x98, 0x2D, 0x7F, 0x00, 0x87, 0x56, 0x00, 0x00, 0x97, 0x51, 0x7F, 0x00,
  0x86, 0x47, 0x00, 0x00, 0x86, 0x4F, 0x00, 0x00, 0x96, 0x43, 0x7B, 0x00, 0x96, 0x51, 0x73, 0x00,
  0x85, 0x2B, 0x00, 0x00, 0x95, 0x2D, 0x7F, 0x00, 0x84, 0x4F, 0x00, 0x00, 0x84, 0x47, 0x00, 0x00,
  0x94, 0x43, 0x7F, 0x00, 0x94, 0x51, 0x7F, 0x00, 0x83, 0x34, 0x00, 0x00, 0x83, 0x3E, 0x00, 0x00,
  0x83, 0x4A, 0x00, 0x00, 0x93, 0x4F, 0x7F, 0x00, 0x93, 0x4A, 0x7F, 0x00, 0x93, 0x47, 0x7F, 0x00,
  0x93, 0x39, 0x7F, 0x00, 0x93, 0x43, 0x7F, 0x00, 0x81, 0x1C, 0x00, 0x00, 0x91, 0x21, 0x7F, 0x00,
  0x80, 0x4A, 0x00, 0x00, 0x80, 0x56, 0x00, 0x00, 0x90, 0x51, 0x7F, 0x00, 0x90, 0x45, 0x7F, 0x0A,
  0x89, 0x28, 0x00, 0x00, 0x89, 0x24, 0x00, 0x00, 0x89, 0x2A, 0x00, 0x81, 0x66, 0x87, 0x51, 0x00,
  0x00, 0x97, 0x53, 0x77, 0x00, 0x83, 0x4F, 0x00, 0x00, 0x93, 0x4E, 0x7E, 0x00, 0x80, 0x45, 0x00,
  0x00, 0x80, 0x51, 0x00, 0x00, 0x90, 0x53, 0x7B, 0x00, 0x90, 0x47, 0x7B, 0x81, 0x70, 0x99, 0x2A,
  0x75, 0x00, 0x99, 0x28, 0x76, 0x00, 0x98, 0x34, 0x7F, 0x00, 0x87, 0x53, 0x00, 0x00, 0x97, 0x55,
  0x7F, 0x00, 0x95, 0x34, 0x7F, 0x00, 0x83, 0x4E, 0x00, 0x00, 0x83, 0x4A, 0x00, 0x00, 0x83, 0x47,
  0x00, 0x00, 0x93, 0x4F, 0x7F, 0x00, 0x80, 0x53, 0x00, 0x00, 0x80, 0x47, 0x00, 0x00, 0x90, 0x55,
  0x7F, 0x00, 0x90, 0x49, 0x7F, 0x0A, 0x89, 0x28, 0x00, 0x00, 0x89, 0x2A, 0x00, 0x81, 0x66, 0x88,
  0x34, 0x00, 0x00, 0x87, 0x55, 0x00, 0x00, 0x97, 0x56, 0x7D, 0x00, 0x85, 0x34, 0x00, 0x00, 0x83,
  0x4F, 0x00, 0x00, 0x93, 0x4A, 0x75, 0x00, 0x93, 0x51, 0x7C, 0x00, 0x93, 0x47, 0x77, 0x00, 0x80,
  0x55, 0x00, 0x00, 0x80, 0x49, 0x00, 0x00, 0x90, 0x56, 0x7C, 0x00, 0x90, 0x4A, 0x7C, 0x81, 0x70,
  0x99, 0x2A, 0x6A, 0x00, 0x99, 0x28, 0x77, 0x00, 0x99, 0x53, 0x7F, 0x00, 0x98, 0x39, 0x7F, 0x00,
  0x87, 0x56, 0x00, 0x00, 0x97, 0x58, 0x7F, 0x00, 0x86, 0x43, 0x00, 0x00, 0x96, 0x45, 0x74, 0x00,
  0x95, 0x39, 0x7F, 0x00, 0x84, 0x43, 0x00, 0x00, 0x94, 0x45, 0x7F, 0x00, 0x83, 0x4A, 0x00, 0x00,
  0x80, 0x56, 0x00, 0x00, 0x80, 0x4A, 0x00, 0x00, 0x90, 0x58, 0x7F, 0x00, 0x90, 0x4C, 0x7F, 0x0A,
  0x89, 0x53, 0x00, 0x00, 0x89, 0x28, 0x00, 0x00, 0x89, 0x2A, 0x00, 0x81, 0x66, 0x99, 0x28, 0x60,
  0x00, 0x88, 0x39, 0x00, 0x00, 0x87, 0x58, 0x00, 0x00, 0x97, 0x5A, 0x7F, 0x00, 0x85, 0x39, 0x00,
  0x00, 0x83, 0x51, 0x00, 0x00, 0x93, 0x4A, 0x7D, 0x00, 0x80, 0x58, 0x00, 0x00, 0x80, 0x4C, 0x00,
  0x00, 0x90, 0x5A, 0x7C, 0x00, 0x90, 0x4E, 0x7C, 0x0A, 0x89, 0x28, 0x00, 0x81, 0x66, 0x99, 0x2E,
  0x7A, 0x00, 0x99, 0x28, 0x71, 0x00, 0x98, 0x3D, 0x7F, 0x00, 0x87, 0x5A, 0x00, 0x00, 0x97, 0x5B,
  0x7F, 0x00, 0x95, 0x3D, 0x7F, 0x00, 0x81, 0x21, 0x00, 0x00, 0x91, 0x23, 0x7F, 0x00, 0x80, 0x5A,
  0x00, 0x00, 0x80, 0x4E, 0x00, 0x00, 0x90, 0x5B, 0x7F, 0x00, 0x90, 0x4F, 0x7F, 0x0A, 0x89, 0x28,
  0x00, 0x00, 0x89, 0x2E, 0x00, 0x81, 0x66, 0x99, 0x28, 0x65, 0x00, 0x88, 0x3D, 0x00, 0x00, 0x87,
  0x5B, 0x00, 0x00, 0x97, 0x5D, 0x75, 0x00, 0x85, 0x3D, 0x00, 0x00, 0x83, 0x4A, 0x00, 0x00, 0x93,
  0x4C, 0x78, 0x00, 0x81, 0x23, 0x00, 0x00, 0x91, 0x25, 0x78, 0x00, 0x80, 0x4F, 0x00, 0x00, 0x80,
  0x5B, 0x00, 0x00, 0x90, 0x5D, 0x76, 0x00, 0x90, 0x51, 0x76, 0x0A, 0x89, 0x28, 0x00, 0x81, 0x66,
  0x99, 0x2A, 0x69, 0x00, 0x99, 0x28, 0x6E, 0x00, 0x99, 0x24, 0x7F, 0x00, 0x99, 0x31, 0x7F, 0x00,
  0x88, 0x2D, 0x00, 0x00, 0x87, 0x5D, 0x00, 0x00, 0x86, 0x45, 0x00, 0x00, 0x86, 0x51, 0x00, 0x00,
  0x85, 0x2D, 0x00, 0x00, 0x84, 0x45, 0x00, 0x00, 0x84, 0x51, 0x00, 0x00, 0x83, 0x47, 0x00, 0x00,
  0x83, 0x39, 0x00, 0x00, 0x83, 0x4C, 0x00, 0x00, 0x83, 0x43, 0x00, 0x00, 0x81, 0x25, 0x00, 0x00,
  0x80, 0x51, 0x00, 0x00, 0x80, 0x5D, 0x00, 0x09, 0x89, 0x31, 0x00, 0x00, 0x89, 0x24, 0x00, 0x00,
  0x89, 0x28, 0x00, 0x00, 0x89, 0x2A, 0x00, 0x83, 0xE0, 0x7E, 0xFF, 0x2F, 0x00
};
static const uint8_t  CastleA[]  PROGMEM = {
  0x4D, 0x54, 0x68, 0x64, 0x00, 0x00, 0x00, 0x06, 0x00, 0x00, 0x00, 0x01, 0x00, 0x60, 0x4D, 0x54,
  0x72, 0x6B, 0x00, 0x00, 0x03, 0xA5, 0x00, 0xFF, 0x58, 0x04, 0x04, 0x02, 0x18, 0x08, 0x00, 0xFF,
  0x51, 0x03, 0x03, 0xD0, 0x90, 0x00, 0xFF, 0x01, 0x0A, 0xAE, 0x63, 0xB1, 0x54, 0xAE, 0x6D, 0xA4,
  0xA7, 0xA7, 0x40, 0x00, 0xFF, 0x03, 0x0A, 0xB3, 0xBD, 0xA8, 0xE0, 0xA4, 0x75, 0xA7, 0x40, 0xAB,
  0xC7, 0x00, 0xFF, 0x02, 0x0A, 0xB3, 0xBD, 0xA8, 0xE0, 0xA4, 0x75, 0xA7, 0x40, 0xAB, 0xC7, 0x00,
  0xFF, 0x01, 0x07, 0xA4, 0x70, 0xB3, 0xBD, 0xA8, 0xE0, 0x0A, 0x00, 0xFF, 0x01, 0x07, 0xA4, 0x70,
  0xB3, 0xBD, 0xA8, 0xE0, 0x0A, 0x00, 0xFF, 0x21, 0x01, 0x00, 0x00, 0xF0, 0x05, 0x7E, 0x7F, 0x09,
  0x01, 0xF7, 0x00, 0xFF, 0x21, 0x01, 0x00, 0x00, 0xFF, 0x59, 0x02, 0x00, 0x00, 0x00, 0xB0, 0x0B,
  0x7F, 0x2C, 0x90, 0x4F, 0x4F, 0x00, 0x90, 0x4B, 0x52, 0x00, 0x90, 0x48, 0x61, 0x36, 0xC0, 0x0B,
  0x01, 0xB0, 0x07, 0x7F, 0x00, 0xB0, 0x0A, 0x32, 0x35, 0x80, 0x48, 0x00, 0x0C, 0x90, 0x48, 0x6B,
  0x81, 0x04, 0x90, 0x4D, 0x53, 0x00, 0x90, 0x4A, 0x54, 0x3C, 0x80, 0x4B, 0x00, 0x24, 0x80, 0x4F,
  0x00, 0x18, 0x80, 0x48, 0x00, 0x0C, 0x90, 0x48, 0x69, 0x3C, 0x90, 0x5B, 0x64, 0x3C, 0x80, 0x48,
  0x00, 0x00, 0x90, 0x60, 0x63, 0x0C, 0x90, 0x4F, 0x50, 0x00, 0x90, 0x4B, 0x51, 0x00, 0x90, 0x48,
  0x5C, 0x18, 0x80, 0x5B, 0x00, 0x24, 0x80, 0x4D, 0x00, 0x24, 0x80, 0x4A, 0x00, 0x0C, 0x90, 0x4D,
  0x1E, 0x0C, 0x80, 0x48, 0x00, 0x00, 0x90, 0x5B, 0x60, 0x0C, 0x90, 0x48, 0x58, 0x24, 0x80, 0x60,
  0x00, 0x30, 0x80, 0x4D, 0x00, 0x18, 0x80, 0x5B, 0x00, 0x0C, 0x90, 0x50, 0x52, 0x00, 0x90, 0x4D,
  0x54, 0x18, 0x90, 0x59, 0x5C, 0x48, 0x80, 0x4F, 0x00, 0x18, 0x80, 0x48, 0x00, 0x0C, 0x80, 0x4B,
  0x00, 0x00, 0x80, 0x59, 0x00, 0x00, 0x90, 0x57, 0x63, 0x00, 0x90, 0x48, 0x5E, 0x78, 0x80, 0x50,
  0x00, 0x0C, 0x90, 0x50, 0x18, 0x00, 0x90, 0x4F, 0x50, 0x00, 0x90, 0x4A, 0x54, 0x00, 0x90, 0x46,
  0x59, 0x30, 0x80, 0x50, 0x00, 0x0C, 0x80, 0x57, 0x00, 0x0C, 0x90, 0x57, 0x36, 0x18, 0x80, 0x4D,
  0x00, 0x18, 0x80, 0x4A, 0x00, 0x0C, 0x90, 0x4A, 0x54, 0x0C, 0x80, 0x57, 0x00, 0x3C, 0x80, 0x46,
  0x00, 0x0C, 0x90, 0x46, 0x5B, 0x24, 0x80, 0x4A, 0x00, 0x0C, 0x90, 0x4D, 0x52, 0x00, 0x90, 0x4A,
  0x56, 0x60, 0x80, 0x48, 0x00, 0x0C, 0x80, 0x4F, 0x00, 0x0C, 0x80, 0x46, 0x00, 0x0C, 0x90, 0x46,
  0x5D, 0x18, 0x90, 0x52, 0x40, 0x18, 0x90, 0x59, 0x5A, 0x24, 0x80, 0x52, 0x00, 0x0C, 0x80, 0x46,
  0x00, 0x0C, 0x80, 0x4A, 0x00, 0x00, 0x90, 0x46, 0x5C, 0x0C, 0x90, 0x5E, 0x61, 0x00, 0x90, 0x4F,
  0x52, 0x00, 0x90, 0x4A, 0x4D, 0x60, 0x80, 0x4D, 0x00, 0x0C, 0x80, 0x59, 0x00, 0x0C, 0x80, 0x46,
  0x00, 0x00, 0x90, 0x59, 0x67, 0x0C, 0x90, 0x46, 0x5E, 0x30, 0x80, 0x5E, 0x00, 0x48, 0x80, 0x4A,
  0x00, 0x00, 0x90, 0x57, 0x63, 0x0C, 0x90, 0x50, 0x4F, 0x00, 0x90, 0x4A, 0x50, 0x54, 0x80, 0x4F,
  0x00, 0x24, 0x80, 0x46, 0x00, 0x00, 0x80, 0x4A, 0x00, 0x0C, 0x90, 0x4A, 0x44, 0x00, 0x90, 0x46,
  0x53, 0x18, 0x90, 0x56, 0x62, 0x0C, 0x80, 0x59, 0x00, 0x3C, 0x80, 0x50, 0x00, 0x18, 0x80, 0x57,
  0x00, 0x00, 0x90, 0x4D, 0x54, 0x0C, 0x80, 0x56, 0x00, 0x00, 0x90, 0x48, 0x52, 0x00, 0x90, 0x44,
  0x5C, 0x0C, 0x90, 0x56, 0x3F, 0x54, 0x80, 0x46, 0x00, 0x18, 0x80, 0x44, 0x00, 0x0C, 0x90, 0x44,
  0x5F, 0x0C, 0x90, 0x46, 0x19, 0x0C, 0x80, 0x4A, 0x00, 0x18, 0x80, 0x56, 0x00, 0x18, 0x80, 0x46,
  0x00, 0x24, 0x80, 0x48, 0x00, 0x0C, 0x90, 0x4B, 0x53, 0x00, 0x90, 0x48, 0x52, 0x78, 0x80, 0x44,
  0x00, 0x0C, 0x80, 0x4D, 0x00, 0x00, 0x90, 0x44, 0x54, 0x24, 0x90, 0x50, 0x55, 0x18, 0x90, 0x57,
  0x5C, 0x30, 0x80, 0x44, 0x00, 0x00, 0x80, 0x50, 0x00, 0x0C, 0x80, 0x48, 0x00, 0x00, 0x90, 0x5C,
  0x62, 0x00, 0x90, 0x4D, 0x55, 0x00, 0x90, 0x44, 0x5A, 0x0C, 0x80, 0x4B, 0x00, 0x00, 0x90, 0x48,
  0x56, 0x0C, 0x90, 0x4B, 0x2B, 0x18, 0x80, 0x57, 0x00, 0x3C, 0x80, 0x48, 0x00, 0x00, 0x80, 0x4B,
  0x00, 0x0C, 0x90, 0x48, 0x50, 0x0C, 0x90, 0x5B, 0x63, 0x54, 0x80, 0x5C, 0x00, 0x18, 0x80, 0x5B,
  0x00, 0x18, 0x80, 0x48, 0x00, 0x00, 0x90, 0x59, 0x65, 0x00, 0x90, 0x4F, 0x53, 0x0C, 0x90, 0x48,
  0x4D, 0x60, 0x80, 0x4D, 0x00, 0x0C, 0x80, 0x44, 0x00, 0x00, 0x90, 0x57, 0x60, 0x0C, 0x90, 0x44,
  0x51, 0x60, 0x80, 0x59, 0x00, 0x0C, 0x80, 0x4F, 0x00, 0x00, 0x80, 0x48, 0x00, 0x0C, 0x90, 0x48,
  0x5B, 0x0C, 0x90, 0x4D, 0x53, 0x00, 0x90, 0x43, 0x5D, 0x48, 0x90, 0x59, 0x4D, 0x18, 0x80, 0x57,
  0x00, 0x18, 0x80, 0x43, 0x00, 0x00, 0x90, 0x51, 0x64, 0x0C, 0x90, 0x43, 0x59, 0x3C, 0x80, 0x59,
  0x00, 0x18, 0x80, 0x44, 0x00, 0x00, 0x90, 0x54, 0x61, 0x18, 0x80, 0x4D, 0x00, 0x0C, 0x90, 0x4D,
  0x55, 0x0C, 0x90, 0x45, 0x4C, 0x3C, 0x80, 0x54, 0x00, 0x00, 0x90, 0x59, 0x4F, 0x0C, 0x90, 0x54,
  0x40, 0x18, 0x80, 0x48, 0x00, 0x0C, 0x80, 0x51, 0x00, 0x00, 0x80, 0x43, 0x00, 0x0C, 0x80, 0x45,
  0x00, 0x00, 0x90, 0x51, 0x5B, 0x00, 0x90, 0x43, 0x5F, 0x0C, 0x90, 0x45, 0x3E, 0x0C, 0x80, 0x59,
  0x00, 0x0C, 0x80, 0x54, 0x00, 0x00, 0x90, 0x59, 0x38, 0x3C, 0x80, 0x59, 0x00, 0x0C, 0x80, 0x4D,
  0x00, 0x00, 0x80, 0x51, 0x00, 0x00, 0x80, 0x45, 0x00, 0x0C, 0x80, 0x43, 0x00, 0x00, 0x90, 0x53,
  0x5B, 0x00, 0x90, 0x51, 0x57, 0x00, 0x90, 0x4D, 0x5B, 0x0C, 0x90, 0x47, 0x52, 0x00, 0x90, 0x45,
  0x26, 0x00, 0x90, 0x43, 0x65, 0x54, 0x80, 0x45, 0x00, 0x0C, 0x80, 0x47, 0x00, 0x0C, 0x90, 0x47,
  0x53, 0x0C, 0x80, 0x53, 0x00, 0x00, 0x90, 0x5B, 0x66, 0x0C, 0x80, 0x43, 0x00, 0x0C, 0x90, 0x43,
  0x46, 0x60, 0x80, 0x4D, 0x00, 0x0C, 0x80, 0x5B, 0x00, 0x00, 0x80, 0x43, 0x00, 0x00, 0x90, 0x4D,
  0x54, 0x00, 0x90, 0x4A, 0x55, 0x0C, 0x90, 0x43, 0x53, 0x0C, 0x90, 0x59, 0x5A, 0x3C, 0x90, 0x5B,
  0x3F, 0x18, 0x80, 0x47, 0x00, 0x0C, 0x80, 0x51, 0x00, 0x00, 0x80, 0x43, 0x00, 0x00, 0x90, 0x47,
  0x2C, 0x0C, 0x90, 0x43, 0x5C, 0x0C, 0x90, 0x53, 0x2B, 0x24, 0x80, 0x5B, 0x00, 0x00, 0x80, 0x47,
  0x00, 0x30, 0x80, 0x59, 0x00, 0x0C, 0x80, 0x53, 0x00, 0x00, 0x90, 0x59, 0x38, 0x18, 0x90, 0x48,
  0x69, 0x0C, 0x80, 0x4A, 0x00, 0x54, 0x80, 0x4D, 0x00, 0x00, 0x80, 0x59, 0x00, 0x0C, 0x80, 0x48,
  0x00, 0x0C, 0x80, 0x43, 0x00, 0x86, 0xA5, 0x22, 0xFF, 0x2F, 0x00
};
static const uint8_t  CastleB[]  PROGMEM = {
  0x4D, 0x54, 0x68, 0x64, 0x00, 0x00, 0x00, 0x06, 0x00, 0x00, 0x00, 0x01, 0x00, 0x78, 0x4D, 0x54,
  0x72, 0x6B, 0x00, 0x00, 0x05, 0x43, 0x00, 0xFF, 0x58, 0x04, 0x04, 0x02, 0x18, 0x08, 0x00, 0xFF,
  0x51, 0x03, 0x06, 0x8A, 0x1B, 0x00, 0xFF, 0x03, 0x08, 0x75, 0x6E, 0x74, 0x69, 0x74, 0x6C, 0x65,
  0x64, 0x00, 0xFF, 0x01, 0x0F, 0x50, 0x73, 0x6D, 0x50, 0x6C, 0x61, 0x79, 0x65, 0x72, 0x20, 0x56,
  0x33, 0x2E, 0x38, 0x32, 0x00, 0xF0, 0x05, 0x7E, 0x7F, 0x09, 0x01, 0xF7, 0x00, 0xFF, 0x59, 0x02,
  0x00, 0x00, 0x00, 0xC9, 0x00, 0x00, 0xB9, 0x07, 0x7F, 0x00, 0xB9, 0x5B, 0x7F, 0x00, 0xB9, 0x5D,
  0x2B, 0x00, 0xC5, 0x3E, 0x00, 0xB5, 0x07, 0x7F, 0x00, 0xB5, 0x5B, 0x7F, 0x00, 0xC4, 0x34, 0x00,
  0xB4, 0x07, 0x7F, 0x00, 0xB4, 0x5B, 0x7F, 0x00, 0xB4, 0x5D, 0x7F, 0x00, 0xC3, 0x2E, 0x00, 0xB3,
  0x07, 0x7F, 0x00, 0xB3, 0x5B, 0x7F, 0x00, 0xB3, 0x5D, 0x18, 0x00, 0xC2, 0x23, 0x00, 0xB2, 0x07,
  0x7F, 0x00, 0xB2, 0x5B, 0x7F, 0x00, 0xC1, 0x31, 0x00, 0xB1, 0x07, 0x7F, 0x00, 0xB1, 0x5B, 0x7F,
  0x00, 0xC0, 0x47, 0x00, 0xB0, 0x07, 0x7F, 0x00, 0xB0, 0x5B, 0x7F, 0x00, 0xB0, 0x5D, 0x22, 0x00,
  0x90, 0x48, 0x71, 0x00, 0xB0, 0x01, 0x0F, 0x3C, 0x80, 0x48, 0x00, 0x00, 0x90, 0x4A, 0x71, 0x3C,
  0x93, 0x54, 0x4C, 0x00, 0x92, 0x30, 0x6B, 0x00, 0x80, 0x4A, 0x00, 0x00, 0x90, 0x4B, 0x71, 0x3C,
  0x83, 0x54, 0x00, 0x00, 0x93, 0x57, 0x4C, 0x1E, 0x83, 0x57, 0x00, 0x00, 0x93, 0x5B, 0x4C, 0x1E,
  0x83, 0x5B, 0x00, 0x00, 0x93, 0x60, 0x4C, 0x1E, 0x83, 0x60, 0x00, 0x00, 0x93, 0x5B, 0x4C, 0x1E,
  0x83, 0x5B, 0x00, 0x00, 0x93, 0x57, 0x4C, 0x00, 0x80, 0x4B, 0x00, 0x00, 0x90, 0x4A, 0x71, 0x1E,
  0x83, 0x57, 0x00, 0x00, 0x93, 0x54, 0x4C, 0x1E, 0x83, 0x54, 0x00, 0x00, 0x93, 0x60, 0x4C, 0x00,
  0x80, 0x4A, 0x00, 0x00, 0x90, 0x4B, 0x71, 0x1E, 0x83, 0x60, 0x00, 0x00, 0x93, 0x5B, 0x4C, 0x1E,
  0x83, 0x5B, 0x00, 0x00, 0x93, 0x57, 0x4C, 0x1E, 0x83, 0x57, 0x00, 0x00, 0x93, 0x54, 0x4C, 0x1E,
  0x83, 0x54, 0x00, 0x00, 0x93, 0x60, 0x4C, 0x00, 0x80, 0x4B, 0x00, 0x00, 0x90, 0x4F, 0x71, 0x1E,
  0x83, 0x60, 0x00, 0x00, 0x93, 0x5B, 0x4C, 0x1E, 0x83, 0x5B, 0x00, 0x00, 0x93, 0x57, 0x4C, 0x1E,
  0x83, 0x57, 0x00, 0x00, 0x93, 0x54, 0x4C, 0x1E, 0x83, 0x54, 0x00, 0x00, 0x93, 0x52, 0x4C, 0x00,
  0x82, 0x30, 0x00, 0x00, 0x92, 0x2E, 0x6B, 0x00, 0x80, 0x4F, 0x00, 0x00, 0x90, 0x4A, 0x71, 0x3C,
  0x83, 0x52, 0x00, 0x00, 0x93, 0x56, 0x4C, 0x1E, 0x83, 0x56, 0x00, 0x00, 0x93, 0x59, 0x4C, 0x1E,
  0x83, 0x59, 0x00, 0x00, 0x93, 0x5E, 0x4C, 0x1E, 0x83, 0x5E, 0x00, 0x00, 0x93, 0x59, 0x4C, 0x1E,
  0x83, 0x59, 0x00, 0x00, 0x93, 0x56, 0x4C, 0x1E, 0x83, 0x56, 0x00, 0x00, 0x93, 0x52, 0x4C, 0x1E,
  0x83, 0x52, 0x00, 0x00, 0x93, 0x5E, 0x4C, 0x1E, 0x83, 0x5E, 0x00, 0x00, 0x93, 0x59, 0x4C, 0x1E,
  0x83, 0x59, 0x00, 0x00, 0x93, 0x56, 0x4C, 0x1E, 0x83, 0x56, 0x00, 0x00, 0x93, 0x52, 0x4C, 0x1E,
  0x83, 0x52, 0x00, 0x00, 0x93, 0x5E, 0x4C, 0x00, 0x80, 0x4A, 0x00, 0x00, 0x90, 0x43, 0x71, 0x1E,
  0x83, 0x5E, 0x00, 0x00, 0x93, 0x59, 0x4C, 0x1E, 0x83, 0x59, 0x00, 0x00, 0x93, 0x56, 0x4C, 0x1E,
  0x83, 0x56, 0x00, 0x00, 0x93, 0x52, 0x4C, 0x1E, 0x83, 0x52, 0x00, 0x00, 0x93, 0x50, 0x4C, 0x00,
  0x82, 0x2E, 0x00, 0x00, 0x92, 0x2C, 0x6B, 0x00, 0x80, 0x43, 0x00, 0x00, 0x90, 0x48, 0x71, 0x3C,
  0x83, 0x50, 0x00, 0x00, 0x93, 0x54, 0x4C, 0x1E, 0x83, 0x54, 0x00, 0x00, 0x93, 0x57, 0x4C, 0x1E,
  0x83, 0x57, 0x00, 0x00, 0x93, 0x5C, 0x4C, 0x1E, 0x83, 0x5C, 0x00, 0x00, 0x93, 0x57, 0x4C, 0x1E,
  0x83, 0x57, 0x00, 0x00, 0x93, 0x54, 0x4C, 0x00, 0x80, 0x48, 0x00, 0x00, 0x90, 0x46, 0x71, 0x1E,
  0x83, 0x54, 0x00, 0x00, 0x93, 0x50, 0x4C, 0x1E, 0x83, 0x50, 0x00, 0x00, 0x93, 0x5C, 0x4C, 0x00,
  0x80, 0x46, 0x00, 0x00, 0x90, 0x48, 0x71, 0x1E, 0x83, 0x5C, 0x00, 0x00, 0x93, 0x57, 0x4C, 0x1E,
  0x83, 0x57, 0x00, 0x00, 0x93, 0x54, 0x4C, 0x1E, 0x83, 0x54, 0x00, 0x00, 0x93, 0x50, 0x4C, 0x1E,
  0x83, 0x50, 0x00, 0x00, 0x93, 0x5C, 0x4C, 0x00, 0x80, 0x48, 0x00, 0x00, 0x90, 0x4B, 0x71, 0x1E,
  0x83, 0x5C, 0x00, 0x00, 0x93, 0x57, 0x4C, 0x1E, 0x83, 0x57, 0x00, 0x00, 0x93, 0x54, 0x4C, 0x1E,
  0x83, 0x54, 0x00, 0x00, 0x93, 0x50, 0x4C, 0x1E, 0x83, 0x50, 0x00, 0x00, 0x93, 0x4F, 0x4C, 0x00,
  0x82, 0x2C, 0x00, 0x00, 0x92, 0x2B, 0x6B, 0x00, 0x80, 0x4B, 0x00, 0x00, 0x90, 0x46, 0x71, 0x3C,
  0x83, 0x4F, 0x00, 0x00, 0x93, 0x52, 0x4C, 0x1E, 0x83, 0x52, 0x00, 0x00, 0x93, 0x57, 0x4C, 0x1E,
  0x83, 0x57, 0x00, 0x00, 0x93, 0x5B, 0x4C, 0x1E, 0x83, 0x5B, 0x00, 0x00, 0x93, 0x57, 0x4C, 0x1E,
  0x83, 0x57, 0x00, 0x00, 0x93, 0x52, 0x4C, 0x1E, 0x83, 0x52, 0x00, 0x00, 0x93, 0x4F, 0x4C, 0x1E,
  0x83, 0x4F, 0x00, 0x00, 0x93, 0x5B, 0x4C, 0x1E, 0x83, 0x5B, 0x00, 0x00, 0x93, 0x57, 0x4C, 0x1E,
  0x83, 0x57, 0x00, 0x00, 0x93, 0x52, 0x4C, 0x1E, 0x83, 0x52, 0x00, 0x00, 0x93, 0x4F, 0x4C, 0x1E,
  0x83, 0x4F, 0x00, 0x00, 0x93, 0x5B, 0x4C, 0x00, 0x80, 0x46, 0x00, 0x00, 0x90, 0x43, 0x71, 0x1E,
  0x83, 0x5B, 0x00, 0x00, 0x93, 0x57, 0x4C, 0x1E, 0x83, 0x57, 0x00, 0x00, 0x93, 0x52, 0x4C, 0x00,
  0x80, 0x43, 0x00, 0x00, 0x90, 0x43, 0x71, 0x1E, 0x83, 0x52, 0x00, 0x00, 0x93, 0x4F, 0x4C, 0x1E,
  0x83, 0x4F, 0x00, 0x00, 0x93, 0x4D, 0x4C, 0x00, 0x82, 0x2B, 0x00, 0x00, 0x92, 0x29, 0x6B, 0x00,
  0x80, 0x43, 0x00, 0x00, 0x90, 0x44, 0x71, 0x3C, 0x83, 0x4D, 0x00, 0x00, 0x93, 0x50, 0x4C, 0x1E,
  0x83, 0x50, 0x00, 0x00, 0x93, 0x54, 0x4C, 0x1E, 0x83, 0x54, 0x00, 0x00, 0x93, 0x59, 0x4C, 0x1E,
  0x83, 0x59, 0x00, 0x00, 0x93, 0x54, 0x4C, 0x1E, 0x83, 0x54, 0x00, 0x00, 0x93, 0x50, 0x4C, 0x00,
  0x80, 0x44, 0x00, 0x00, 0x90, 0x43, 0x71, 0x1E, 0x83, 0x50, 0x00, 0x00, 0x93, 0x4D, 0x4C, 0x1E,
  0x83, 0x4D, 0x00, 0x00, 0x93, 0x59, 0x4C, 0x00, 0x80, 0x43, 0x00, 0x00, 0x90, 0x44, 0x71, 0x1E,
  0x83, 0x59, 0x00, 0x00, 0x93, 0x54, 0x4C, 0x1E, 0x83, 0x54, 0x00, 0x00, 0x93, 0x50, 0x4C, 0x00,
  0x80, 0x44, 0x00, 0x00, 0x90, 0x4B, 0x71, 0x1E, 0x83, 0x50, 0x00, 0x00, 0x93, 0x4D, 0x4C, 0x1E,
  0x83, 0x4D, 0x00, 0x00, 0x93, 0x59, 0x4C, 0x00, 0x82, 0x29, 0x00, 0x00, 0x92, 0x29, 0x6B, 0x1E,
  0x83, 0x59, 0x00, 0x00, 0x93, 0x54, 0x4C, 0x1E, 0x83, 0x54, 0x00, 0x00, 0x93, 0x50, 0x4C, 0x1E,
  0x83, 0x50, 0x00, 0x00, 0x93, 0x4D, 0x4C, 0x1E, 0x83, 0x4D, 0x00, 0x00, 0x93, 0x4B, 0x4C, 0x00,
  0x82, 0x29, 0x00, 0x00, 0x92, 0x27, 0x6B, 0x00, 0x80, 0x4B, 0x00, 0x00, 0x90, 0x43, 0x71, 0x3C,
  0x83, 0x4B, 0x00, 0x00, 0x93, 0x4F, 0x4C, 0x1E, 0x83, 0x4F, 0x00, 0x00, 0x93, 0x54, 0x4C, 0x1E,
  0x83, 0x54, 0x00, 0x00, 0x93, 0x57, 0x4C, 0x1E, 0x83, 0x57, 0x00, 0x00, 0x93, 0x54, 0x4C, 0x1E,
  0x83, 0x54, 0x00, 0x00, 0x93, 0x4F, 0x4C, 0x1E, 0x83, 0x4F, 0x00, 0x00, 0x93, 0x4B, 0x4C, 0x1E,
  0x83, 0x4B, 0x00, 0x00, 0x93, 0x57, 0x4C, 0x1E, 0x83, 0x57, 0x00, 0x00, 0x93, 0x54, 0x4C, 0x1E,
  0x83, 0x54, 0x00, 0x00, 0x93, 0x4F, 0x4C, 0x00, 0x80, 0x43, 0x00, 0x00, 0x90, 0x4B, 0x71, 0x1E,
  0x83, 0x4F, 0x00, 0x00, 0x93, 0x4B, 0x4C, 0x1E, 0x83, 0x4B, 0x00, 0x00, 0x93, 0x57, 0x4C, 0x00,
  0x80, 0x4B, 0x00, 0x00, 0x90, 0x4B, 0x71, 0x1E, 0x83, 0x57, 0x00, 0x00, 0x93, 0x54, 0x4C, 0x1E,
  0x83, 0x54, 0x00, 0x00, 0x93, 0x4F, 0x4C, 0x00, 0x80, 0x4B, 0x00, 0x00, 0x90, 0x4B, 0x71, 0x1E,
  0x83, 0x4F, 0x00, 0x00, 0x93, 0x4B, 0x4C, 0x1E, 0x83, 0x4B, 0x00, 0x00, 0x93, 0x4A, 0x4C, 0x00,
  0x82, 0x27, 0x00, 0x00, 0x92, 0x26, 0x6B, 0x00, 0x80, 0x4B, 0x00, 0x00, 0x90, 0x4A, 0x71, 0x3C,
  0x83, 0x4A, 0x00, 0x00, 0x93, 0x4E, 0x4C, 0x1E, 0x83, 0x4E, 0x00, 0x00, 0x93, 0x51, 0x4C, 0x1E,
  0x83, 0x51, 0x00, 0x00, 0x93, 0x56, 0x4C, 0x1E, 0x83, 0x56, 0x00, 0x00, 0x93, 0x51, 0x4C, 0x1E,
  0x83, 0x51, 0x00, 0x00, 0x93, 0x4E, 0x4C, 0x00, 0x80, 0x4A, 0x00, 0x00, 0x90, 0x45, 0x71, 0x1E,
  0x83, 0x4E, 0x00, 0x00, 0x93, 0x4A, 0x4C, 0x1E, 0x83, 0x4A, 0x00, 0x00, 0x93, 0x56, 0x4C, 0x1E,
  0x83, 0x56, 0x00, 0x00, 0x93, 0x51, 0x4C, 0x1E, 0x83, 0x51, 0x00, 0x00, 0x93, 0x4E, 0x4C, 0x1E,
  0x83, 0x4E, 0x00, 0x00, 0x93, 0x4A, 0x4C, 0x1E, 0x83, 0x4A, 0x00, 0x00, 0x93, 0x56, 0x4C, 0x00,
  0x80, 0x45, 0x00, 0x00, 0x90, 0x4A, 0x71, 0x1E, 0x83, 0x56, 0x00, 0x00, 0x93, 0x51, 0x4C, 0x1E,
  0x83, 0x51, 0x00, 0x00, 0x93, 0x4E, 0x4C, 0x1E, 0x83, 0x4E, 0x00, 0x00, 0x93, 0x4A, 0x4C, 0x1E,
  0x83, 0x4A, 0x00, 0x00, 0x93, 0x4F, 0x4C, 0x00, 0x82, 0x26, 0x00, 0x00, 0x92, 0x2B, 0x6B, 0x00,
  0x80, 0x4A, 0x00, 0x00, 0x90, 0x4A, 0x71, 0x3C, 0x83, 0x4F, 0x00, 0x00, 0x93, 0x53, 0x4C, 0x1E,
  0x83, 0x53, 0x00, 0x00, 0x93, 0x56, 0x4C, 0x1E, 0x83, 0x56, 0x00, 0x00, 0x93, 0x5B, 0x4C, 0x1E,
  0x83, 0x5B, 0x00, 0x00, 0x93, 0x56, 0x4C, 0x1E, 0x83, 0x56, 0x00, 0x00, 0x93, 0x53, 0x4C, 0x1E,
  0x83, 0x53, 0x00, 0x00, 0x93, 0x4F, 0x4C, 0x1E, 0x83, 0x4F, 0x00, 0x01, 0x80, 0x4A, 0x00, 0x01,
  0x82, 0x2B, 0x00, 0x81, 0xB2, 0x29, 0xFF, 0x2F, 0x00
};
#endif 