/*----The Length of This Array is 12738 Byte.----*/
static const uint8_t  Array[]  PROGMEM = {
  0x4D, 0x54, 0x68, 0x64, 0x00, 0x00, 0x00, 0x06, 0x00, 0x00, 0x00, 0x01, 0x00, 0x60, 0x4D, 0x54,
  0x72, 0x6B, 0x00, 0x00, 0x31, 0xAC, 0x00, 0xFF, 0x03, 0x0A, 0xAE, 0x63, 0xB1, 0x54, 0xAE, 0x6D,
  0xA4, 0xA7, 0xA7, 0x40, 0x00, 0xFF, 0x03, 0x0A, 0xB3, 0xBD, 0xA8, 0xE0, 0xA4, 0x75, 0xA7, 0x40,
  0xAB, 0xC7, 0x00, 0xFF, 0x02, 0x0A, 0xB3, 0xBD, 0xA8, 0xE0, 0xA4, 0x75, 0xA7, 0x40, 0xAB, 0xC7,
  0x00, 0xFF, 0x01, 0x07, 0xA4, 0x70, 0xB3, 0xBD, 0xA8, 0xE0, 0x0A, 0x00, 0xFF, 0x01, 0x07, 0xA4,
  0x70, 0xB3, 0xBD, 0xA8, 0xE0, 0x0A, 0x00, 0xFF, 0x21, 0x01, 0x00, 0x00, 0xF0, 0x05, 0x7E, 0x7F,
  0x09, 0x01, 0xF7, 0x00, 0xFF, 0x21, 0x01, 0x00, 0x00, 0xFF, 0x58, 0x04, 0x04, 0x02, 0x18, 0x08,
  0x00, 0xFF, 0x59, 0x02, 0x00, 0x00, 0x00, 0xFF, 0x51, 0x03, 0x03, 0xD0, 0x90, 0x00, 0xB0, 0x0B,
  0x7F, 0x62, 0xC0, 0x0B, 0x01, 0xB0, 0x07, 0x7F, 0x00, 0x0A, 0x32, 0x82, 0x59, 0x90, 0x48, 0x61,
  0x00, 0x4B, 0x52, 0x00, 0x4F, 0x4F, 0x6C, 0x48, 0x00, 0x0C, 0x48, 0x6B, 0x81, 0x04, 0x4A, 0x54,
  0x00, 0x4D, 0x53, 0x3C, 0x4B, 0x00, 0x24, 0x4F, 0x00, 0x18, 0x48, 0x00, 0x0C, 0x48, 0x69, 0x3C,
  0x5B, 0x64, 0x3C, 0x48, 0x00, 0x00, 0x60, 0x63, 0x0C, 0x48, 0x5C, 0x00, 0x4B, 0x51, 0x00, 0x4F,
  0x50, 0x18, 0x5B, 0x00, 0x24, 0x4D, 0x00, 0x24, 0x4A, 0x00, 0x0C, 0x4D, 0x1E, 0x0C, 0x48, 0x00,
  0x00, 0x5B, 0x60, 0x0C, 0x48, 0x58, 0x24, 0x60, 0x00, 0x30, 0x4D, 0x00, 0x18, 0x5B, 0x00, 0x0C,
  0x4D, 0x54, 0x00, 0x50, 0x52, 0x18, 0x59, 0x5C, 0x48, 0x4F, 0x00, 0x18, 0x48, 0x00, 0x0C, 0x4B,
  0x00, 0x00, 0x59, 0x00, 0x00, 0x48, 0x5E, 0x00, 0x57, 0x63, 0x78, 0x50, 0x00, 0x0C, 0x46, 0x59,
  0x00, 0x4A, 0x54, 0x00, 0x4F, 0x50, 0x00, 0x50, 0x18, 0x30, 0x50, 0x00, 0x0C, 0x57, 0x00, 0x0C,
  0x57, 0x36, 0x18, 0x4D, 0x00, 0x18, 0x4A, 0x00, 0x0C, 0x4A, 0x54, 0x0C, 0x57, 0x00, 0x3C, 0x46,
  0x00, 0x0C, 0x46, 0x5B, 0x24, 0x4A, 0x00, 0x0C, 0x4A, 0x56, 0x00, 0x4D, 0x52, 0x60, 0x48, 0x00,
  0x0C, 0x4F, 0x00, 0x0C, 0x46, 0x00, 0x0C, 0x46, 0x5D, 0x18, 0x52, 0x40, 0x18, 0x59, 0x5A, 0x24,
  0x52, 0x00, 0x0C, 0x46, 0x00, 0x0C, 0x4A, 0x00, 0x00, 0x46, 0x5C, 0x0C, 0x4A, 0x4D, 0x00, 0x4F,
  0x52, 0x00, 0x5E, 0x61, 0x60, 0x4D, 0x00, 0x0C, 0x59, 0x00, 0x0C, 0x46, 0x00, 0x00, 0x59, 0x67,
  0x0C, 0x46, 0x5E, 0x30, 0x5E, 0x00, 0x48, 0x4A, 0x00, 0x00, 0x57, 0x63, 0x0C, 0x4A, 0x50, 0x00,
  0x50, 0x4F, 0x54, 0x4F, 0x00, 0x24, 0x4A, 0x00, 0x00, 0x46, 0x00, 0x0C, 0x46, 0x53, 0x00, 0x4A,
  0x44, 0x18, 0x56, 0x62, 0x0C, 0x59, 0x00, 0x3C, 0x50, 0x00, 0x18, 0x57, 0x00, 0x00, 0x4D, 0x54,
  0x0C, 0x56, 0x00, 0x00, 0x44, 0x5C, 0x00, 0x48, 0x52, 0x0C, 0x56, 0x3F, 0x54, 0x46, 0x00, 0x18,
  0x44, 0x00, 0x0C, 0x44, 0x5F, 0x0C, 0x46, 0x19, 0x0C, 0x4A, 0x00, 0x18, 0x56, 0x00, 0x18, 0x46,
  0x00, 0x24, 0x48, 0x00, 0x0C, 0x48, 0x52, 0x00, 0x4B, 0x53, 0x78, 0x44, 0x00, 0x0C, 0x4D, 0x00,
  0x00, 0x44, 0x54, 0x24, 0x50, 0x55, 0x18, 0x57, 0x5C, 0x30, 0x50, 0x00, 0x00, 0x44, 0x00, 0x0C,
  0x48, 0x00, 0x00, 0x44, 0x5A, 0x00, 0x4D, 0x55, 0x00, 0x5C, 0x62, 0x0C, 0x4B, 0x00, 0x00, 0x48,
  0x56, 0x0C, 0x4B, 0x2B, 0x18, 0x57, 0x00, 0x3C, 0x48, 0x00, 0x00, 0x4B, 0x00, 0x0C, 0x48, 0x50,
  0x0C, 0x5B, 0x63, 0x54, 0x5C, 0x00, 0x18, 0x5B, 0x00, 0x18, 0x48, 0x00, 0x00, 0x4F, 0x53, 0x00,
  0x59, 0x65, 0x0C, 0x48, 0x4D, 0x60, 0x4D, 0x00, 0x0C, 0x44, 0x00, 0x00, 0x57, 0x60, 0x0C, 0x44,
  0x51, 0x60, 0x59, 0x00, 0x0C, 0x48, 0x00, 0x00, 0x4F, 0x00, 0x0C, 0x48, 0x5B, 0x0C, 0x43, 0x5D,
  0x00, 0x4D, 0x53, 0x48, 0x59, 0x4D, 0x18, 0x57, 0x00, 0x18, 0x43, 0x00, 0x00, 0x51, 0x64, 0x0C,
  0x43, 0x59, 0x3C, 0x59, 0x00, 0x18, 0x44, 0x00, 0x00, 0x54, 0x61, 0x18, 0x4D, 0x00, 0x0C, 0x4D,
  0x55, 0x0C, 0x45, 0x4C, 0x3C, 0x54, 0x00, 0x00, 0x59, 0x4F, 0x0C, 0x54, 0x40, 0x18, 0x48, 0x00,
  0x0C, 0x43, 0x00, 0x00, 0x51, 0x00, 0x0C, 0x45, 0x00, 0x00, 0x43, 0x5F, 0x00, 0x51, 0x5B, 0x0C,
  0x45, 0x3E, 0x0C, 0x59, 0x00, 0x0C, 0x54, 0x00, 0x00, 0x59, 0x38, 0x3C, 0x59, 0x00, 0x0C, 0x4D,
  0x00, 0x00, 0x51, 0x00, 0x00, 0x45, 0x00, 0x0C, 0x43, 0x00, 0x00, 0x4D, 0x5B, 0x00, 0x51, 0x57,
  0x00, 0x53, 0x5B, 0x0C, 0x43, 0x65, 0x00, 0x45, 0x26, 0x00, 0x47, 0x52, 0x54, 0x45, 0x00, 0x0C,
  0x47, 0x00, 0x0C, 0x47, 0x53, 0x0C, 0x53, 0x00, 0x00, 0x5B, 0x66, 0x0C, 0x43, 0x00, 0x0C, 0x43,
  0x46, 0x60, 0x4D, 0x00, 0x0C, 0x5B, 0x00, 0x00, 0x43, 0x00, 0x00, 0x4A, 0x55, 0x00, 0x4D, 0x54,
  0x0C, 0x43, 0x53, 0x0C, 0x59, 0x5A, 0x3C, 0x5B, 0x3F, 0x18, 0x47, 0x00, 0x0C, 0x43, 0x00, 0x00,
  0x51, 0x00, 0x00, 0x47, 0x2C, 0x0C, 0x43, 0x5C, 0x0C, 0x53, 0x2B, 0x24, 0x47, 0x00, 0x00, 0x5B,
  0x00, 0x30, 0x59, 0x00, 0x0C, 0x53, 0x00, 0x00, 0x59, 0x38, 0x18, 0x48, 0x69, 0x00, 0x4B, 0x51,
  0x0C, 0x4A, 0x00, 0x18, 0x4F, 0x44, 0x3C, 0x59, 0x00, 0x00, 0x4D, 0x00, 0x0C, 0x48, 0x00, 0x0C,
  0x43, 0x00, 0x00, 0x48, 0x71, 0x0C, 0x43, 0x29, 0x54, 0x43, 0x00, 0x0C, 0x43, 0x28, 0x18, 0x4D,
  0x53, 0x0C, 0x4A, 0x52, 0x3C, 0x4F, 0x00, 0x18, 0x43, 0x00, 0x18, 0x4B, 0x00, 0x00, 0x48, 0x00,
  0x0C, 0x48, 0x65, 0x3C, 0x5B, 0x63, 0x3C, 0x48, 0x00, 0x0C, 0x5B, 0x00, 0x00, 0x48, 0x65, 0x00,
  0x4B, 0x52, 0x00, 0x4F, 0x51, 0x00, 0x60, 0x65, 0x0C, 0x4A, 0x00, 0x0C, 0x4A, 0x23, 0x48, 0x4D,
  0x00, 0x0C, 0x4A, 0x00, 0x0C, 0x48, 0x00, 0x00, 0x60, 0x00, 0x00, 0x5B, 0x5F, 0x0C, 0x48, 0x4B,
  0x00, 0x60, 0x3D, 0x48, 0x60, 0x00, 0x0C, 0x48, 0x00, 0x0C, 0x48, 0x50, 0x18, 0x4B, 0x00, 0x00,
  0x54, 0x38, 0x00, 0x59, 0x67, 0x0C, 0x4B, 0x4D, 0x0C, 0x5B, 0x00, 0x24, 0x54, 0x00, 0x24, 0x4F,
  0x00, 0x0C, 0x48, 0x00, 0x0C, 0x3B, 0x2C, 0x00, 0x54, 0x45, 0x0C, 0x57, 0x5C, 0x0C, 0x4B, 0x00,
  0x00, 0x3C, 0x5C, 0x0C, 0x4B, 0x42, 0x0C, 0x3B, 0x00, 0x48, 0x4B, 0x00, 0x0C, 0x59, 0x00, 0x00,
  0x4B, 0x3D, 0x0C, 0x54, 0x00, 0x00, 0x4A, 0x57, 0x00, 0x4F, 0x4E, 0x0C, 0x46, 0x57, 0x30, 0x57,
  0x00, 0x24, 0x4B, 0x00, 0x18, 0x46, 0x00, 0x0C, 0x46, 0x59, 0x60, 0x3C, 0x00, 0x18, 0x4A, 0x00,
  0x0C, 0x4A, 0x59, 0x00, 0x4D, 0x53, 0x6C, 0x46, 0x00, 0x0C, 0x4A, 0x00, 0x00, 0x46, 0x5F, 0x0C,
  0x4A, 0x4B, 0x18, 0x4F, 0x00, 0x18, 0x59, 0x57, 0x3C, 0x4A, 0x00, 0x0C, 0x46, 0x00, 0x00, 0x4A,
  0x55, 0x00, 0x4F, 0x52, 0x00, 0x5E, 0x61, 0x0C, 0x46, 0x61, 0x48, 0x59, 0x00, 0x24, 0x46, 0x00,
  0x0C, 0x46, 0x65, 0x00, 0x59, 0x5F, 0x18, 0x4D, 0x00, 0x30, 0x5E, 0x00, 0x30, 0x4A, 0x00, 0x00,
  0x57, 0x66, 0x0C, 0x4A, 0x4D, 0x3C, 0x59, 0x00, 0x0C, 0x52, 0x30, 0x00, 0x59, 0x42, 0x30, 0x4F,
  0x00, 0x00, 0x56, 0x61, 0x0C, 0x52, 0x00, 0x00, 0x41, 0x59, 0x0C, 0x52, 0x37, 0x0C, 0x59, 0x00,
  0x48, 0x46, 0x00, 0x00, 0x52, 0x00, 0x0C, 0x57, 0x00, 0x18, 0x44, 0x5A, 0x00, 0x48, 0x52, 0x18,
  0x52, 0x20, 0x18, 0x4D, 0x47, 0x24, 0x4A, 0x00, 0x00, 0x56, 0x00, 0x0C, 0x52, 0x00, 0x18, 0x44,
  0x00, 0x00, 0x56, 0x39, 0x0C, 0x44, 0x5D, 0x60, 0x56, 0x00, 0x0C, 0x48, 0x00, 0x00, 0x41, 0x00,
  0x0C, 0x48, 0x5A, 0x00, 0x4B, 0x52, 0x18, 0x41, 0x16, 0x60, 0x41, 0x00, 0x00, 0x4D, 0x00, 0x00,
  0x50, 0x5A, 0x0C, 0x44, 0x00, 0x00, 0x4D, 0x52, 0x0C, 0x44, 0x56, 0x30, 0x57, 0x5A, 0x3C, 0x44,
  0x00, 0x00, 0x4D, 0x00, 0x00, 0x50, 0x00, 0x00, 0x48, 0x00, 0x00, 0x5C, 0x63, 0x0C, 0x44, 0x60,
  0x00, 0x48, 0x5A, 0x00, 0x4D, 0x51, 0x54, 0x57, 0x00, 0x24, 0x44, 0x00, 0x00, 0x57, 0x61, 0x0C,
  0x44, 0x5D, 0x54, 0x4B, 0x00, 0x0C, 0x5C, 0x00, 0x18, 0x48, 0x00, 0x00, 0x52, 0x50, 0x0C, 0x48,
  0x52, 0x00, 0x5E, 0x53, 0x30, 0x57, 0x00, 0x18, 0x5E, 0x00, 0x0C, 0x5E, 0x3B, 0x18, 0x5C, 0x62,
  0x0C, 0x4D, 0x00, 0x0C, 0x3F, 0x59, 0x0C, 0x5E, 0x00, 0x18, 0x50, 0x44, 0x18, 0x52, 0x00, 0x18,
  0x54, 0x5C, 0x18, 0x48, 0x00, 0x0C, 0x48, 0x58, 0x00, 0x4F, 0x50, 0x0C, 0x3E, 0x5A, 0x00, 0x5B,
  0x55, 0x18, 0x54, 0x00, 0x0C, 0x54, 0x49, 0x18, 0x5C, 0x00, 0x0C, 0x44, 0x00, 0x0C, 0x3F, 0x00,
  0x00, 0x50, 0x00, 0x0C, 0x3F, 0x2F, 0x0C, 0x5B, 0x00, 0x0C, 0x54, 0x00, 0x00, 0x3E, 0x00, 0x0C,
  0x3E, 0x58, 0x00, 0x54, 0x3D, 0x3C, 0x3F, 0x00, 0x18, 0x54, 0x00, 0x18, 0x48, 0x00, 0x00, 0x4D,
  0x56, 0x0C, 0x48, 0x4F, 0x0C, 0x59, 0x5B, 0x54, 0x4F, 0x00, 0x18, 0x48, 0x00, 0x00, 0x3E, 0x00,
  0x00, 0x45, 0x4F, 0x00, 0x51, 0x5B, 0x0C, 0x3E, 0x5C, 0x00, 0x48, 0x38, 0x18, 0x59, 0x00, 0x54,
  0x4D, 0x00, 0x00, 0x53, 0x59, 0x0C, 0x43, 0x5E, 0x00, 0x47, 0x53, 0x00, 0x4D, 0x54, 0x81, 0x28,
  0x48, 0x00, 0x3C, 0x45, 0x00, 0x18, 0x51, 0x00, 0x00, 0x54, 0x74, 0x0C, 0x4A, 0x4F, 0x3C, 0x3E,
  0x00, 0x3C, 0x56, 0x70, 0x60, 0x47, 0x00, 0x0C, 0x4D, 0x00, 0x00, 0x53, 0x00, 0x00, 0x54, 0x00,
  0x0C, 0x43, 0x00, 0x0C, 0x48, 0x63, 0x00, 0x4B, 0x53, 0x00, 0x57, 0x69, 0x0C, 0x4A, 0x00, 0x0C,
  0x4A, 0x29, 0x0C, 0x54, 0x50, 0x48, 0x54, 0x00, 0x00, 0x43, 0x1D, 0x0C, 0x48, 0x00, 0x00, 0x56,
  0x00, 0x00, 0x4A, 0x00, 0x00, 0x54, 0x4E, 0x0C, 0x48, 0x55, 0x00, 0x4F, 0x56, 0x00, 0x56, 0x46,
  0x24, 0x43, 0x00, 0x30, 0x54, 0x00, 0x00, 0x4F, 0x00, 0x0C, 0x4F, 0x64, 0x0C, 0x56, 0x00, 0x00,
  0x57, 0x00, 0x24, 0x57, 0x4A, 0x54, 0x57, 0x00, 0x00, 0x4B, 0x00, 0x0C, 0x4B, 0x2B, 0x0C, 0x56,
  0x71, 0x0C, 0x57, 0x5D, 0x60, 0x4B, 0x00, 0x0C, 0x57, 0x00, 0x0C, 0x57, 0x6F, 0x81, 0x64, 0x4F,
  0x00, 0x0C, 0x56, 0x00, 0x0C, 0x54, 0x53, 0x00, 0x5B, 0x73, 0x3C, 0x4F, 0x0C, 0x30, 0x56, 0x0A,
  0x18, 0x4F, 0x00, 0x0C, 0x57, 0x00, 0x0C, 0x48, 0x00, 0x00, 0x56, 0x00, 0x0C, 0x5B, 0x00, 0x0C,
  0x5B, 0x4C, 0x30, 0x5B, 0x00, 0x24, 0x54, 0x00, 0x00, 0x52, 0x68, 0x00, 0x56, 0x6B, 0x0C, 0x46,
  0x5C, 0x00, 0x4A, 0x53, 0x00, 0x54, 0x2F, 0x30, 0x54, 0x00, 0x00, 0x52, 0x00, 0x0C, 0x52, 0x65,
  0x30, 0x46, 0x00, 0x0C, 0x52, 0x00, 0x00, 0x46, 0x64, 0x00, 0x4F, 0x5B, 0x54, 0x56, 0x00, 0x0C,
  0x4A, 0x00, 0x0C, 0x4A, 0x5C, 0x0C, 0x4F, 0x00, 0x0C, 0x4F, 0x6F, 0x81, 0x1C, 0x52, 0x2A, 0x3C,
  0x52, 0x00, 0x3C, 0x52, 0x1E, 0x60, 0x52, 0x00, 0x6C, 0x46, 0x00, 0x18, 0x4F, 0x00, 0x00, 0x4A,
  0x00, 0x0C, 0x4F, 0x76, 0x00, 0x52, 0x52, 0x81, 0x7C, 0x52, 0x00, 0x00, 0x54, 0x6F, 0x0C, 0x44,
  0x5B, 0x00, 0x48, 0x57, 0x00, 0x52, 0x28, 0x48, 0x52, 0x00, 0x30, 0x44, 0x00, 0x00, 0x4F, 0x00,
  0x0C, 0x44, 0x44, 0x00, 0x4B, 0x56, 0x00, 0x4F, 0x2B, 0x3C, 0x44, 0x00, 0x0C, 0x44, 0x4C, 0x0C,
  0x4B, 0x00, 0x00, 0x54, 0x00, 0x0C, 0x4F, 0x00, 0x00, 0x4B, 0x5C, 0x18, 0x50, 0x3A, 0x18, 0x54,
  0x51, 0x48, 0x50, 0x00, 0x24, 0x52, 0x72, 0x0C, 0x50, 0x36, 0x30, 0x50, 0x00, 0x24, 0x54, 0x00,
  0x18, 0x54, 0x72, 0x81, 0x64, 0x48, 0x00, 0x18, 0x52, 0x00, 0x00, 0x44, 0x00, 0x0C, 0x50, 0x53,
  0x00, 0x57, 0x74, 0x24, 0x54, 0x00, 0x0C, 0x54, 0x2E, 0x0C, 0x4B, 0x00, 0x48, 0x54, 0x00, 0x81,
  0x04, 0x50, 0x00, 0x00, 0x43, 0x5E, 0x00, 0x46, 0x4C, 0x00, 0x4F, 0x66, 0x00, 0x52, 0x6A, 0x0C,
  0x57, 0x00, 0x6C, 0x43, 0x00, 0x0C, 0x43, 0x54, 0x00, 0x4A, 0x57, 0x3C, 0x46, 0x00, 0x0C, 0x46,
  0x36, 0x18, 0x4F, 0x00, 0x0C, 0x4B, 0x53, 0x0C, 0x46, 0x00, 0x0C, 0x52, 0x00, 0x00, 0x46, 0x29,
  0x0C, 0x52, 0x51, 0x81, 0x04, 0x4F, 0x24, 0x0C, 0x46, 0x00, 0x0C, 0x46, 0x0D, 0x18, 0x4F, 0x00,
  0x0C, 0x4F, 0x2A, 0x3C, 0x46, 0x00, 0x24, 0x4F, 0x00, 0x81, 0x34, 0x43, 0x00, 0x00, 0x52, 0x00,
  0x0C, 0x4A, 0x00, 0x0C, 0x4F, 0x7A, 0x60, 0x4B, 0x00, 0x18, 0x4F, 0x00, 0x0C, 0x4F, 0x7D, 0x78,
  0x48, 0x52, 0x0C, 0x4B, 0x59, 0x00, 0x50, 0x79, 0x0C, 0x41, 0x5D, 0x78, 0x41, 0x00, 0x0C, 0x41,
  0x5D, 0x0C, 0x4F, 0x00, 0x0C, 0x4F, 0x3A, 0x81, 0x34, 0x4F, 0x00, 0x24, 0x41, 0x00, 0x00, 0x48,
  0x00, 0x00, 0x4F, 0x79, 0x0C, 0x50, 0x00, 0x00, 0x41, 0x64, 0x6C, 0x41, 0x00, 0x00, 0x48, 0x52,
  0x0C, 0x4B, 0x00, 0x00, 0x41, 0x69, 0x00, 0x50, 0x75, 0x0C, 0x4B, 0x50, 0x6C, 0x41, 0x00, 0x0C,
  0x41, 0x6A, 0x00, 0x57, 0x72, 0x18, 0x4F, 0x00, 0x0C, 0x4F, 0x30, 0x6C, 0x4F, 0x00, 0x30, 0x57,
  0x00, 0x00, 0x4F, 0x17, 0x0C, 0x57, 0x41, 0x18, 0x4B, 0x00, 0x0C, 0x4B, 0x2C, 0x0C, 0x4F, 0x00,
  0x0C, 0x41, 0x00, 0x00, 0x50, 0x00, 0x0C, 0x41, 0x52, 0x00, 0x50, 0x37, 0x3C, 0x48, 0x00, 0x00,
  0x57, 0x00, 0x0C, 0x50, 0x00, 0x00, 0x4B, 0x00, 0x18, 0x46, 0x48, 0x18, 0x3F, 0x5C, 0x00, 0x4F,
  0x7C, 0x81, 0x10, 0x41, 0x00, 0x0C, 0x41, 0x28, 0x81, 0x40, 0x41, 0x00, 0x0C, 0x46, 0x00, 0x0C,
  0x46, 0x44, 0x0C, 0x3F, 0x00, 0x0C, 0x3F, 0x58, 0x54, 0x46, 0x00, 0x0C, 0x3F, 0x00, 0x00, 0x46,
  0x4D, 0x0C, 0x3F, 0x5F, 0x0C, 0x4F, 0x00, 0x0C, 0x4F, 0x53, 0x6C, 0x4F, 0x00, 0x00, 0x57, 0x75,
  0x0C, 0x3F, 0x00, 0x00, 0x4F, 0x4D, 0x0C, 0x3F, 0x4D, 0x60, 0x57, 0x00, 0x0C, 0x57, 0x7A, 0x60,
  0x3F, 0x00, 0x0C, 0x46, 0x00, 0x00, 0x4F, 0x00, 0x0C, 0x57, 0x00, 0x0C, 0x57, 0x6F, 0x0C, 0x3F,
  0x55, 0x00, 0x4F, 0x28, 0x48, 0x4F, 0x00, 0x18, 0x45, 0x4E, 0x0C, 0x56, 0x76, 0x0C, 0x3E, 0x5D,
  0x00, 0x48, 0x54, 0x0C, 0x4E, 0x59, 0x54, 0x3F, 0x00, 0x0C, 0x3D, 0x2E, 0x00, 0x3F, 0x35, 0x0C,
  0x57, 0x00, 0x0C, 0x3E, 0x00, 0x00, 0x4E, 0x00, 0x0C, 0x3E, 0x53, 0x00, 0x4E, 0x47, 0x0C, 0x3D,
  0x00, 0x18, 0x56, 0x00, 0x00, 0x57, 0x2F, 0x0C, 0x56, 0x4D, 0x24, 0x3F, 0x00, 0x0C, 0x57, 0x00,
  0x0C, 0x57, 0x10, 0x3C, 0x57, 0x00, 0x24, 0x45, 0x00, 0x0C, 0x4E, 0x00, 0x00, 0x56, 0x00, 0x18,
  0x3E, 0x00, 0x00, 0x51, 0x6F, 0x0C, 0x3E, 0x60, 0x0C, 0x4E, 0x2D, 0x3C, 0x4E, 0x00, 0x0C, 0x48,
  0x00, 0x0C, 0x48, 0x57, 0x0C, 0x3E, 0x00, 0x00, 0x51, 0x00, 0x0C, 0x3E, 0x65, 0x00, 0x4E, 0x52,
  0x24, 0x51, 0x62, 0x81, 0x58, 0x56, 0x75, 0x3C, 0x51, 0x00, 0x48, 0x51, 0x1F, 0x54, 0x51, 0x00,
  0x00, 0x4E, 0x00, 0x18, 0x47, 0x52, 0x0C, 0x56, 0x00, 0x00, 0x48, 0x00, 0x0C, 0x43, 0x5A, 0x00,
  0x4A, 0x55, 0x00, 0x56, 0x6E, 0x81, 0x28, 0x3E, 0x00, 0x3C, 0x4A, 0x00, 0x0C, 0x4A, 0x4A, 0x0C,
  0x47, 0x00, 0x00, 0x56, 0x00, 0x0C, 0x47, 0x51, 0x3C, 0x48, 0x59, 0x30, 0x4A, 0x00, 0x0C, 0x4A,
  0x5A, 0x3C, 0x47, 0x00, 0x0C, 0x47, 0x4F, 0x00, 0x4F, 0x4E, 0x30, 0x4F, 0x00, 0x0C, 0x48, 0x00,
  0x00, 0x43, 0x00, 0x0C, 0x43, 0x5D, 0x0C, 0x53, 0x62, 0x24, 0x54, 0x4F, 0x00, 0x56, 0x5C, 0x0C,
  0x47, 0x00, 0x00, 0x45, 0x58, 0x0C, 0x4F, 0x40, 0x24, 0x5B, 0x61, 0x0C, 0x47, 0x66, 0x24, 0x53,
  0x00, 0x0C, 0x4A, 0x00, 0x00, 0x4F, 0x00, 0x0C, 0x4F, 0x3C, 0x00, 0x51, 0x41, 0x0C, 0x43, 0x00,
  0x24, 0x54, 0x00, 0x0C, 0x54, 0x77, 0x18, 0x56, 0x00, 0x0C, 0x4F, 0x00, 0x0C, 0x5B, 0x00, 0x00,
  0x4F, 0x37, 0x3C, 0x51, 0x00, 0x0C, 0x4F, 0x00, 0x0C, 0x4F, 0x2E, 0x00, 0x56, 0x75, 0x48, 0x45,
  0x00, 0x0C, 0x4F, 0x00, 0x18, 0x54, 0x00, 0x0C, 0x4B, 0x52, 0x0C, 0x48, 0x6D, 0x00, 0x4F, 0x56,
  0x00, 0x57, 0x69, 0x0C, 0x47, 0x00, 0x0C, 0x47, 0x26, 0x60, 0x48, 0x00, 0x0C, 0x47, 0x00, 0x00,
  0x48, 0x71, 0x6C, 0x56, 0x00, 0x00, 0x57, 0x00, 0x0C, 0x4B, 0x00, 0x00, 0x56, 0x2E, 0x0C, 0x4B,
  0x50, 0x30, 0x56, 0x00, 0x0C, 0x4D, 0x57, 0x3C, 0x4F, 0x00, 0x00, 0x56, 0x75, 0x0C, 0x4F, 0x51,
  0x3C, 0x54, 0x3D, 0x24, 0x4F, 0x00, 0x0C, 0x4F, 0x4F, 0x0C, 0x57, 0x70, 0x30, 0x54, 0x00, 0x0C,
  0x54, 0x35, 0x30, 0x54, 0x00, 0x18, 0x54, 0x3C, 0x3C, 0x57, 0x00, 0x18, 0x54, 0x00, 0x24, 0x4B,
  0x00, 0x00, 0x4F, 0x00, 0x00, 0x54, 0x43, 0x0C, 0x4B, 0x4E, 0x00, 0x4F, 0x56, 0x00, 0x5B, 0x6A,
  0x60, 0x5B, 0x00, 0x0C, 0x56, 0x00, 0x0C, 0x4B, 0x00, 0x0C, 0x4B, 0x53, 0x30, 0x48, 0x00, 0x24,
  0x4D, 0x00, 0x0C, 0x54, 0x00, 0x00, 0x4B, 0x00, 0x0C, 0x4F, 0x00, 0x00, 0x4A, 0x50, 0x00, 0x4B,
  0x45, 0x0C, 0x4F, 0x5E, 0x00, 0x52, 0x68, 0x0C, 0x46, 0x5C, 0x0C, 0x56, 0x76, 0x54, 0x4B, 0x00,
  0x0C, 0x4B, 0x29, 0x6C, 0x4B, 0x00, 0x00, 0x52, 0x00, 0x18, 0x4A, 0x00, 0x00, 0x56, 0x00, 0x0C,
  0x4A, 0x56, 0x00, 0x62, 0x5C, 0x30, 0x4F, 0x00, 0x0C, 0x4F, 0x63, 0x0C, 0x62, 0x00, 0x0C, 0x62,
  0x43, 0x30, 0x52, 0x47, 0x3C, 0x62, 0x00, 0x00, 0x54, 0x52, 0x3C, 0x56, 0x49, 0x00, 0x5E, 0x5C,
  0x78, 0x5E, 0x00, 0x00, 0x52, 0x00, 0x0C, 0x52, 0x58, 0x60, 0x56, 0x00, 0x0C, 0x54, 0x00, 0x0C,
  0x4F, 0x00, 0x0C, 0x46, 0x00, 0x00, 0x4F, 0x76, 0x60, 0x4A, 0x00, 0x18, 0x4F, 0x00, 0x0C, 0x4A,
  0x54, 0x0C, 0x52, 0x00, 0x0C, 0x52, 0x2C, 0x18, 0x4F, 0x72, 0x24, 0x52, 0x00, 0x18, 0x4B, 0x53,
  0x18, 0x44, 0x5B, 0x00, 0x54, 0x6E, 0x60, 0x4A, 0x00, 0x0C, 0x4A, 0x31, 0x6C, 0x4A, 0x00, 0x0C,
  0x54, 0x00, 0x24, 0x48, 0x57, 0x24, 0x4F, 0x00, 0x0C, 0x4B, 0x00, 0x0C, 0x4B, 0x55, 0x3C, 0x50,
  0x56, 0x00, 0x52, 0x72, 0x81, 0x04, 0x54, 0x73, 0x78, 0x50, 0x00, 0x00, 0x48, 0x00, 0x0C, 0x48,
  0x57, 0x00, 0x50, 0x55, 0x24, 0x52, 0x00, 0x3C, 0x44, 0x00, 0x18, 0x4B, 0x00, 0x00, 0x57, 0x67,
  0x0C, 0x4B, 0x55, 0x54, 0x54, 0x00, 0x24, 0x48, 0x00, 0x0C, 0x48, 0x57, 0x48, 0x57, 0x00, 0x18,
  0x46, 0x48, 0x0C, 0x50, 0x00, 0x00, 0x4B, 0x00, 0x0C, 0x4B, 0x4C, 0x00, 0x4F, 0x6C, 0x00, 0x52,
  0x6D, 0x0C, 0x43, 0x62, 0x6C, 0x43, 0x00, 0x00, 0x46, 0x00, 0x0C, 0x4F, 0x00, 0x00, 0x48, 0x00,
  0x00, 0x43, 0x66, 0x00, 0x46, 0x4D, 0x6C, 0x52, 0x00, 0x0C, 0x46, 0x00, 0x00, 0x63, 0x5B, 0x0C,
  0x46, 0x51, 0x30, 0x4B, 0x00, 0x0C, 0x63, 0x00, 0x00, 0x4B, 0x4E, 0x0C, 0x63, 0x3E, 0x30, 0x4D,
  0x59, 0x48, 0x4F, 0x40, 0x18, 0x63, 0x00, 0x24, 0x52, 0x49, 0x00, 0x5E, 0x58, 0x78, 0x4F, 0x00,
  0x0C, 0x46, 0x00, 0x00, 0x4F, 0x78, 0x0C, 0x5E, 0x00, 0x54, 0x43, 0x00, 0x18, 0x4B, 0x00, 0x00,
  0x5B, 0x60, 0x0C, 0x4B, 0x52, 0x30, 0x52, 0x00, 0x30, 0x5B, 0x00, 0x18, 0x4F, 0x00, 0x0C, 0x4D,
  0x00, 0x00, 0x46, 0x4D, 0x00, 0x4F, 0x77, 0x6C, 0x44, 0x4E, 0x0C, 0x50, 0x74, 0x0C, 0x4B, 0x00,
  0x00, 0x41, 0x5A, 0x00, 0x48, 0x58, 0x0C, 0x4B, 0x52, 0x54, 0x46, 0x00, 0x0C, 0x46, 0x34, 0x0C,
  0x41, 0x00, 0x0C, 0x44, 0x00, 0x00, 0x41, 0x52, 0x0C, 0x44, 0x4C, 0x48, 0x46, 0x00, 0x18, 0x44,
  0x00, 0x0C, 0x50, 0x00, 0x00, 0x44, 0x54, 0x00, 0x57, 0x6C, 0x0C, 0x4F, 0x00, 0x24, 0x48, 0x00,
  0x0C, 0x48, 0x60, 0x3C, 0x4B, 0x00, 0x00, 0x56, 0x77, 0x0C, 0x4B, 0x51, 0x18, 0x57, 0x00, 0x18,
  0x48, 0x00, 0x0C, 0x48, 0x62, 0x48, 0x50, 0x43, 0x60, 0x50, 0x00, 0x0C, 0x4B, 0x00, 0x00, 0x50,
  0x45, 0x0C, 0x4B, 0x5E, 0x78, 0x48, 0x00, 0x0C, 0x44, 0x00, 0x00, 0x48, 0x5A, 0x00, 0x57, 0x6C,
  0x0C, 0x44, 0x4A, 0x24, 0x56, 0x00, 0x30, 0x50, 0x00, 0x18, 0x44, 0x00, 0x0C, 0x44, 0x53, 0x3C,
  0x41, 0x00, 0x18, 0x57, 0x00, 0x00, 0x4B, 0x00, 0x0C, 0x44, 0x00, 0x0C, 0x44, 0x4F, 0x0C, 0x48,
  0x00, 0x00, 0x59, 0x75, 0x0C, 0x48, 0x5D, 0x0C, 0x3F, 0x5D, 0x00, 0x43, 0x48, 0x00, 0x4D, 0x55,
  0x54, 0x43, 0x00, 0x0C, 0x59, 0x00, 0x00, 0x44, 0x00, 0x00, 0x43, 0x48, 0x0C, 0x44, 0x29, 0x0C,
  0x3F, 0x00, 0x0C, 0x3F, 0x50, 0x0C, 0x59, 0x6E, 0x30, 0x44, 0x00, 0x81, 0x34, 0x59, 0x00, 0x00,
  0x4F, 0x56, 0x00, 0x5B, 0x67, 0x0C, 0x59, 0x36, 0x30, 0x59, 0x00, 0x18, 0x48, 0x00, 0x00, 0x5B,
  0x00, 0x0C, 0x43, 0x00, 0x00, 0x5B, 0x50, 0x0C, 0x4D, 0x00, 0x00, 0x4F, 0x00, 0x00, 0x43, 0x52,
  0x18, 0x48, 0x55, 0x00, 0x57, 0x71, 0x18, 0x5B, 0x00, 0x00, 0x4B, 0x4B, 0x81, 0x58, 0x48, 0x00,
  0x0C, 0x48, 0x5B, 0x0C, 0x3F, 0x00, 0x0C, 0x57, 0x00, 0x00, 0x3F, 0x13, 0x18, 0x4B, 0x00, 0x0C,
  0x43, 0x00, 0x00, 0x4B, 0x44, 0x0C, 0x4A, 0x55, 0x18, 0x3F, 0x00, 0x0C, 0x3F, 0x11, 0x0C, 0x4B,
  0x00, 0x00, 0x43, 0x25, 0x0C, 0x4B, 0x58, 0x30, 0x3F, 0x00, 0x3C, 0x48, 0x00, 0x0C, 0x43, 0x00,
  0x00, 0x4B, 0x00, 0x0C, 0x4B, 0x52, 0x00, 0x57, 0x69, 0x0C, 0x42, 0x58, 0x00, 0x45, 0x4B, 0x00,
  0x48, 0x26, 0x60, 0x48, 0x00, 0x0C, 0x4A, 0x00, 0x00, 0x56, 0x6E, 0x0C, 0x4A, 0x55, 0x30, 0x57,
  0x00, 0x48, 0x45, 0x00, 0x0C, 0x45, 0x2B, 0x00, 0x48, 0x59, 0x18, 0x54, 0x68, 0x18, 0x56, 0x00,
  0x3C, 0x48, 0x00, 0x00, 0x54, 0x00, 0x0C, 0x48, 0x62, 0x00, 0x54, 0x70, 0x0C, 0x4B, 0x00, 0x54,
  0x45, 0x00, 0x0C, 0x42, 0x00, 0x0C, 0x4A, 0x00, 0x00, 0x54, 0x00, 0x0C, 0x43, 0x5D, 0x00, 0x4A,
  0x5A, 0x00, 0x54, 0x62, 0x00, 0x56, 0x6B, 0x0C, 0x47, 0x54, 0x6C, 0x54, 0x00, 0x3C, 0x56, 0x00,
  0x0C, 0x56, 0x4D, 0x24, 0x48, 0x00, 0x18, 0x53, 0x75, 0x3C, 0x56, 0x00, 0x81, 0x28, 0x4A, 0x00,
  0x24, 0x54, 0x76, 0x0C, 0x3C, 0x5D, 0x00, 0x4B, 0x4F, 0x0C, 0x43, 0x00, 0x3C, 0x47, 0x00, 0x24,
  0x53, 0x00, 0x0C, 0x53, 0x40, 0x0C, 0x43, 0x4E, 0x60, 0x53, 0x00, 0x0C, 0x5C, 0x63, 0x0C, 0x4D,
  0x57, 0x0C, 0x54, 0x00, 0x0C, 0x54, 0x3F, 0x18, 0x4B, 0x00, 0x0C, 0x4B, 0x5B, 0x00, 0x5B, 0x66,
  0x24, 0x43, 0x00, 0x0C, 0x54, 0x00, 0x00, 0x43, 0x3E, 0x0C, 0x3C, 0x00, 0x00, 0x4B, 0x00, 0x00,
  0x59, 0x5D, 0x0C, 0x4D, 0x00, 0x00, 0x3C, 0x5F, 0x00, 0x4A, 0x57, 0x00, 0x4B, 0x53, 0x0C, 0x4D,
  0x4C, 0x18, 0x5C, 0x00, 0x0C, 0x3F, 0x23, 0x0C, 0x5B, 0x00, 0x18, 0x57, 0x5E, 0x0C, 0x3F, 0x00,
  0x00, 0x43, 0x00, 0x0C, 0x3C, 0x00, 0x00, 0x43, 0x48, 0x0C, 0x3C, 0x65, 0x00, 0x5B, 0x64, 0x0C,
  0x59, 0x00, 0x0C, 0x4B, 0x00, 0x00, 0x4D, 0x00, 0x00, 0x4A, 0x00, 0x00, 0x59, 0x44, 0x0C, 0x4A,
  0x44, 0x00, 0x4B, 0x4B, 0x3C, 0x57, 0x00, 0x24, 0x4D, 0x15, 0x0C, 0x59, 0x00, 0x00, 0x5B, 0x00,
  0x00, 0x48, 0x42, 0x48, 0x4D, 0x00, 0x30, 0x57, 0x74, 0x30, 0x48, 0x00, 0x3C, 0x4A, 0x00, 0x0C,
  0x59, 0x76, 0x54, 0x4B, 0x00, 0x18, 0x43, 0x00, 0x0C, 0x57, 0x00, 0x0C, 0x5B, 0x67, 0x0C, 0x3F,
  0x5A, 0x00, 0x4F, 0x55, 0x00, 0x52, 0x6F, 0x3C, 0x59, 0x00, 0x00, 0x3C, 0x00, 0x24, 0x4F, 0x00,
  0x00, 0x32, 0x0F, 0x0C, 0x5B, 0x00, 0x00, 0x52, 0x00, 0x0C, 0x52, 0x52, 0x0C, 0x46, 0x4B, 0x00,
  0x4F, 0x4E, 0x18, 0x32, 0x00, 0x60, 0x4D, 0x58, 0x18, 0x52, 0x00, 0x0C, 0x52, 0x33, 0x48, 0x52,
  0x00, 0x0C, 0x46, 0x00, 0x0C, 0x46, 0x4D, 0x00, 0x59, 0x72, 0x78, 0x4F, 0x00, 0x00, 0x5B, 0x6E,
  0x0C, 0x4F, 0x4F, 0x54, 0x59, 0x00, 0x0C, 0x59, 0x3F, 0x18, 0x5B, 0x00, 0x00, 0x46, 0x00, 0x0C,
  0x46, 0x4F, 0x3C, 0x59, 0x00, 0x30, 0x3F, 0x00, 0x00, 0x4D, 0x00, 0x0C, 0x4D, 0x59, 0x00, 0x5E,
  0x6C, 0x30, 0x4F, 0x00, 0x0C, 0x4F, 0x5C, 0x3C, 0x5E, 0x00, 0x0C, 0x52, 0x51, 0x6C, 0x46, 0x00,
  0x0C, 0x4D, 0x00, 0x0C, 0x4F, 0x00, 0x00, 0x4D, 0x51, 0x00, 0x59, 0x71, 0x0C, 0x3E, 0x58, 0x00,
  0x4F, 0x31, 0x54, 0x52, 0x00, 0x24, 0x46, 0x4C, 0x3C, 0x59, 0x00, 0x0C, 0x4F, 0x00, 0x00, 0x59,
  0x41, 0x30, 0x4B, 0x55, 0x00, 0x5E, 0x60, 0x30, 0x59, 0x00, 0x48, 0x46, 0x00, 0x0C, 0x46, 0x4B,
  0x3C, 0x5E, 0x00, 0x3C, 0x4D, 0x00, 0x0C, 0x4D, 0x54, 0x18, 0x59, 0x4E, 0x48, 0x4B, 0x00, 0x18,
  0x46, 0x00, 0x00, 0x59, 0x00, 0x0C, 0x46, 0x4F, 0x0C, 0x4B, 0x52, 0x24, 0x59, 0x24, 0x30, 0x59,
  0x00, 0x18, 0x4B, 0x00, 0x00, 0x52, 0x70, 0x0C, 0x4B, 0x54, 0x30, 0x4D, 0x00, 0x0C, 0x4D, 0x51,
  0x30, 0x52, 0x00, 0x30, 0x3E, 0x00, 0x24, 0x52, 0x4F, 0x24, 0x46, 0x00, 0x0C, 0x4B, 0x00, 0x0C,
  0x4D, 0x00, 0x00, 0x4B, 0x59, 0x00, 0x57, 0x66, 0x0C, 0x3C, 0x5A, 0x00, 0x4D, 0x2D, 0x3C, 0x4D,
  0x00, 0x00, 0x57, 0x00, 0x0C, 0x57, 0x5F, 0x30, 0x43, 0x52, 0x0C, 0x52, 0x00, 0x00, 0x4D, 0x1C,
  0x0C, 0x52, 0x29, 0x18, 0x57, 0x00, 0x48, 0x4B, 0x00, 0x00, 0x52, 0x00, 0x0C, 0x4A, 0x58, 0x00,
  0x4B, 0x37, 0x24, 0x4D, 0x00, 0x3C, 0x4B, 0x00, 0x18, 0x43, 0x00, 0x00, 0x56, 0x70, 0x0C, 0x43,
  0x56, 0x78, 0x4B, 0x53, 0x00, 0x57, 0x6B, 0x78, 0x43, 0x00, 0x00, 0x56, 0x00, 0x0C, 0x43, 0x51,
  0x54, 0x3C, 0x00, 0x24, 0x4A, 0x00, 0x0C, 0x4A, 0x55, 0x00, 0x5B, 0x73, 0x0C, 0x57, 0x00, 0x24,
  0x4B, 0x00, 0x0C, 0x4B, 0x58, 0x30, 0x5B, 0x00, 0x0C, 0x4F, 0x54, 0x54, 0x43, 0x00, 0x18, 0x4A,
  0x00, 0x0C, 0x39, 0x27, 0x00, 0x3D, 0x2D, 0x0C, 0x4F, 0x00, 0x00, 0x43, 0x4E, 0x00, 0x5B, 0x6F,
  0x0C, 0x4B, 0x00, 0x00, 0x3A, 0x58, 0x00, 0x4F, 0x48, 0x0C, 0x4B, 0x2A, 0x0C, 0x3D, 0x00, 0x00,
  0x39, 0x00, 0x48, 0x4F, 0x00, 0x0C, 0x4B, 0x00, 0x0C, 0x43, 0x00, 0x00, 0x4B, 0x24, 0x0C, 0x43,
  0x51, 0x18, 0x5B, 0x00, 0x3C, 0x4B, 0x00, 0x24, 0x4A, 0x58, 0x00, 0x62, 0x5C, 0x30, 0x5B, 0x36,
  0x18, 0x62, 0x00, 0x0C, 0x62, 0x4E, 0x24, 0x43, 0x00, 0x00, 0x5B, 0x00, 0x0C, 0x43, 0x4F, 0x60,
  0x62, 0x00, 0x18, 0x4A, 0x00, 0x00, 0x5E, 0x62, 0x0C, 0x46, 0x45, 0x00, 0x4A, 0x4A, 0x60, 0x46,
  0x00, 0x0C, 0x43, 0x00, 0x00, 0x46, 0x45, 0x0C, 0x43, 0x53, 0x48, 0x5E, 0x00, 0x30, 0x4A, 0x00,
  0x0C, 0x4A, 0x58, 0x00, 0x5B, 0x66, 0x6C, 0x46, 0x00, 0x0C, 0x43, 0x00, 0x0C, 0x43, 0x56, 0x24,
  0x5B, 0x00, 0x00, 0x3A, 0x00, 0x0C, 0x5B, 0x43, 0x0C, 0x46, 0x21, 0x30, 0x46, 0x00, 0x00, 0x3C,
  0x31, 0x0C, 0x5B, 0x00, 0x00, 0x54, 0x72, 0x00, 0x5C, 0x62, 0x0C, 0x4A, 0x00, 0x00, 0x48, 0x56,
  0x0C, 0x38, 0x56, 0x00, 0x4A, 0x30, 0x0C, 0x3C, 0x00, 0x60, 0x56, 0x72, 0x0C, 0x4A, 0x00, 0x00,
  0x4B, 0x4F, 0x3C, 0x54, 0x00, 0x24, 0x5C, 0x00, 0x18, 0x50, 0x51, 0x00, 0x57, 0x6C, 0x0C, 0x43,
  0x00, 0x60, 0x48, 0x00, 0x0C, 0x37, 0x27, 0x00, 0x3B, 0x2C, 0x18, 0x38, 0x00, 0x0C, 0x56, 0x00,
  0x00, 0x38, 0x53, 0x0C, 0x37, 0x00, 0x00, 0x3B, 0x00, 0x00, 0x48, 0x28, 0x18, 0x4B, 0x00, 0x00,
  0x57, 0x00, 0x30, 0x48, 0x00, 0x0C, 0x56, 0x70, 0x0C, 0x4A, 0x51, 0x0C, 0x3A, 0x57, 0x30, 0x50,
  0x00, 0x0C, 0x50, 0x1B, 0x30, 0x50, 0x00, 0x00, 0x57, 0x71, 0x0C, 0x4D, 0x4E, 0x54, 0x56, 0x00,
  0x0C, 0x56, 0x32, 0x18, 0x4A, 0x00, 0x00, 0x52, 0x50, 0x00, 0x59, 0x71, 0x0C, 0x4A, 0x35, 0x18,
  0x56, 0x00, 0x54, 0x59, 0x00, 0x0C, 0x57, 0x00, 0x00, 0x59, 0x74, 0x0C, 0x38, 0x00, 0x00, 0x57,
  0x2E, 0x3C, 0x57, 0x00, 0x24, 0x4A, 0x00, 0x0C, 0x52, 0x00, 0x0C, 0x4D, 0x00, 0x00, 0x4F, 0x56,
  0x00, 0x57, 0x75, 0x0C, 0x3F, 0x58, 0x3C, 0x59, 0x00, 0x0C, 0x59, 0x41, 0x0C, 0x3A, 0x00, 0x24,
  0x46, 0x4D, 0x0C, 0x59, 0x00, 0x6C, 0x57, 0x00, 0x0C, 0x4B, 0x47, 0x0C, 0x59, 0x2A, 0x54, 0x59,
  0x00, 0x0C, 0x46, 0x00, 0x0C, 0x46, 0x4E, 0x00, 0x52, 0x6F, 0x6C, 0x4F, 0x00, 0x00, 0x5B, 0x61,
  0x0C, 0x4B, 0x00, 0x00, 0x52, 0x00, 0x00, 0x4F, 0x50, 0x0C, 0x4B, 0x2A, 0x00, 0x63, 0x5C, 0x24,
  0x52, 0x70, 0x24, 0x63, 0x00, 0x0C, 0x63, 0x3A, 0x18, 0x5B, 0x00, 0x0C, 0x4F, 0x00, 0x0C, 0x4F,
  0x55, 0x30, 0x4B, 0x00, 0x18, 0x63, 0x00, 0x30, 0x5B, 0x5A, 0x0C, 0x4B, 0x52, 0x3C, 0x3F, 0x00,
  0x24, 0x52, 0x00, 0x18, 0x46, 0x00, 0x00, 0x57, 0x59, 0x0C, 0x46, 0x4B, 0x0C, 0x5B, 0x00, 0x54,
  0x4F, 0x00, 0x00, 0x54, 0x62, 0x18, 0x57, 0x00, 0x00, 0x59, 0x66, 0x00, 0x5C, 0x66, 0x0C, 0x41,
  0x5E, 0x00, 0x50, 0x50, 0x00, 0x57, 0x50, 0x6C, 0x4B, 0x00, 0x00, 0x54, 0x00, 0x0C, 0x57, 0x00,
  0x00, 0x48, 0x54, 0x18, 0x46, 0x00, 0x0C, 0x5C, 0x00, 0x60, 0x4B, 0x52, 0x00, 0x5B, 0x73, 0x18,
  0x57, 0x51, 0x54, 0x57, 0x00, 0x0C, 0x59, 0x00, 0x00, 0x50, 0x00, 0x0C, 0x50, 0x4C, 0x3C, 0x4B,
  0x00, 0x0C, 0x4B, 0x53, 0x0C, 0x50, 0x00, 0x0C, 0x50, 0x52, 0x18, 0x5B, 0x00, 0x00, 0x54, 0x4F,
  0x00, 0x59, 0x77, 0x81, 0x10, 0x59, 0x00, 0x0C, 0x59, 0x5D, 0x48, 0x48, 0x00, 0x24, 0x57, 0x74,
  0x3C, 0x59, 0x00, 0x24, 0x41, 0x00, 0x54, 0x54, 0x00, 0x00, 0x50, 0x00, 0x18, 0x4B, 0x00, 0x0C,
  0x4A, 0x54, 0x18, 0x4D, 0x55, 0x0C, 0x54, 0x6B, 0x00, 0x5B, 0x74, 0x0C, 0x43, 0x5D, 0x24, 0x57,
  0x00, 0x48, 0x4A, 0x00, 0x0C, 0x4A, 0x5F, 0x0C, 0x5B, 0x00, 0x30, 0x5B, 0x43, 0x3C, 0x4D, 0x00,
  0x0C, 0x4D, 0x53, 0x0C, 0x5B, 0x00, 0x30, 0x5B, 0x2D, 0x30, 0x5B, 0x00, 0x0C, 0x54, 0x00, 0x00,
  0x43, 0x00, 0x0C, 0x43, 0x5F, 0x00, 0x54, 0x5E, 0x6C, 0x54, 0x00, 0x0C, 0x54, 0x67, 0x81, 0x04,
  0x4D, 0x00, 0x00, 0x4A, 0x00, 0x0C, 0x4A, 0x53, 0x00, 0x4D, 0x47, 0x6C, 0x4D, 0x00, 0x0C, 0x4D,
  0x57, 0x78, 0x54, 0x00, 0x0C, 0x54, 0x63, 0x78, 0x43, 0x00, 0x00, 0x4A, 0x00, 0x0C, 0x43, 0x5C,
  0x00, 0x4A, 0x57, 0x00, 0x53, 0x52, 0x18, 0x56, 0x53, 0x18, 0x4D, 0x00, 0x00, 0x54, 0x00, 0x0C,
  0x4D, 0x24, 0x00, 0x51, 0x56, 0x00, 0x54, 0x6C, 0x30, 0x53, 0x00, 0x00, 0x56, 0x00, 0x0C, 0x4D,
  0x00, 0x00, 0x53, 0x5A, 0x00, 0x56, 0x62, 0x3C, 0x5B, 0x65, 0x3C, 0x56, 0x00, 0x0C, 0x51, 0x00,
  0x00, 0x4D, 0x53, 0x00, 0x5F, 0x66, 0x0C, 0x51, 0x42, 0x48, 0x4A, 0x00, 0x0C, 0x56, 0x37, 0x18,
  0x53, 0x00, 0x00, 0x5F, 0x00, 0x00, 0x5B, 0x00, 0x0C, 0x53, 0x50, 0x00, 0x5B, 0x61, 0x30, 0x56,
  0x00, 0x30, 0x43, 0x00, 0x00, 0x51, 0x00, 0x00, 0x54, 0x00, 0x00, 0x53, 0x00, 0x0C, 0x43, 0x56,
  0x00, 0x47, 0x54, 0x18, 0x5B, 0x00, 0x00, 0x4A, 0x59, 0x00, 0x62, 0x5D, 0x18, 0x4F, 0x4D, 0x48,
  0x62, 0x00, 0x0C, 0x62, 0x45, 0x30, 0x62, 0x00, 0x00, 0x4D, 0x00, 0x0C, 0x62, 0x30, 0x3C, 0x4F,
  0x00, 0x0C, 0x62, 0x00, 0x0C, 0x43, 0x00, 0x00, 0x4A, 0x00, 0x00, 0x5B, 0x73, 0x0C, 0x43, 0x5D,
  0x00, 0x4A, 0x40, 0x81, 0x1C, 0x5B, 0x00, 0x0C, 0x5B, 0x43, 0x30, 0x5B, 0x00, 0x00, 0x47, 0x00,
  0x0C, 0x4A, 0x00, 0x18, 0x43, 0x00, 0x00, 0x4B, 0x5A, 0x00, 0x57, 0x69, 0x00, 0x60, 0x63, 0x0C,
  0x3C, 0x5C, 0x00, 0x43, 0x27, 0x0C, 0x54, 0x4D, 0x24, 0x60, 0x00, 0x30, 0x43, 0x00, 0x0C, 0x43,
  0x23, 0x54, 0x57, 0x00, 0x24, 0x43, 0x00, 0x0C, 0x4B, 0x00, 0x00, 0x43, 0x15, 0x0C, 0x4B, 0x5B,
  0x6C, 0x54, 0x00, 0x0C, 0x54, 0x50, 0x00, 0x60, 0x64, 0x0C, 0x43, 0x00, 0x3C, 0x60, 0x00, 0x24,
  0x54, 0x00, 0x0C, 0x4B, 0x00, 0x00, 0x48, 0x4E, 0x0C, 0x4B, 0x5A, 0x00, 0x5E, 0x61, 0x00, 0x60,
  0x39, 0x18, 0x52, 0x4F, 0x00, 0x54, 0x28, 0x30, 0x54, 0x00, 0x00, 0x60, 0x00, 0x0C, 0x5E, 0x00,
  0x00, 0x60, 0x36, 0x24, 0x48, 0x00, 0x0C, 0x60, 0x00, 0x00, 0x48, 0x59, 0x0C, 0x60, 0x2B, 0x60,
  0x60, 0x00, 0x0C, 0x4B, 0x00, 0x00, 0x52, 0x00, 0x0C, 0x4B, 0x5C, 0x00, 0x52, 0x32, 0x24, 0x3C,
  0x00, 0x3C, 0x48, 0x00, 0x0C, 0x52, 0x00, 0x0C, 0x52, 0x55, 0x00, 0x5E, 0x5C, 0x18, 0x3C, 0x5E,
  0x48, 0x5E, 0x00, 0x24, 0x4B, 0x00, 0x00, 0x5B, 0x6C, 0x0C, 0x44, 0x58, 0x00, 0x4B, 0x4B, 0x00,
  0x4F, 0x51, 0x60, 0x5B, 0x00, 0x18, 0x52, 0x00, 0x00, 0x48, 0x55, 0x00, 0x59, 0x75, 0x78, 0x3C,
  0x00, 0x00, 0x4B, 0x00, 0x0C, 0x4B, 0x55, 0x00, 0x57, 0x68, 0x78, 0x48, 0x00, 0x0C, 0x48, 0x59,
  0x54, 0x59, 0x00, 0x0C, 0x59, 0x39, 0x18, 0x4F, 0x00, 0x00, 0x57, 0x00, 0x18, 0x59, 0x00, 0x0C,
  0x54, 0x5D, 0x48, 0x54, 0x00, 0x0C, 0x54, 0x58, 0x0C, 0x48, 0x00, 0x00, 0x44, 0x00, 0x00, 0x56,
  0x67, 0x0C, 0x48, 0x52, 0x48, 0x54, 0x00, 0x24, 0x4B, 0x00, 0x0C, 0x4B, 0x56, 0x18, 0x57, 0x52,
  0x18, 0x56, 0x00, 0x0C, 0x56, 0x4B, 0x0C, 0x57, 0x00, 0x30, 0x48, 0x00, 0x0C, 0x48, 0x5A, 0x00,
  0x57, 0x77, 0x48, 0x56, 0x00, 0x24, 0x4B, 0x00, 0x0C, 0x59, 0x75, 0x0C, 0x4A, 0x56, 0x0C, 0x3A,
  0x57, 0x00, 0x4D, 0x55, 0x78, 0x46, 0x35, 0x0C, 0x57, 0x00, 0x18, 0x59, 0x00, 0x24, 0x59, 0x42,
  0x18, 0x48, 0x00, 0x00, 0x46, 0x00, 0x18, 0x4A, 0x00, 0x00, 0x57, 0x70, 0x0C, 0x59, 0x00, 0x00,
  0x4A, 0x4D, 0x6C, 0x4D, 0x00, 0x0C, 0x4D, 0x4E, 0x00, 0x59, 0x6F, 0x81, 0x04, 0x52, 0x51, 0x18,
  0x57, 0x00, 0x48, 0x4A, 0x00, 0x0C, 0x4A, 0x36, 0x0C, 0x4D, 0x00, 0x00, 0x52, 0x00, 0x00, 0x5C,
  0x74, 0x0C, 0x59, 0x00, 0x00, 0x46, 0x48, 0x00, 0x4D, 0x3A, 0x6C, 0x4D, 0x00, 0x0C, 0x4D, 0x58,
  0x48, 0x5C, 0x00, 0x0C, 0x5C, 0x2F, 0x18, 0x4A, 0x00, 0x0C, 0x46, 0x00, 0x00, 0x4A, 0x13, 0x0C,
  0x46, 0x51, 0x18, 0x5C, 0x00, 0x18, 0x3A, 0x00, 0x0C, 0x4A, 0x00, 0x30, 0x46, 0x00, 0x0C, 0x4D,
  0x00, 0x00, 0x46, 0x42, 0x0C, 0x4D, 0x3A, 0x00, 0x57, 0x70, 0x00, 0x5B, 0x68, 0x0C, 0x3F, 0x5A,
  0x0C, 0x4F, 0x51, 0x60, 0x5B, 0x00, 0x00, 0x4D, 0x00, 0x00, 0x46, 0x00, 0x0C, 0x46, 0x4C, 0x00,
  0x4D, 0x1C, 0x3C, 0x4D, 0x00, 0x30, 0x57, 0x00, 0x18, 0x4B, 0x2B, 0x0C, 0x57, 0x5E, 0x24, 0x4B,
  0x00, 0x00, 0x59, 0x67, 0x30, 0x4F, 0x00, 0x00, 0x46, 0x00, 0x0C, 0x46, 0x32, 0x0C, 0x3F, 0x00,
  0x0C, 0x57, 0x00, 0x00, 0x3F, 0x5B, 0x00, 0x4F, 0x4F, 0x0C, 0x5B, 0x56, 0x3C, 0x5B, 0x00, 0x00,
  0x59, 0x00, 0x18, 0x4F, 0x00, 0x00, 0x47, 0x4F, 0x0C, 0x46, 0x00, 0x00, 0x5B, 0x47, 0x0C, 0x5F,
  0x68, 0x0C, 0x43, 0x5D, 0x00, 0x4A, 0x55, 0x0C, 0x59, 0x36, 0x0C, 0x5B, 0x00, 0x54, 0x57, 0x10,
  0x00, 0x5B, 0x24, 0x0C, 0x47, 0x00, 0x0C, 0x47, 0x3A, 0x18, 0x5B, 0x00, 0x0C, 0x57, 0x00, 0x18,
  0x59, 0x00, 0x18, 0x5F, 0x00, 0x18, 0x47, 0x00, 0x00, 0x4A, 0x00, 0x0C, 0x47, 0x38, 0x00, 0x4A,
  0x57, 0x00, 0x5B, 0x6E, 0x18, 0x3F, 0x00, 0x54, 0x5B, 0x00, 0x0C, 0x4F, 0x4C, 0x54, 0x47, 0x00,
  0x0C, 0x43, 0x00, 0x18, 0x3B, 0x2D, 0x0C, 0x4A, 0x00, 0x00, 0x47, 0x23, 0x00, 0x57, 0x68, 0x00,
  0x60, 0x62, 0x0C, 0x3C, 0x5D, 0x00, 0x4B, 0x53, 0x0C, 0x54, 0x4D, 0x0C, 0x3B, 0x00, 0x0C, 0x47,
  0x00, 0x0C, 0x4F, 0x00, 0x0C, 0x60, 0x00, 0x30, 0x54, 0x00, 0x0C, 0x48, 0x4F, 0x54, 0x60, 0x27,
  0x0C, 0x57, 0x00, 0x18, 0x4B, 0x00, 0x0C, 0x60, 0x00, 0x00, 0x4B, 0x58, 0x0C, 0x60, 0x2E, 0x60,
  0x60, 0x00, 0x0C, 0x54, 0x4B, 0x00, 0x60, 0x65, 0x48, 0x60, 0x00, 0x18, 0x54, 0x00, 0x0C, 0x48,
  0x00, 0x0C, 0x4B, 0x00, 0x00, 0x48, 0x50, 0x00, 0x60, 0x42, 0x0C, 0x4B, 0x5C, 0x00, 0x5E, 0x62,
  0x18, 0x52, 0x50, 0x24, 0x60, 0x00, 0x0C, 0x60, 0x3A, 0x0C, 0x5E, 0x00, 0x81, 0x04, 0x60, 0x00,
  0x24, 0x4B, 0x00, 0x0C, 0x4B, 0x5E, 0x60, 0x48, 0x00, 0x18, 0x52, 0x00, 0x0C, 0x3C, 0x00, 0x00,
  0x52, 0x4F, 0x0C, 0x3C, 0x5C, 0x6C, 0x4B, 0x00, 0x00, 0x5B, 0x6E, 0x0C, 0x44, 0x5A, 0x00, 0x4B,
  0x4F, 0x00, 0x4F, 0x4C, 0x78, 0x59, 0x77, 0x0C, 0x5B, 0x00, 0x00, 0x48, 0x55, 0x3C, 0x52, 0x00,
  0x30, 0x4B, 0x00, 0x00, 0x3C, 0x00, 0x0C, 0x4B, 0x58, 0x00, 0x57, 0x65, 0x78, 0x48, 0x00, 0x0C,
  0x48, 0x5B, 0x24, 0x57, 0x00, 0x18, 0x4F, 0x00, 0x81, 0x34, 0x59, 0x00, 0x00, 0x48, 0x00, 0x0C,
  0x44, 0x00, 0x00, 0x48, 0x60, 0x00, 0x56, 0x66, 0x78, 0x4B, 0x00, 0x0C, 0x4B, 0x56, 0x18, 0x57,
  0x70, 0x18, 0x56, 0x00, 0x0C, 0x56, 0x37, 0x3C, 0x56, 0x00, 0x00, 0x57, 0x00, 0x0C, 0x48, 0x00,
  0x00, 0x57, 0x77, 0x0C, 0x48, 0x49, 0x48, 0x4B, 0x00, 0x18, 0x39, 0x2A, 0x18, 0x4A, 0x55, 0x00,
  0x59, 0x70, 0x0C, 0x3A, 0x5A, 0x0C, 0x39, 0x00, 0x00, 0x4D, 0x4C, 0x54, 0x4B, 0x1C, 0x24, 0x46,
  0x26, 0x0C, 0x4B, 0x00, 0x00, 0x57, 0x00, 0x48, 0x48, 0x00, 0x0C, 0x46, 0x00, 0x00, 0x4A, 0x00,
  0x0C, 0x4A, 0x5F, 0x00, 0x57, 0x70, 0x0C, 0x59, 0x00, 0x6C, 0x4D, 0x00, 0x0C, 0x4D, 0x55, 0x00,
  0x59, 0x71, 0x60, 0x4A, 0x00, 0x0C, 0x4A, 0x4D, 0x0C, 0x4D, 0x00, 0x0C, 0x4D, 0x59, 0x0C, 0x59,
  0x00, 0x0C, 0x57, 0x00, 0x00, 0x52, 0x4F, 0x81, 0x58, 0x39, 0x26, 0x0C, 0x4A, 0x00, 0x00, 0x56,
  0x6D, 0x0C, 0x3A, 0x00, 0x00, 0x4A, 0x56, 0x0C, 0x3A, 0x58, 0x0C, 0x39, 0x00, 0x48, 0x4D, 0x00,
  0x18, 0x52, 0x00, 0x0C, 0x56, 0x00, 0x0C, 0x56, 0x57, 0x48, 0x56, 0x00, 0x0C, 0x56, 0x4E, 0x0C,
  0x3B, 0x30, 0x0C, 0x54, 0x74, 0x0C, 0x3C, 0x5E, 0x18, 0x3B, 0x00, 0x3C, 0x56, 0x00, 0x24, 0x43,
  0x4D, 0x78, 0x4A, 0x00, 0x0C, 0x4A, 0x52, 0x0C, 0x54, 0x00, 0x24, 0x3A, 0x00, 0x0C, 0x48, 0x58,
  0x3C, 0x4F, 0x50, 0x81, 0x04, 0x48, 0x00, 0x0C, 0x48, 0x33, 0x30, 0x48, 0x00, 0x0C, 0x48, 0x37,
  0x54, 0x48, 0x00, 0x0C, 0x43, 0x00, 0x00, 0x48, 0x35, 0x60, 0x54, 0x6E, 0x60, 0x48, 0x00, 0x0C,
  0x4A, 0x00, 0x00, 0x4F, 0x00, 0x00, 0x48, 0x62, 0x0C, 0x56, 0x75, 0x0C, 0x3C, 0x00, 0x60, 0x54,
  0x00, 0x18, 0x48, 0x00, 0x00, 0x57, 0x68, 0x0C, 0x48, 0x63, 0x00, 0x4B, 0x51, 0x78, 0x48, 0x00,
  0x00, 0x56, 0x00, 0x00, 0x4F, 0x57, 0x0C, 0x48, 0x63, 0x00, 0x56, 0x31, 0x18, 0x57, 0x00, 0x3C,
  0x4B, 0x00, 0x0C, 0x4B, 0x59, 0x0C, 0x4F, 0x00, 0x0C, 0x4F, 0x4F, 0x0C, 0x56, 0x00, 0x6C, 0x48,
  0x00, 0x00, 0x56, 0x76, 0x0C, 0x48, 0x66, 0x78, 0x4F, 0x00, 0x00, 0x57, 0x6D, 0x0C, 0x4F, 0x31,
  0x81, 0x34, 0x56, 0x00, 0x3C, 0x4F, 0x00, 0x0C, 0x5B, 0x73, 0x18, 0x57, 0x00, 0x18, 0x4B, 0x00,
  0x78, 0x5B, 0x00, 0x0C, 0x5B, 0x47, 0x30, 0x5B, 0x00, 0x00, 0x48, 0x00, 0x18, 0x52, 0x69, 0x00,
  0x56, 0x6A, 0x0C, 0x46, 0x5A, 0x00, 0x4A, 0x55, 0x6C, 0x46, 0x00, 0x0C, 0x4A, 0x00, 0x00, 0x46,
  0x61, 0x00, 0x4F, 0x58, 0x0C, 0x4A, 0x47, 0x0C, 0x52, 0x00, 0x3C, 0x56, 0x00, 0x18, 0x4A, 0x00,
  0x0C, 0x4F, 0x00, 0x0C, 0x4F, 0x59, 0x00, 0x5B, 0x5E, 0x24, 0x4A, 0x43, 0x18, 0x56, 0x3C, 0x48,
  0x46, 0x00, 0x0C, 0x56, 0x00, 0x00, 0x46, 0x55, 0x24, 0x5B, 0x00, 0x48, 0x5E, 0x62, 0x81, 0x4C,
  0x5E, 0x00, 0x18, 0x4A, 0x00, 0x18, 0x4F, 0x00, 0x00, 0x46, 0x00, 0x0C, 0x46, 0x2F, 0x00, 0x4F,
  0x74, 0x00, 0x62, 0x58, 0x54, 0x62, 0x00, 0x0C, 0x46, 0x00, 0x18, 0x4F, 0x00, 0x0C, 0x4F, 0x7B,
  0x81, 0x04, 0x48, 0x58, 0x00, 0x54, 0x6D, 0x0C, 0x44, 0x5F, 0x6C, 0x44, 0x00, 0x0C, 0x44, 0x63,
  0x00, 0x4B, 0x52, 0x54, 0x54, 0x00, 0x0C, 0x48, 0x00, 0x0C, 0x48, 0x5B, 0x0C, 0x4B, 0x00, 0x0C,
  0x4B, 0x3D, 0x0C, 0x4F, 0x00, 0x6C, 0x44, 0x00, 0x00, 0x4B, 0x00, 0x00, 0x52, 0x72, 0x0C, 0x44,
  0x58, 0x00, 0x4B, 0x2B, 0x6C, 0x4B, 0x00, 0x0C, 0x4B, 0x2C, 0x00, 0x54, 0x6F, 0x81, 0x1C, 0x52,
  0x00, 0x30, 0x52, 0x33, 0x24, 0x4B, 0x00, 0x0C, 0x57, 0x71, 0x0C, 0x48, 0x00, 0x3C, 0x48, 0x0C,
  0x24, 0x54, 0x00, 0x30, 0x52, 0x00, 0x30, 0x48, 0x00, 0x30, 0x44, 0x00, 0x00, 0x57, 0x00, 0x0C,
  0x46, 0x4E, 0x00, 0x4F, 0x6B, 0x00, 0x52, 0x6C, 0x00, 0x57, 0x25, 0x0C, 0x43, 0x5D, 0x24, 0x57,
  0x00, 0x3C, 0x4F, 0x00, 0x0C, 0x4F, 0x5E, 0x0C, 0x43, 0x00, 0x00, 0x4B, 0x53, 0x0C, 0x43, 0x5D,
  0x30, 0x4F, 0x00, 0x30, 0x46, 0x00, 0x00, 0x4F, 0x25, 0x0C, 0x4B, 0x00, 0x00, 0x52, 0x00, 0x00,
  0x46, 0x45, 0x00, 0x5B, 0x65, 0x0C, 0x4B, 0x51, 0x24, 0x4F, 0x00, 0x54, 0x43, 0x00, 0x00, 0x46,
  0x00, 0x0C, 0x43, 0x63, 0x00, 0x46, 0x30, 0x24, 0x5B, 0x00, 0x54, 0x52, 0x22, 0x00, 0x5E, 0x61,
  0x30, 0x52, 0x00, 0x0C, 0x52, 0x1D, 0x0C, 0x46, 0x00, 0x0C, 0x46, 0x14, 0x24, 0x52, 0x00, 0x24,
  0x46, 0x00, 0x3C, 0x5E, 0x00, 0x30, 0x4F, 0x7B, 0x00, 0x63, 0x57, 0x24, 0x4B, 0x00, 0x24, 0x63,
  0x00, 0x0C, 0x63, 0x46, 0x24, 0x4F, 0x00, 0x0C, 0x4F, 0x79, 0x30, 0x63, 0x00, 0x24, 0x43, 0x00,
  0x18, 0x48, 0x52, 0x0C, 0x60, 0x63, 0x0C, 0x41, 0x59, 0x00, 0x4B, 0x51, 0x00, 0x50, 0x76, 0x78,
  0x41, 0x00, 0x0C, 0x4F, 0x00, 0x00, 0x41, 0x5C, 0x0C, 0x4F, 0x40, 0x24, 0x60, 0x00, 0x81, 0x1C,
  0x4F, 0x00, 0x0C, 0x48, 0x00, 0x00, 0x4B, 0x00, 0x0C, 0x50, 0x00, 0x00, 0x48, 0x4D, 0x0C, 0x41,
  0x00, 0x0C, 0x41, 0x63, 0x00, 0x4F, 0x74, 0x60, 0x48, 0x00, 0x0C, 0x48, 0x57, 0x18, 0x4B, 0x54,
  0x00, 0x50, 0x71, 0x78, 0x57, 0x6A, 0x81, 0x40, 0x57, 0x00, 0x0C, 0x57, 0x47, 0x18, 0x50, 0x00,
  0x30, 0x57, 0x00, 0x00, 0x50, 0x16, 0x3C, 0x50, 0x00, 0x0C, 0x4B, 0x00, 0x00, 0x48, 0x00, 0x00,
  0x4F, 0x00, 0x18, 0x41, 0x00, 0x00, 0x46, 0x49, 0x18, 0x4F, 0x6E, 0x0C, 0x3F, 0x5E, 0x82, 0x5C,
  0x46, 0x00, 0x0C, 0x46, 0x3C, 0x0C, 0x3F, 0x00, 0x0C, 0x4F, 0x00, 0x00, 0x3F, 0x57, 0x54, 0x46,
  0x00, 0x0C, 0x46, 0x4C, 0x18, 0x4B, 0x3B, 0x18, 0x4F, 0x4F, 0x48, 0x4B, 0x00, 0x0C, 0x4B, 0x2E,
  0x0C, 0x57, 0x70, 0x6C, 0x4B, 0x00, 0x0C, 0x57, 0x00, 0x00, 0x4B, 0x28, 0x0C, 0x57, 0x6B, 0x6C,
  0x4B, 0x00, 0x0C, 0x4F, 0x00, 0x00, 0x57, 0x00, 0x0C, 0x4F, 0x2C, 0x18, 0x57, 0x6F, 0x3C, 0x46,
  0x00, 0x0C, 0x3F, 0x00, 0x0C, 0x4F, 0x00, 0x0C, 0x45, 0x4D, 0x0C, 0x48, 0x55, 0x00, 0x56, 0x75,
  0x0C, 0x3E, 0x5D, 0x0C, 0x4E, 0x51, 0x0C, 0x57, 0x00, 0x0C, 0x57, 0x4B, 0x48, 0x57, 0x00, 0x0C,
  0x4E, 0x00, 0x00, 0x3E, 0x00, 0x0C, 0x3E, 0x5D, 0x00, 0x4E, 0x47, 0x81, 0x58, 0x4E, 0x00, 0x00,
  0x56, 0x00, 0x18, 0x3E, 0x00, 0x00, 0x51, 0x72, 0x0C, 0x3E, 0x61, 0x3C, 0x45, 0x00, 0x24, 0x48,
  0x00, 0x0C, 0x51, 0x00, 0x00, 0x48, 0x53, 0x0C, 0x4E, 0x54, 0x00, 0x51, 0x7A, 0x81, 0x7C, 0x56,
  0x76, 0x81, 0x34, 0x51, 0x00, 0x0C, 0x51, 0x2C, 0x18, 0x4E, 0x00, 0x18, 0x3E, 0x00, 0x00, 0x51,
  0x00, 0x00, 0x48, 0x00, 0x00, 0x47, 0x52, 0x0C, 0x56, 0x00, 0x0C, 0x53, 0x6D, 0x0C, 0x43, 0x5E,
  0x00, 0x4A, 0x55, 0x81, 0x70, 0x47, 0x00, 0x0C, 0x53, 0x00, 0x00, 0x47, 0x61, 0x48, 0x48, 0x52,
  0x30, 0x4A, 0x00, 0x0C, 0x4A, 0x5A, 0x3C, 0x4F, 0x4D, 0x3C, 0x43, 0x00, 0x0C, 0x4F, 0x00, 0x00,
  0x43, 0x59, 0x00, 0x53, 0x51, 0x24, 0x48, 0x00, 0x18, 0x4A, 0x00, 0x00, 0x45, 0x5D, 0x00, 0x54,
  0x67, 0x0C, 0x4A, 0x45, 0x18, 0x53, 0x00, 0x18, 0x47, 0x00, 0x00, 0x4F, 0x3C, 0x00, 0x56, 0x6E,
  0x0C, 0x43, 0x00, 0x00, 0x4A, 0x00, 0x00, 0x47, 0x63, 0x0C, 0x43, 0x2C, 0x60, 0x54, 0x00, 0x00,
  0x4F, 0x00, 0x0C, 0x4F, 0x2E, 0x00, 0x54, 0x75, 0x48, 0x4F, 0x00, 0x30, 0x56, 0x00, 0x0C, 0x56,
  0x70, 0x24, 0x43, 0x00, 0x24, 0x45, 0x00, 0x24, 0x4B, 0x51, 0x0C, 0x57, 0x70, 0x0C, 0x54, 0x00,
  0x00, 0x4F, 0x51, 0x0C, 0x3C, 0x5B, 0x00, 0x54, 0x55, 0x24, 0x56, 0x00, 0x0C, 0x56, 0x50, 0x24,
  0x54, 0x00, 0x0C, 0x3C, 0x00, 0x00, 0x54, 0x41, 0x0C, 0x3C, 0x61, 0x18, 0x47, 0x00, 0x3C, 0x56,
  0x00, 0x18, 0x57, 0x00, 0x0C, 0x4B, 0x00, 0x0C, 0x4B, 0x4F, 0x48, 0x4D, 0x55, 0x30, 0x4F, 0x00,
  0x00, 0x54, 0x00, 0x0C, 0x4F, 0x4D, 0x00, 0x56, 0x75, 0x24, 0x4B, 0x00, 0x0C, 0x4B, 0x41, 0x0C,
  0x54, 0x54, 0x24, 0x4F, 0x00, 0x0C, 0x54, 0x00, 0x0C, 0x54, 0x60, 0x0C, 0x4F, 0x41, 0x0C, 0x57,
  0x73, 0x6C, 0x4F, 0x00, 0x30, 0x4F, 0x2F, 0x48, 0x56, 0x00, 0x0C, 0x5B, 0x73, 0x18, 0x4B, 0x00,
  0x24, 0x57, 0x00, 0x0C, 0x57, 0x30, 0x3C, 0x57, 0x00, 0x0C, 0x57, 0x2B, 0x24, 0x5B, 0x00, 0x0C,
  0x4F, 0x00, 0x00, 0x3C, 0x00, 0x00, 0x5B, 0x38, 0x18, 0x4D, 0x00, 0x0C, 0x54, 0x00, 0x00, 0x57,
  0x00, 0x0C, 0x5B, 0x00, 0x00, 0x4A, 0x4E, 0x18, 0x4F, 0x52, 0x00, 0x52, 0x70, 0x00, 0x56, 0x76,
  0x0C, 0x3A, 0x5A, 0x60, 0x39, 0x26, 0x0C, 0x3A, 0x00, 0x0C, 0x3A, 0x5F, 0x0C, 0x4A, 0x00, 0x0C,
  0x4A, 0x50, 0x0C, 0x39, 0x00, 0x48, 0x56, 0x00, 0x0C, 0x4A, 0x00, 0x0C, 0x4A, 0x51, 0x30, 0x4F,
  0x00, 0x0C, 0x4F, 0x78, 0x30, 0x52, 0x00, 0x0C, 0x52, 0x58, 0x3C, 0x54, 0x54, 0x48, 0x56, 0x4A,
  0x78, 0x52, 0x00, 0x0C, 0x52, 0x59, 0x60, 0x56, 0x00, 0x0C, 0x54, 0x00, 0x0C, 0x4A, 0x00, 0x00,
  0x4F, 0x00, 0x0C, 0x4A, 0x53, 0x00, 0x4F, 0x79, 0x6C, 0x3A, 0x00, 0x78, 0x52, 0x00, 0x00, 0x4B,
  0x50, 0x0C, 0x37, 0x28, 0x00, 0x3B, 0x2A, 0x0C, 0x50, 0x4D, 0x00, 0x54, 0x6F, 0x0C, 0x4A, 0x00,
  0x00, 0x38, 0x59, 0x0C, 0x4A, 0x2D, 0x0C, 0x3B, 0x00, 0x0C, 0x37, 0x00, 0x24, 0x4A, 0x00, 0x24,
  0x37, 0x2A, 0x00, 0x3C, 0x2E, 0x0C, 0x4B, 0x00, 0x00, 0x50, 0x00, 0x0C, 0x4B, 0x49, 0x00, 0x50,
  0x3F, 0x18, 0x3C, 0x00, 0x0C, 0x37, 0x00, 0x3C, 0x4F, 0x00, 0x00, 0x54, 0x00, 0x18, 0x48, 0x58,
  0x24, 0x50, 0x00, 0x0C, 0x4B, 0x00, 0x0C, 0x4B, 0x5B, 0x3C, 0x50, 0x50, 0x00, 0x52, 0x76, 0x6C,
  0x4B, 0x00, 0x0C, 0x50, 0x00, 0x00, 0x4B, 0x5D, 0x0C, 0x50, 0x4F, 0x00, 0x54, 0x75, 0x82, 0x08,
  0x57, 0x6C, 0x81, 0x1C, 0x50, 0x00, 0x0C, 0x48, 0x00, 0x24, 0x38, 0x00, 0x00, 0x4B, 0x00, 0x00,
  0x52, 0x00, 0x00, 0x54, 0x00, 0x24, 0x57, 0x00, 0x00, 0x36, 0x2B, 0x00, 0x3A, 0x2C, 0x00, 0x3B,
  0x35, 0x00, 0x46, 0x4E, 0x18, 0x4B, 0x50, 0x00, 0x4F, 0x72, 0x00, 0x52, 0x73, 0x0C, 0x37, 0x66,
  0x0C, 0x3B, 0x00, 0x00, 0x3A, 0x00, 0x48, 0x36, 0x00, 0x0C, 0x36, 0x25, 0x00, 0x3A, 0x2A, 0x30,
  0x3A, 0x00, 0x0C, 0x36, 0x00, 0x54, 0x46, 0x00, 0x0C, 0x46, 0x49, 0x0C, 0x52, 0x00, 0x24, 0x4B,
  0x00, 0x0C, 0x4B, 0x49, 0x3C, 0x4D, 0x57, 0x30, 0x4F, 0x00, 0x0C, 0x4F, 0x51, 0x3C, 0x52, 0x4D,
  0x78, 0x4F, 0x00, 0x00, 0x46, 0x00, 0x0C, 0x4F, 0x6D, 0x78, 0x4B, 0x00, 0x0C, 0x4B, 0x52, 0x18,
  0x52, 0x00, 0x0C, 0x52, 0x2B, 0x3C, 0x52, 0x00, 0x00, 0x4D, 0x00, 0x18, 0x4B, 0x00, 0x00, 0x4F,
  0x00, 0x0C, 0x46, 0x4D, 0x00, 0x4B, 0x54, 0x00, 0x4F, 0x76, 0x3C, 0x37, 0x00, 0x30, 0x44, 0x53,
  0x18, 0x41, 0x5F, 0x00, 0x48, 0x54, 0x00, 0x50, 0x6A, 0x0C, 0x4B, 0x00, 0x0C, 0x4B, 0x56, 0x3C,
  0x46, 0x00, 0x0C, 0x44, 0x00, 0x0C, 0x41, 0x00, 0x00, 0x44, 0x52, 0x0C, 0x41, 0x67, 0x78, 0x50,
  0x00, 0x0C, 0x44, 0x00, 0x00, 0x57, 0x71, 0x0C, 0x44, 0x55, 0x0C, 0x4F, 0x00, 0x24, 0x48, 0x00,
  0x00, 0x4F, 0x18, 0x0C, 0x48, 0x59, 0x24, 0x4F, 0x00, 0x0C, 0x4B, 0x00, 0x0C, 0x57, 0x00, 0x00,
  0x4B, 0x53, 0x00, 0x56, 0x75, 0x30, 0x48, 0x00, 0x0C, 0x48, 0x61, 0x48, 0x50, 0x46, 0x30, 0x56,
  0x00, 0x0C, 0x56, 0x58, 0x3C, 0x4B, 0x00, 0x0C, 0x4B, 0x57, 0x60, 0x41, 0x00, 0x00, 0x44, 0x00,
  0x00, 0x56, 0x00, 0x0C, 0x44, 0x49, 0x0C, 0x48, 0x00, 0x00, 0x57, 0x71, 0x0C, 0x48, 0x52, 0x60,
  0x50, 0x00, 0x18, 0x44, 0x00, 0x0C, 0x44, 0x4D, 0x18, 0x57, 0x00, 0x0C, 0x57, 0x58, 0x30, 0x4B,
  0x00, 0x18, 0x43, 0x53, 0x0C, 0x48, 0x00, 0x00, 0x59, 0x72, 0x0C, 0x57, 0x00, 0x00, 0x3F, 0x5D,
  0x00, 0x48, 0x54, 0x0C, 0x4D, 0x52, 0x48, 0x43, 0x00, 0x0C, 0x44, 0x00, 0x00, 0x43, 0x49, 0x0C,
  0x3F, 0x00, 0x00, 0x44, 0x2B, 0x0C, 0x3F, 0x62, 0x3C, 0x44, 0x00, 0x3C, 0x5B, 0x73, 0x18, 0x59,
  0x00, 0x24, 0x59, 0x35, 0x30, 0x59, 0x00, 0x0C, 0x5B, 0x00, 0x00, 0x4D, 0x00, 0x0C, 0x4F, 0x57,
  0x00, 0x57, 0x71, 0x6C, 0x43, 0x00, 0x0C, 0x48, 0x00, 0x00, 0x43, 0x4D, 0x0C, 0x4F, 0x00, 0x00,
  0x48, 0x59, 0x18, 0x4B, 0x52, 0x0C, 0x57, 0x00, 0x54, 0x4F, 0x22, 0x54, 0x4F, 0x00, 0x30, 0x48,
  0x00, 0x0C, 0x48, 0x5E, 0x0C, 0x3F, 0x00, 0x30, 0x4A, 0x56, 0x24, 0x43, 0x00, 0x0C, 0x3F, 0x13,
  0x00, 0x43, 0x21, 0x0C, 0x4B, 0x00, 0x0C, 0x4B, 0x56, 0x30, 0x3F, 0x00, 0x3C, 0x43, 0x00, 0x0C,
  0x4B, 0x00, 0x00, 0x57, 0x69, 0x0C, 0x48, 0x00, 0x00, 0x4A, 0x00, 0x00, 0x42, 0x59, 0x00, 0x4B,
  0x4F, 0x0C, 0x45, 0x4B, 0x00, 0x48, 0x2E, 0x30, 0x4A, 0x4B, 0x30, 0x4A, 0x00, 0x0C, 0x4A, 0x58,
  0x00, 0x56, 0x6D, 0x24, 0x57, 0x00, 0x00, 0x48, 0x00, 0x0C, 0x57, 0x24, 0x3C, 0x57, 0x00, 0x18,
  0x48, 0x54, 0x00, 0x54, 0x6A, 0x3C, 0x56, 0x00, 0x24, 0x4B, 0x00, 0x00, 0x4A, 0x00, 0x0C, 0x54,
  0x00, 0x00, 0x48, 0x00, 0x00, 0x4A, 0x4F, 0x0C, 0x45, 0x00, 0x00, 0x54, 0x74, 0x0C, 0x48, 0x3D,
  0x3C, 0x48, 0x00, 0x24, 0x42, 0x00, 0x0C, 0x48, 0x45, 0x0C, 0x4A, 0x00, 0x00, 0x56, 0x69, 0x0C,
  0x43, 0x5E, 0x00, 0x47, 0x57, 0x00, 0x4A, 0x54, 0x78, 0x48, 0x00, 0x30, 0x54, 0x00, 0x54, 0x4A,
  0x00, 0x00, 0x53, 0x72, 0x0C, 0x4A, 0x41, 0x18, 0x56, 0x00, 0x81, 0x40, 0x43, 0x00, 0x0C, 0x4A,
  0x00, 0x0C, 0x54, 0x78, 0x0C, 0x4B, 0x51, 0x0C, 0x3C, 0x5D, 0x24, 0x47, 0x00, 0x48, 0x53, 0x00,
  0x0C, 0x43, 0x53, 0x18, 0x53, 0x28, 0x48, 0x53, 0x00, 0x18, 0x4D, 0x58, 0x00, 0x5C, 0x65, 0x3C,
  0x4B, 0x00, 0x00, 0x5B, 0x66, 0x0C, 0x4B, 0x48, 0x18, 0x43, 0x00, 0x0C, 0x54, 0x00, 0x00, 0x43,
  0x4C, 0x18, 0x5C, 0x00, 0x00, 0x3C, 0x00, 0x00, 0x4D, 0x00, 0x00, 0x4A, 0x59, 0x00, 0x59, 0x61,
  0x0C, 0x4B, 0x00, 0x00, 0x3C, 0x60, 0x00, 0x4D, 0x4A, 0x00, 0x5C, 0x3F, 0x0C, 0x4B, 0x43, 0x24,
  0x5C, 0x00, 0x00, 0x57, 0x5E, 0x24, 0x43, 0x00, 0x0C, 0x5B, 0x00, 0x00, 0x43, 0x52, 0x0C, 0x5B,
  0x65, 0x0C, 0x3C, 0x00, 0x00, 0x48, 0x46, 0x0C, 0x4B, 0x00, 0x00, 0x3C, 0x5F, 0x0C, 0x4D, 0x00,
  0x00, 0x4B, 0x4B, 0x0C, 0x4D, 0x28, 0x48, 0x4B, 0x00, 0x00, 0x57, 0x00, 0x0C, 0x4B, 0x49, 0x18,
  0x59, 0x00, 0x18, 0x5B, 0x00, 0x30, 0x4D, 0x00, 0x30, 0x48, 0x00, 0x00, 0x5B, 0x2A, 0x24, 0x59,
  0x0E, 0x18, 0x5B, 0x00, 0x0C, 0x5B, 0x2B, 0x30, 0x59, 0x00, 0x30, 0x5B, 0x00, 0x30, 0x4A, 0x00,
  0x0C, 0x43, 0x00, 0x0C, 0x4B, 0x00, 0x0C, 0x48, 0x6D, 0x00, 0x4B, 0x55, 0x00, 0x4F, 0x4F, 0x60,
  0x3C, 0x00, 0x18, 0x48, 0x00, 0x0C, 0x48, 0x6F, 0x81, 0x04, 0x4A, 0x51, 0x00, 0x4D, 0x55, 0x54,
  0x4F, 0x00, 0x0C, 0x4B, 0x00, 0x0C, 0x48, 0x00, 0x0C, 0x48, 0x68, 0x30, 0x54, 0x39, 0x0C, 0x5B,
  0x5F, 0x24, 0x54, 0x00, 0x18, 0x48, 0x00, 0x00, 0x5B, 0x00, 0x0C, 0x48, 0x6A, 0x00, 0x4B, 0x51,
  0x00, 0x4F, 0x54, 0x00, 0x60, 0x63, 0x30, 0x4A, 0x00, 0x3C, 0x4D, 0x00, 0x0C, 0x48, 0x00, 0x00,
  0x5B, 0x5A, 0x0C, 0x48, 0x65, 0x30, 0x60, 0x00, 0x0C, 0x4D, 0x50, 0x30, 0x5B, 0x00, 0x0C, 0x4D,
  0x00, 0x00, 0x5B, 0x4D, 0x0C, 0x4D, 0x53, 0x00, 0x50, 0x4F, 0x18, 0x59, 0x54, 0x48, 0x5B, 0x00,
  0x00, 0x4F, 0x00, 0x18, 0x48, 0x00, 0x00, 0x4B, 0x00, 0x00, 0x57, 0x66, 0x0C, 0x48, 0x66, 0x48,
  0x59, 0x00, 0x24, 0x4D, 0x00, 0x0C, 0x4D, 0x5A, 0x0C, 0x46, 0x5C, 0x00, 0x4A, 0x50, 0x30, 0x57,
  0x00, 0x0C, 0x57, 0x43, 0x0C, 0x50, 0x00, 0x24, 0x46, 0x00, 0x0C, 0x46, 0x62, 0x24, 0x57, 0x00,
  0x54, 0x48, 0x00, 0x0C, 0x48, 0x56, 0x00, 0x4B, 0x53, 0x48, 0x4A, 0x00, 0x24, 0x4D, 0x00, 0x0C,
  0x46, 0x00, 0x0C, 0x46, 0x59, 0x18, 0x52, 0x4E, 0x24, 0x59, 0x63, 0x24, 0x52, 0x00, 0x18, 0x46,
  0x00, 0x00, 0x4A, 0x55, 0x00, 0x5E, 0x60, 0x0C, 0x59, 0x00, 0x00, 0x46, 0x5F, 0x00, 0x4D, 0x52,
  0x3C, 0x4B, 0x00, 0x24, 0x48, 0x00, 0x0C, 0x48, 0x2B, 0x0C, 0x46, 0x00, 0x0C, 0x46, 0x4D, 0x0C,
  0x59, 0x57, 0x0C, 0x48, 0x00, 0x00, 0x5E, 0x00, 0x60, 0x4B, 0x53, 0x00, 0x4F, 0x56, 0x18, 0x57,
  0x52, 0x30, 0x4A, 0x00, 0x24, 0x59, 0x00, 0x0C, 0x46, 0x00, 0x00, 0x56, 0x66, 0x0C, 0x46, 0x5A,
  0x0C, 0x57, 0x00, 0x48, 0x4D, 0x00, 0x0C, 0x4F, 0x00, 0x0C, 0x4F, 0x35, 0x0C, 0x4B, 0x00, 0x0C,
  0x44, 0x59, 0x00, 0x48, 0x53, 0x00, 0x4B, 0x4A, 0x60, 0x46, 0x00, 0x18, 0x44, 0x00, 0x0C, 0x44,
  0x5E, 0x00, 0x46, 0x4A, 0x24, 0x4F, 0x00, 0x3C, 0x56, 0x00, 0x18, 0x48, 0x00, 0x00, 0x46, 0x00,
  0x00, 0x4A, 0x56, 0x0C, 0x46, 0x4C, 0x00, 0x48, 0x36, 0x54, 0x4B, 0x00, 0x0C, 0x48, 0x00, 0x00,
  0x4B, 0x23, 0x0C, 0x44, 0x00, 0x00, 0x48, 0x2A, 0x0C, 0x44, 0x50, 0x18, 0x4B, 0x00, 0x0C, 0x50,
  0x54, 0x0C, 0x48, 0x00, 0x0C, 0x57, 0x60, 0x30, 0x46, 0x00, 0x0C, 0x4A, 0x00, 0x00, 0x46, 0x36,
  0x0C, 0x48, 0x54, 0x00, 0x4A, 0x30, 0x00, 0x4B, 0x51, 0x0C, 0x5C, 0x5F, 0x0C, 0x57, 0x00, 0x00,
  0x50, 0x00, 0x48, 0x46, 0x00, 0x0C, 0x44, 0x00, 0x00, 0x4A, 0x00, 0x0C, 0x44, 0x58, 0x00, 0x5B,
  0x66, 0x3C, 0x5C, 0x00, 0x48, 0x4A, 0x56, 0x00, 0x4D, 0x58, 0x18, 0x59, 0x50, 0x48, 0x4B, 0x00,
  0x0C, 0x48, 0x00, 0x0C, 0x5B, 0x00, 0x00, 0x48, 0x30, 0x0C, 0x44, 0x00, 0x00, 0x57, 0x64, 0x0C,
  0x44, 0x52, 0x0C, 0x59, 0x00, 0x30, 0x48, 0x00, 0x3C, 0x48, 0x53, 0x00, 0x5B, 0x64, 0x0C, 0x43,
  0x58, 0x0C, 0x54, 0x57, 0x48, 0x4A, 0x00, 0x0C, 0x4A, 0x24, 0x0C, 0x57, 0x00, 0x00, 0x43, 0x00,
  0x0C, 0x44, 0x00, 0x00, 0x43, 0x54, 0x0C, 0x44, 0x2D, 0x24, 0x4D, 0x00, 0x0C, 0x5B, 0x00, 0x0C,
  0x4A, 0x00, 0x18, 0x44, 0x00, 0x0C, 0x54, 0x00, 0x0C, 0x4D, 0x58, 0x00, 0x60, 0x63, 0x6C, 0x48,
  0x00, 0x0C, 0x43, 0x00, 0x0C, 0x43, 0x5F, 0x0C, 0x48, 0x28, 0x00, 0x4B, 0x51, 0x54, 0x48, 0x00,
  0x0C, 0x60, 0x00, 0x0C, 0x43, 0x00, 0x0C, 0x43, 0x63, 0x00, 0x47, 0x54, 0x00, 0x4A, 0x58, 0x00,
  0x5F, 0x67, 0x24, 0x60, 0x1F, 0x60, 0x60, 0x00, 0x0C, 0x60, 0x19, 0x18, 0x4B, 0x00, 0x24, 0x4D,
  0x00, 0x00, 0x60, 0x00, 0x0C, 0x5F, 0x00, 0x24, 0x57, 0x71, 0x81, 0x04, 0x4A, 0x00, 0x00, 0x59,
  0x72, 0x60, 0x43, 0x00, 0x0C, 0x57, 0x00, 0x00, 0x47, 0x00, 0x18, 0x4F, 0x54, 0x00, 0x52, 0x70,
  0x00, 0x5B, 0x69, 0x0C, 0x3F, 0x5B, 0x3C, 0x59, 0x00, 0x0C, 0x59, 0x48, 0x0C, 0x5B, 0x00, 0x24,
  0x46, 0x4E, 0x30, 0x59, 0x00, 0x54, 0x4D, 0x56, 0x30, 0x52, 0x00, 0x0C, 0x5B, 0x26, 0x30, 0x5B,
  0x00, 0x0C, 0x46, 0x00, 0x00, 0x59, 0x72, 0x0C, 0x46, 0x50, 0x54, 0x4F, 0x00, 0x24, 0x4D, 0x00,
  0x00, 0x4F, 0x52, 0x00, 0x5B, 0x6D, 0x0C, 0x4D, 0x4C, 0x48, 0x59, 0x00, 0x0C, 0x59, 0x36, 0x18,
  0x46, 0x00, 0x0C, 0x5B, 0x00, 0x00, 0x46, 0x49, 0x0C, 0x59, 0x00, 0x6C, 0x4D, 0x00, 0x00, 0x3F,
  0x00, 0x0C, 0x46, 0x00, 0x00, 0x4D, 0x53, 0x00, 0x5E, 0x6B, 0x0C, 0x46, 0x3D, 0x24, 0x4F, 0x00,
  0x0C, 0x4F, 0x5C, 0x30, 0x5E, 0x00, 0x0C, 0x52, 0x53, 0x78, 0x4D, 0x00, 0x0C, 0x4F, 0x00, 0x00,
  0x4D, 0x5F, 0x00, 0x59, 0x6D, 0x0C, 0x3E, 0x58, 0x00, 0x4F, 0x40, 0x0C, 0x46, 0x00, 0x54, 0x52,
  0x00, 0x24, 0x46, 0x4C, 0x3C, 0x4F, 0x00, 0x0C, 0x59, 0x00, 0x24, 0x5E, 0x60, 0x0C, 0x4B, 0x54,
  0x78, 0x46, 0x00, 0x0C, 0x46, 0x4D, 0x60, 0x5E, 0x00, 0x18, 0x4D, 0x00, 0x0C, 0x4D, 0x54, 0x0C,
  0x59, 0x4D, 0x54, 0x4B, 0x00, 0x0C, 0x46, 0x00, 0x00, 0x4B, 0x46, 0x0C, 0x46, 0x4E, 0x54, 0x3E,
  0x00, 0x0C, 0x59, 0x00, 0x18, 0x4B, 0x00, 0x00, 0x4D, 0x00, 0x0C, 0x4B, 0x55, 0x00, 0x4D, 0x4A,
  0x00, 0x52, 0x6E, 0x30, 0x4D, 0x00, 0x0C, 0x4D, 0x5D, 0x3C, 0x52, 0x00, 0x0C, 0x52, 0x59, 0x48,
  0x52, 0x00, 0x0C, 0x52, 0x5B, 0x18, 0x46, 0x00, 0x0C, 0x4B, 0x00, 0x00, 0x57, 0x6A, 0x0C, 0x4D,
  0x00, 0x00, 0x4B, 0x51, 0x0C, 0x3C, 0x5A, 0x00, 0x4D, 0x41, 0x78, 0x43, 0x53, 0x3C, 0x52, 0x00,
  0x0C, 0x4D, 0x00, 0x00, 0x52, 0x20, 0x24, 0x57, 0x00, 0x0C, 0x52, 0x00, 0x00, 0x4A, 0x59, 0x78,
  0x43, 0x00, 0x0C, 0x43, 0x5A, 0x00, 0x56, 0x6F, 0x78, 0x4B, 0x00, 0x00, 0x57, 0x6B, 0x0C, 0x4B,
  0x52, 0x6C, 0x43, 0x00, 0x0C, 0x43, 0x51, 0x18, 0x56, 0x00, 0x48, 0x57, 0x00, 0x0C, 0x3C, 0x00,
  0x00, 0x4B, 0x00, 0x0C, 0x4B, 0x4C, 0x0C, 0x4A, 0x00, 0x00, 0x5B, 0x74, 0x0C, 0x4A, 0x55, 0x30,
  0x4B, 0x00, 0x0C, 0x4B, 0x52, 0x30, 0x5B, 0x00, 0x0C, 0x4F, 0x54, 0x60, 0x4A, 0x00, 0x00, 0x43,
  0x00, 0x0C, 0x4B, 0x00, 0x0C, 0x4F, 0x00, 0x0C, 0x4F, 0x4E, 0x00, 0x5B, 0x6D, 0x0C, 0x3A, 0x58,
  0x0C, 0x43, 0x49, 0x00, 0x4A, 0x28, 0x18, 0x4B, 0x25, 0x3C, 0x5B, 0x00, 0x00, 0x4F, 0x00, 0x0C,
  0x4A, 0x00, 0x00, 0x43, 0x00, 0x00, 0x5B, 0x54, 0x0C, 0x43, 0x52, 0x24, 0x5B, 0x00, 0x3C, 0x4B,
  0x00, 0x18, 0x62, 0x5B, 0x0C, 0x4A, 0x57, 0x24, 0x5B, 0x30, 0x24, 0x62, 0x00, 0x0C, 0x62, 0x4B,
  0x0C, 0x5B, 0x00, 0x18, 0x43, 0x00, 0x0C, 0x43, 0x53, 0x0C, 0x62, 0x00, 0x18, 0x5B, 0x18, 0x54,
  0x4A, 0x00, 0x00, 0x5E, 0x62, 0x0C, 0x46, 0x45, 0x00, 0x4A, 0x56, 0x0C, 0x5B, 0x00, 0x60, 0x43,
  0x00, 0x0C, 0x46, 0x00, 0x00, 0x43, 0x4C, 0x0C, 0x46, 0x35, 0x30, 0x5E, 0x00, 0x0C, 0x5E, 0x34,
  0x30, 0x4A, 0x00, 0x00, 0x5B, 0x66, 0x0C, 0x4A, 0x5A, 0x30, 0x5E, 0x00, 0x30, 0x46, 0x00, 0x0C,
  0x46, 0x2F, 0x0C, 0x43, 0x00, 0x0C, 0x3A, 0x00, 0x00, 0x43, 0x53, 0x30, 0x46, 0x00, 0x0C, 0x46,
  0x18, 0x24, 0x5B, 0x00, 0x0C, 0x46, 0x00, 0x0C, 0x4A, 0x00, 0x00, 0x54, 0x6E, 0x00, 0x5C, 0x62,
  0x0C, 0x38, 0x57, 0x00, 0x48, 0x56, 0x00, 0x4A, 0x2D, 0x60, 0x4A, 0x00, 0x18, 0x4B, 0x52, 0x00,
  0x56, 0x73, 0x48, 0x54, 0x00, 0x24, 0x5C, 0x00, 0x0C, 0x57, 0x6C, 0x0C, 0x50, 0x4E, 0x30, 0x43,
  0x00, 0x3C, 0x37, 0x27, 0x00, 0x3B, 0x2D, 0x0C, 0x56, 0x00, 0x0C, 0x38, 0x00, 0x00, 0x56, 0x2D,
  0x0C, 0x48, 0x00, 0x00, 0x38, 0x51, 0x0C, 0x3B, 0x00, 0x00, 0x37, 0x00, 0x00, 0x48, 0x32, 0x0C,
  0x57, 0x00, 0x0C, 0x57, 0x44, 0x24, 0x56, 0x00, 0x00, 0x4B, 0x00, 0x0C, 0x48, 0x00, 0x00, 0x57,
  0x00, 0x0C, 0x48, 0x30, 0x0C, 0x56, 0x6F, 0x0C, 0x4A, 0x4E, 0x0C, 0x3A, 0x58, 0x60, 0x50, 0x00,
  0x0C, 0x4D, 0x4F, 0x00, 0x57, 0x71, 0x0C, 0x56, 0x00, 0x30, 0x48, 0x00, 0x00, 0x56, 0x47, 0x48,
  0x52, 0x4F, 0x00, 0x59, 0x71, 0x0C, 0x56, 0x00, 0x60, 0x59, 0x00, 0x0C, 0x59, 0x7F, 0x0C, 0x38,
  0x00, 0x0C, 0x57, 0x00, 0x54, 0x4A, 0x00, 0x18, 0x4D, 0x00, 0x00, 0x52, 0x00, 0x00, 0x57, 0x75,
  0x0C, 0x3F, 0x59, 0x00, 0x4F, 0x55, 0x6C, 0x3A, 0x00, 0x00, 0x59, 0x00, 0x18, 0x46, 0x4C, 0x6C,
  0x57, 0x00, 0x0C, 0x4B, 0x48, 0x24, 0x59, 0x2A, 0x3C, 0x59, 0x00, 0x18, 0x46, 0x00, 0x00, 0x4B,
  0x00, 0x0C, 0x46, 0x51, 0x00, 0x4B, 0x3A, 0x00, 0x52, 0x75, 0x60, 0x5B, 0x63, 0x0C, 0x4F, 0x00,
  0x0C, 0x52, 0x00, 0x00, 0x63, 0x5C, 0x0C, 0x52, 0x75, 0x54, 0x63, 0x00, 0x18, 0x5B, 0x00, 0x0C,
  0x4F, 0x57, 0x18, 0x63, 0x2F, 0x30, 0x4B, 0x00, 0x24, 0x63, 0x00, 0x18, 0x4B, 0x55, 0x00, 0x5B,
  0x56, 0x3C, 0x3F, 0x00, 0x30, 0x52, 0x00, 0x0C, 0x46, 0x00, 0x00, 0x5B, 0x00, 0x0C, 0x46, 0x4C,
  0x00, 0x57, 0x5E, 0x6C, 0x4F, 0x00, 0x00, 0x54, 0x60, 0x18, 0x50, 0x50, 0x00, 0x59, 0x66, 0x00,
  0x5C, 0x65, 0x0C, 0x41, 0x5E, 0x54, 0x4B, 0x00, 0x00, 0x57, 0x00, 0x0C, 0x5C, 0x00, 0x00, 0x57,
  0x22, 0x18, 0x54, 0x00, 0x00, 0x46, 0x00, 0x00, 0x48, 0x53, 0x18, 0x57, 0x00, 0x0C, 0x57, 0x1B,
  0x3C, 0x57, 0x00, 0x18, 0x4B, 0x54, 0x00, 0x57, 0x54, 0x00, 0x5B, 0x73, 0x24, 0x59, 0x00, 0x54,
  0x50, 0x00, 0x0C, 0x50, 0x4D, 0x30, 0x5B, 0x00, 0x0C, 0x4B, 0x00, 0x00, 0x57, 0x00, 0x00, 0x5B,
  0x3A, 0x0C, 0x4B, 0x5D, 0x18, 0x50, 0x00, 0x0C, 0x5B, 0x00, 0x00, 0x48, 0x00, 0x0C, 0x48, 0x33,
  0x0C, 0x54, 0x4D, 0x00, 0x59, 0x77, 0x3C, 0x50, 0x3D, 0x18, 0x5B, 0x23, 0x30, 0x5B, 0x00, 0x60,
  0x48, 0x00, 0x18, 0x57, 0x73, 0x60, 0x59, 0x00, 0x0C, 0x41, 0x00, 0x18, 0x54, 0x00, 0x0C, 0x54,
  0x1A, 0x0C, 0x50, 0x00, 0x24, 0x4B, 0x00, 0x18, 0x54, 0x00, 0x0C, 0x4A, 0x50, 0x0C, 0x4D, 0x57,
  0x18, 0x54, 0x6F, 0x00, 0x5B, 0x73, 0x0C, 0x43, 0x5D, 0x24, 0x57, 0x00, 0x48, 0x4A, 0x00, 0x0C,
  0x4A, 0x54, 0x24, 0x5B, 0x00, 0x0C, 0x5B, 0x38, 0x30, 0x5B, 0x00, 0x18, 0x4D, 0x00, 0x0C, 0x4D,
  0x55, 0x6C, 0x54, 0x00, 0x0C, 0x43, 0x00, 0x00, 0x4A, 0x00, 0x00, 0x54, 0x65, 0x0C, 0x43, 0x5D,
  0x00, 0x4A, 0x4A, 0x6C, 0x54, 0x00, 0x0C, 0x54, 0x68, 0x78, 0x4A, 0x00, 0x0C, 0x4A, 0x54, 0x78,
  0x4D, 0x00, 0x0C, 0x4D, 0x55, 0x24, 0x54, 0x00, 0x0C, 0x54, 0x2D, 0x3C, 0x54, 0x00, 0x0C, 0x54,
  0x57, 0x81, 0x04, 0x4A, 0x00, 0x00, 0x43, 0x00, 0x00, 0x53, 0x56, 0x0C, 0x43, 0x5A, 0x00, 0x4A,
  0x54, 0x0C, 0x56, 0x60, 0x18, 0x54, 0x00, 0x0C, 0x4D, 0x00, 0x00, 0x54, 0x67, 0x0C, 0x4D, 0x2E,
  0x00, 0x51, 0x55, 0x30, 0x53, 0x00, 0x00, 0x56, 0x00, 0x0C, 0x4D, 0x00, 0x00, 0x53, 0x5C, 0x00,
  0x56, 0x66, 0x30, 0x54, 0x00, 0x0C, 0x54, 0x60, 0x00, 0x5B, 0x65, 0x0C, 0x4D, 0x4A, 0x24, 0x56,
  0x00, 0x0C, 0x4D, 0x00, 0x00, 0x56, 0x62, 0x0C, 0x4D, 0x55, 0x00, 0x5F, 0x66, 0x54, 0x4A, 0x00,
  0x0C, 0x5B, 0x00, 0x0C, 0x5F, 0x00, 0x00, 0x53, 0x00, 0x0C, 0x53, 0x54, 0x00, 0x5B, 0x63, 0x60,
  0x53, 0x00, 0x00, 0x51, 0x00, 0x0C, 0x56, 0x00, 0x0C, 0x47, 0x53, 0x0C, 0x54, 0x00, 0x00, 0x62,
  0x63, 0x0C, 0x5B, 0x00, 0x00, 0x4A, 0x55, 0x0C, 0x4F, 0x50, 0x3C, 0x62, 0x00, 0x0C, 0x62, 0x4D,
  0x81, 0x04, 0x62, 0x00, 0x0C, 0x4F, 0x00, 0x00, 0x47, 0x00, 0x00, 0x4D, 0x00, 0x0C, 0x47, 0x45,
  0x0C, 0x43, 0x00, 0x00, 0x5B, 0x73, 0x0C, 0x43, 0x5E, 0x81, 0x4C, 0x47, 0x00, 0x0C, 0x5B, 0x00,
  0x0C, 0x4A, 0x00, 0x00, 0x3B, 0x2A, 0x0C, 0x57, 0x67, 0x0C, 0x4B, 0x51, 0x00, 0x60, 0x5C, 0x0C,
  0x3C, 0x5B, 0x00, 0x54, 0x4F, 0x0C, 0x3B, 0x00, 0x30, 0x60, 0x00, 0x30, 0x54, 0x00, 0x0C, 0x48,
  0x47, 0x30, 0x48, 0x00, 0x0C, 0x48, 0x48, 0x0C, 0x43, 0x00, 0x0C, 0x60, 0x32, 0x0C, 0x57, 0x00,
  0x0C, 0x4B, 0x00, 0x0C, 0x4B, 0x58, 0x3C, 0x60, 0x00, 0x0C, 0x60, 0x50, 0x30, 0x60, 0x00, 0x0C,
  0x54, 0x4E, 0x00, 0x60, 0x64, 0x48, 0x60, 0x00, 0x00, 0x48, 0x00, 0x24, 0x48, 0x55, 0x0C, 0x4B,
  0x00, 0x00, 0x54, 0x00, 0x0C, 0x4B, 0x57, 0x00, 0x54, 0x2F, 0x00, 0x5E, 0x5B, 0x0C, 0x52, 0x52,
  0x30, 0x54, 0x00, 0x0C, 0x5E, 0x00, 0x0C, 0x60, 0x32, 0x24, 0x48, 0x00, 0x0C, 0x48, 0x59, 0x24,
  0x60, 0x00, 0x48, 0x4B, 0x00, 0x0C, 0x4B, 0x5B, 0x3C, 0x3C, 0x00, 0x30, 0x48, 0x00, 0x0C, 0x52,
  0x00, 0x0C, 0x52, 0x4E, 0x00, 0x5E, 0x5E, 0x0C, 0x3C, 0x5D, 0x60, 0x5E, 0x00, 0x0C, 0x4B, 0x00,
  0x0C, 0x52, 0x00, 0x00, 0x44, 0x59, 0x00, 0x4B, 0x57, 0x00, 0x4F, 0x53, 0x00, 0x5B, 0x6B, 0x0C,
  0x52, 0x3C, 0x6C, 0x52, 0x00, 0x00, 0x5B, 0x00, 0x0C, 0x48, 0x53, 0x00, 0x59, 0x76, 0x78, 0x4B,
  0x00, 0x00, 0x57, 0x64, 0x0C, 0x4B, 0x58, 0x3C, 0x59, 0x00, 0x0C, 0x59, 0x49, 0x18, 0x3C, 0x00,
  0x0C, 0x48, 0x00, 0x0C, 0x48, 0x5E, 0x3C, 0x59, 0x00, 0x0C, 0x57, 0x00, 0x0C, 0x4F, 0x00, 0x60,
  0x54, 0x4D, 0x00, 0x59, 0x0D, 0x30, 0x59, 0x00, 0x18, 0x48, 0x00, 0x00, 0x54, 0x00, 0x0C, 0x44,
  0x00, 0x00, 0x48, 0x56, 0x00, 0x56, 0x68, 0x78, 0x4B, 0x00, 0x0C, 0x4B, 0x53, 0x18, 0x57, 0x52,
  0x54, 0x57, 0x00, 0x0C, 0x48, 0x00, 0x00, 0x57, 0x73, 0x0C, 0x48, 0x58, 0x18, 0x56, 0x00, 0x54,
  0x4B, 0x00, 0x0C, 0x59, 0x71, 0x0C, 0x3A, 0x57, 0x00, 0x4A, 0x55, 0x0C, 0x4D, 0x51, 0x24, 0x57,
  0x00, 0x0C, 0x57, 0x44, 0x30, 0x57, 0x00, 0x00, 0x4B, 0x26, 0x0C, 0x57, 0x20, 0x0C, 0x46, 0x0F,
  0x24, 0x57, 0x00, 0x0C, 0x46, 0x00, 0x00, 0x59, 0x00, 0x00, 0x4B, 0x00, 0x3C, 0x4A, 0x00, 0x0C,
  0x4A, 0x58, 0x00, 0x57, 0x71, 0x30, 0x48, 0x00, 0x48, 0x4D, 0x00, 0x00, 0x59, 0x6D, 0x0C, 0x4D,
  0x51, 0x78, 0x52, 0x50, 0x0C, 0x57, 0x00, 0x18, 0x59, 0x00, 0x48, 0x4A, 0x00, 0x0C, 0x52, 0x00,
  0x0C, 0x5C, 0x73, 0x0C, 0x46, 0x49, 0x54, 0x4A, 0x1C, 0x18, 0x4D, 0x00, 0x0C, 0x4D, 0x58, 0x3C,
  0x4A, 0x00, 0x0C, 0x5C, 0x00, 0x24, 0x5C, 0x2E, 0x0C, 0x46, 0x00, 0x0C, 0x46, 0x4C, 0x30, 0x3A,
  0x00, 0x00, 0x5C, 0x00, 0x24, 0x46, 0x00, 0x0C, 0x46, 0x55, 0x18, 0x4D, 0x00, 0x00, 0x57, 0x70,
  0x00, 0x5B, 0x6E, 0x0C, 0x3F, 0x59, 0x00, 0x4D, 0x2B, 0x0C, 0x4F, 0x53, 0x54, 0x4D, 0x00, 0x0C,
  0x46, 0x00, 0x00, 0x4D, 0x21, 0x0C, 0x46, 0x55, 0x0C, 0x5B, 0x00, 0x6C, 0x4F, 0x00, 0x00, 0x57,
  0x00, 0x0C, 0x4B, 0x4C, 0x00, 0x4F, 0x36, 0x0C, 0x4D, 0x00, 0x0C, 0x57, 0x51, 0x24, 0x59, 0x67,
  0x24, 0x4F, 0x00, 0x0C, 0x57, 0x00, 0x00, 0x4B, 0x00, 0x18, 0x3F, 0x00, 0x00, 0x4F, 0x52, 0x0C,
  0x3F, 0x5C, 0x00, 0x57, 0x31, 0x0C, 0x5B, 0x57, 0x24, 0x57, 0x00, 0x24, 0x46, 0x00, 0x0C, 0x4F,
  0x00, 0x00, 0x47, 0x55, 0x0C, 0x5F, 0x67, 0x0C, 0x43, 0x5E, 0x00, 0x4A, 0x54, 0x54, 0x5B, 0x00,
  0x18, 0x47, 0x00, 0x0C, 0x59, 0x00, 0x00, 0x47, 0x60, 0x0C, 0x59, 0x25, 0x3C, 0x5B, 0x4B, 0x30,
  0x5B, 0x00, 0x00, 0x5F, 0x00, 0x00, 0x4A, 0x00, 0x00, 0x59, 0x00, 0x0C, 0x4A, 0x58, 0x00, 0x5B,
  0x70, 0x0C, 0x3F, 0x00, 0x78, 0x5B, 0x00, 0x00, 0x4F, 0x4A, 0x60, 0x47, 0x00, 0x0C, 0x43, 0x00,
  0x00, 0x3B, 0x2E, 0x0C, 0x47, 0x2A, 0x0C, 0x4B, 0x51, 0x00, 0x57, 0x69, 0x00, 0x60, 0x5B, 0x0C,
  0x3C, 0x5D, 0x00, 0x54, 0x50, 0x0C, 0x3B, 0x00, 0x00, 0x4A, 0x00, 0x24, 0x60, 0x00, 0x24, 0x47,
  0x00, 0x0C, 0x4F, 0x00, 0x0C, 0x54, 0x00, 0x00, 0x4F, 0x11, 0x0C, 0x48, 0x4E, 0x00, 0x4A, 0x19,
  0x24, 0x4F, 0x00, 0x3C, 0x57, 0x00, 0x00, 0x4A, 0x00, 0x0C, 0x4B, 0x00, 0x0C, 0x4B, 0x5C, 0x0C,
  0x60, 0x2C, 0x3C, 0x60, 0x00, 0x30, 0x48, 0x00, 0x0C, 0x48, 0x41, 0x00, 0x54, 0x44, 0x00, 0x60,
  0x68, 0x54, 0x60, 0x00, 0x00, 0x54, 0x00, 0x18, 0x48, 0x00, 0x0C, 0x4B, 0x00, 0x00, 0x48, 0x58,
  0x0C, 0x4B, 0x59, 0x00, 0x5E, 0x5D, 0x18, 0x52, 0x4E, 0x3C, 0x5E, 0x00, 0x24, 0x48, 0x00, 0x0C,
  0x48, 0x5C, 0x78, 0x4B, 0x00, 0x0C, 0x4B, 0x59, 0x3C, 0x3C, 0x00, 0x24, 0x48, 0x00, 0x0C, 0x52,
  0x00, 0x00, 0x3B, 0x29, 0x0C, 0x52, 0x4E, 0x0C, 0x4B, 0x00, 0x00, 0x3C, 0x5C, 0x0C, 0x4B, 0x4C,
  0x0C, 0x3B, 0x00, 0x60, 0x4B, 0x00, 0x00, 0x4F, 0x4D, 0x00, 0x5B, 0x6D, 0x0C, 0x44, 0x5A, 0x00,
  0x4B, 0x57, 0x60, 0x52, 0x00, 0x18, 0x48, 0x57, 0x00, 0x59, 0x76, 0x0C, 0x5B, 0x00, 0x48, 0x3C,
  0x00, 0x24, 0x4B, 0x00, 0x0C, 0x4B, 0x59, 0x18, 0x57, 0x68, 0x60, 0x48, 0x00, 0x0C, 0x48, 0x59,
  0x30, 0x57, 0x00, 0x0C, 0x57, 0x3E, 0x18, 0x4F, 0x00, 0x24, 0x57, 0x00, 0x00, 0x54, 0x51, 0x30,
  0x54, 0x00, 0x0C, 0x54, 0x54, 0x18, 0x59, 0x00, 0x24, 0x44, 0x00, 0x00, 0x54, 0x00, 0x00, 0x48,
  0x00, 0x0C, 0x48, 0x5B, 0x00, 0x56, 0x66, 0x78, 0x4B, 0x00, 0x0C, 0x4B, 0x53, 0x18, 0x57, 0x5B,
  0x54, 0x57, 0x00, 0x0C, 0x48, 0x00, 0x00, 0x57, 0x78, 0x0C, 0x48, 0x3D, 0x30, 0x48, 0x00, 0x18,
  0x56, 0x00, 0x0C, 0x48, 0x46, 0x18, 0x4B, 0x00, 0x0C, 0x59, 0x73, 0x0C, 0x3A, 0x5A, 0x00, 0x4A,
  0x54, 0x0C, 0x4D, 0x55, 0x0C, 0x57, 0x00, 0x0C, 0x57, 0x49, 0x3C, 0x48, 0x00, 0x0C, 0x48, 0x33,
  0x0C, 0x57, 0x00, 0x24, 0x57, 0x6A, 0x24, 0x59, 0x00, 0x0C, 0x59, 0x4D, 0x24, 0x4A, 0x00, 0x00,
  0x57, 0x00, 0x0C, 0x48, 0x00, 0x00, 0x4A, 0x53, 0x00, 0x57, 0x71, 0x60, 0x59, 0x00, 0x18, 0x4D,
  0x00, 0x0C, 0x4D, 0x58, 0x00, 0x59, 0x6E, 0x60, 0x4A, 0x00, 0x00, 0x57, 0x00, 0x0C, 0x4D, 0x00,
  0x00, 0x57, 0x34, 0x0C, 0x59, 0x00, 0x00, 0x4D, 0x5E, 0x18, 0x52, 0x50, 0x0C, 0x4A, 0x55, 0x0C,
  0x57, 0x00, 0x0C, 0x57, 0x1C, 0x30, 0x57, 0x00, 0x81, 0x1C, 0x4A, 0x00, 0x00, 0x3A, 0x00, 0x00,
  0x56, 0x6B, 0x0C, 0x3A, 0x57, 0x00, 0x4A, 0x58, 0x78, 0x4D, 0x00, 0x00, 0x52, 0x00, 0x30, 0x56,
  0x00, 0x0C, 0x56, 0x3C, 0x30, 0x56, 0x00, 0x0C, 0x54, 0x77, 0x18, 0x3C, 0x5D, 0x78, 0x43, 0x4C,
  0x48, 0x4A, 0x00, 0x30, 0x4A, 0x55, 0x24, 0x3A, 0x00, 0x0C, 0x54, 0x00, 0x00, 0x3A, 0x11, 0x18,
  0x48, 0x50, 0x18, 0x3A, 0x00, 0x24, 0x4F, 0x4E, 0x60, 0x43, 0x00, 0x0C, 0x48, 0x00, 0x00, 0x43,
  0x16, 0x18, 0x48, 0x3B, 0x81, 0x58, 0x43, 0x00, 0x24, 0x4A, 0x00, 0x00, 0x54, 0x6F, 0x48, 0x3C,
  0x00, 0x24, 0x48, 0x00, 0x00, 0x4F, 0x00, 0x0C, 0x48, 0x59, 0x0C, 0x56, 0x74, 0x6C, 0x54, 0x00,
  0x0C, 0x48, 0x00, 0x0C, 0x48, 0x66, 0x00, 0x4B, 0x53, 0x00, 0x57, 0x68, 0x6C, 0x48, 0x00, 0x0C,
  0x48, 0x6D, 0x0C, 0x4F, 0x58, 0x24, 0x57, 0x00, 0x24, 0x56, 0x00, 0x18, 0x4B, 0x00, 0x0C, 0x4F,
  0x00, 0x00, 0x4B, 0x4A, 0x0C, 0x4F, 0x64, 0x18, 0x57, 0x2D, 0x30, 0x57, 0x00, 0x3C, 0x48, 0x00,
  0x00, 0x56, 0x74, 0x0C, 0x4B, 0x00, 0x00, 0x48, 0x5B, 0x0C, 0x4B, 0x39, 0x6C, 0x57, 0x6D, 0x6C,
  0x56, 0x00, 0x3C, 0x56, 0x30, 0x30, 0x56, 0x00, 0x18, 0x4F, 0x00, 0x0C, 0x5B, 0x73, 0x18, 0x57,
  0x00, 0x0C, 0x4B, 0x00, 0x54, 0x57, 0x17, 0x30, 0x57, 0x00, 0x00, 0x5B, 0x00, 0x0C, 0x57, 0x11,
  0x00, 0x5B, 0x42, 0x30, 0x5B, 0x00, 0x00, 0x57, 0x00, 0x0C, 0x48, 0x00, 0x0C, 0x48, 0x26, 0x0C,
  0x4A, 0x57, 0x00, 0x52, 0x66, 0x00, 0x56, 0x6C, 0x0C, 0x46, 0x5E, 0x24, 0x48, 0x00, 0x48, 0x46,
  0x00, 0x00, 0x52, 0x00, 0x0C, 0x46, 0x61, 0x00, 0x4F, 0x56, 0x30, 0x56, 0x00, 0x30, 0x4A, 0x00,
  0x0C, 0x4A, 0x52, 0x0C, 0x4F, 0x00, 0x18, 0x5B, 0x61, 0x24, 0x4F, 0x44, 0x30, 0x4F, 0x00, 0x0C,
  0x4F, 0x41, 0x00, 0x56, 0x2C, 0x0C, 0x46, 0x00, 0x0C, 0x46, 0x58, 0x18, 0x5B, 0x00, 0x18, 0x56,
  0x00, 0x48, 0x5E, 0x61, 0x30, 0x5B, 0x12, 0x30, 0x5B, 0x00, 0x78, 0x4F, 0x00, 0x18, 0x4A, 0x00,
  0x0C, 0x46, 0x00, 0x0C, 0x5E, 0x00, 0x00, 0x4F, 0x73, 0x00, 0x62, 0x58, 0x60, 0x62, 0x00, 0x00,
  0x46, 0x24, 0x18, 0x4F, 0x00, 0x0C, 0x4F, 0x6C, 0x0C, 0x46, 0x00, 0x6C, 0x48, 0x56, 0x0C, 0x44,
  0x59, 0x00, 0x54, 0x6D, 0x30, 0x4F, 0x00, 0x0C, 0x4F, 0x4F, 0x3C, 0x44, 0x00, 0x0C, 0x44, 0x54,
  0x00, 0x4B, 0x53, 0x60, 0x48, 0x00, 0x0C, 0x4B, 0x00, 0x00, 0x48, 0x50, 0x0C, 0x4B, 0x5C, 0x0C,
  0x54, 0x00, 0x0C, 0x4F, 0x00, 0x00, 0x54, 0x3C, 0x48, 0x54, 0x00, 0x18, 0x44, 0x00, 0x0C, 0x48,
  0x00, 0x00, 0x44, 0x56, 0x00, 0x52, 0x71, 0x0C, 0x48, 0x46, 0x6C, 0x54, 0x6F, 0x81, 0x70, 0x48,
  0x00, 0x18, 0x52, 0x00, 0x00, 0x57, 0x70, 0x54, 0x4B, 0x00, 0x00, 0x52, 0x0D, 0x0C, 0x4B, 0x12,
  0x0C, 0x54, 0x00, 0x18, 0x52, 0x00, 0x30, 0x4B, 0x00, 0x3C, 0x44, 0x00, 0x18, 0x43, 0x61, 0x00,
  0x46, 0x4D, 0x00, 0x4F, 0x68, 0x00, 0x52, 0x6A, 0x0C, 0x57, 0x00, 0x6C, 0x43, 0x00, 0x0C, 0x46,
  0x00, 0x00, 0x43, 0x66, 0x00, 0x4B, 0x55, 0x0C, 0x4F, 0x00, 0x00, 0x46, 0x4F, 0x54, 0x46, 0x00,
  0x0C, 0x4B, 0x00, 0x00, 0x46, 0x51, 0x0C, 0x4B, 0x5F, 0x00, 0x5B, 0x66, 0x0C, 0x52, 0x00, 0x3C,
  0x52, 0x45, 0x24, 0x46, 0x00, 0x0C, 0x5B, 0x00, 0x00, 0x46, 0x48, 0x0C, 0x43, 0x00, 0x00, 0x5B,
  0x46, 0x0C, 0x52, 0x00, 0x00, 0x43, 0x57, 0x0C, 0x52, 0x39, 0x3C, 0x5B, 0x00, 0x24, 0x5E, 0x61,
  0x54, 0x52, 0x00, 0x0C, 0x52, 0x08, 0x3C, 0x52, 0x00, 0x3C, 0x5E, 0x00, 0x24, 0x46, 0x00, 0x0C,
  0x4F, 0x74, 0x00, 0x63, 0x5B, 0x54, 0x63, 0x00, 0x0C, 0x63, 0x40, 0x18, 0x4F, 0x00, 0x00, 0x4B,
  0x00, 0x0C, 0x4F, 0x7B, 0x18, 0x63, 0x00, 0x3C, 0x43, 0x00, 0x18, 0x48, 0x53, 0x18, 0x50, 0x6C,
  0x00, 0x60, 0x63, 0x0C, 0x41, 0x59, 0x00, 0x4B, 0x4F, 0x78, 0x41, 0x00, 0x0C, 0x41, 0x60, 0x18,
  0x60, 0x00, 0x18, 0x50, 0x00, 0x0C, 0x50, 0x52, 0x48, 0x60, 0x1C, 0x30, 0x60, 0x00, 0x00, 0x4F,
  0x00, 0x30, 0x50, 0x00, 0x0C, 0x48, 0x00, 0x00, 0x41, 0x00, 0x00, 0x4F, 0x77, 0x0C, 0x41, 0x62,
  0x00, 0x48, 0x4F, 0x60, 0x48, 0x00, 0x0C, 0x4B, 0x00, 0x00, 0x48, 0x53, 0x0C, 0x4B, 0x54, 0x00,
  0x50, 0x77, 0x81, 0x04, 0x57, 0x6C, 0x81, 0x10, 0x4F, 0x00, 0x48, 0x57, 0x00, 0x54, 0x57, 0x29,
  0x24, 0x48, 0x00, 0x0C, 0x50, 0x00, 0x00, 0x57, 0x00, 0x00, 0x4B, 0x00, 0x0C, 0x41, 0x00, 0x0C,
  0x46, 0x49, 0x0C, 0x4F, 0x73, 0x0C, 0x3F, 0x5E, 0x82, 0x5C, 0x46, 0x00, 0x0C, 0x46, 0x45, 0x18,
  0x3F, 0x00, 0x00, 0x4F, 0x00, 0x0C, 0x3F, 0x57, 0x00, 0x4F, 0x3F, 0x54, 0x46, 0x00, 0x0C, 0x46,
  0x4C, 0x18, 0x4F, 0x00, 0x00, 0x4B, 0x32, 0x0C, 0x4F, 0x53, 0x48, 0x4B, 0x00, 0x0C, 0x4B, 0x2F,
  0x18, 0x57, 0x6F, 0x18, 0x4B, 0x00, 0x0C, 0x4B, 0x2B, 0x54, 0x57, 0x00, 0x0C, 0x57, 0x75, 0x6C,
  0x57, 0x00, 0x00, 0x4B, 0x00, 0x0C, 0x4F, 0x00, 0x00, 0x57, 0x7D, 0x54, 0x46, 0x00, 0x00, 0x3F,
  0x00, 0x24, 0x45, 0x4C, 0x0C, 0x56, 0x76, 0x0C, 0x3E, 0x5D, 0x00, 0x48, 0x52, 0x0C, 0x4E, 0x54,
  0x78, 0x4E, 0x00, 0x0C, 0x4E, 0x48, 0x18, 0x57, 0x00, 0x0C, 0x57, 0x28, 0x3C, 0x57, 0x00, 0x6C,
  0x45, 0x00, 0x0C, 0x56, 0x00, 0x00, 0x4E, 0x00, 0x18, 0x3E, 0x00, 0x00, 0x51, 0x7B, 0x0C, 0x3E,
  0x57, 0x0C, 0x4E, 0x4E, 0x48, 0x48, 0x00, 0x0C, 0x48, 0x51, 0x0C, 0x51, 0x00, 0x00, 0x4E, 0x00,
  0x0C, 0x4E, 0x50, 0x00, 0x51, 0x79, 0x81, 0x7C, 0x56, 0x74, 0x81, 0x58, 0x4E, 0x00, 0x00, 0x3E,
  0x00, 0x0C, 0x48, 0x00, 0x0C, 0x51, 0x00, 0x00, 0x47, 0x55, 0x0C, 0x56, 0x00, 0x00, 0x51, 0x32,
  0x0C, 0x43, 0x5E, 0x00, 0x4A, 0x54, 0x00, 0x53, 0x6B, 0x81, 0x1C, 0x51, 0x00, 0x60, 0x47, 0x00,
  0x0C, 0x47, 0x58, 0x0C, 0x53, 0x00, 0x30, 0x48, 0x54, 0x00, 0x53, 0x51, 0x30, 0x4A, 0x00, 0x0C,
  0x4A, 0x55, 0x48, 0x4F, 0x4C, 0x30, 0x53, 0x00, 0x0C, 0x43, 0x00, 0x00, 0x53, 0x55, 0x0C, 0x43,
  0x59, 0x18, 0x4F, 0x00, 0x0C, 0x48, 0x00, 0x00, 0x47, 0x00, 0x00, 0x4F, 0x46, 0x18, 0x45, 0x5D,
  0x00, 0x54, 0x4E, 0x18, 0x4F, 0x00, 0x0C, 0x53, 0x00, 0x00, 0x4F, 0x4A, 0x0C, 0x4A, 0x00, 0x0C,
  0x54, 0x00, 0x00, 0x43, 0x00, 0x00, 0x47, 0x65, 0x00, 0x56, 0x51, 0x0C, 0x43, 0x32, 0x00, 0x54,
  0x4C, 0x30, 0x51, 0x37, 0x24, 0x54, 0x00, 0x18, 0x54, 0x76, 0x0C, 0x4F, 0x00, 0x3C, 0x43, 0x00,
  0x0C, 0x51, 0x00, 0x24, 0x56, 0x00, 0x0C, 0x56, 0x72, 0x60, 0x45, 0x00, 0x0C, 0x4B, 0x53, 0x18,
  0x4F, 0x51, 0x00, 0x57, 0x70, 0x0C, 0x54, 0x00, 0x00, 0x3C, 0x5C, 0x0C, 0x54, 0x55, 0x60, 0x3C,
  0x00, 0x0C, 0x3C, 0x62, 0x0C, 0x4B, 0x00, 0x0C, 0x4B, 0x51, 0x48, 0x47, 0x00, 0x0C, 0x57, 0x00,
  0x00, 0x56, 0x00, 0x00, 0x47, 0x13, 0x0C, 0x54, 0x00, 0x00, 0x4B, 0x00, 0x0C, 0x4B, 0x57, 0x00,
  0x54, 0x30, 0x24, 0x47, 0x00, 0x48, 0x4D, 0x59, 0x0C, 0x4F, 0x00, 0x00, 0x56, 0x75, 0x0C, 0x4F,
  0x4F, 0x0C, 0x54, 0x00, 0x30, 0x54, 0x58, 0x30, 0x54, 0x00, 0x0C, 0x4F, 0x00, 0x00, 0x54, 0x5E,
  0x0C, 0x4F, 0x49, 0x0C, 0x57, 0x74, 0x81, 0x64, 0x57, 0x00, 0x0C, 0x5B, 0x72, 0x18, 0x56, 0x00,
  0x24, 0x57, 0x2C, 0x0C, 0x4D, 0x00, 0x0C, 0x4D, 0x16, 0x30, 0x4B, 0x00, 0x18, 0x3C, 0x00, 0x3C,
  0x4F, 0x00, 0x00, 0x54, 0x00, 0x00, 0x5B, 0x00, 0x00, 0x4D, 0x00, 0x18, 0x57, 0x00, 0x00, 0x4A,
  0x4E, 0x0C, 0x52, 0x73, 0x00, 0x56, 0x76, 0x0C, 0x4F, 0x4F, 0x0C, 0x3A, 0x5B, 0x60, 0x3A, 0x00,
  0x0C, 0x3A, 0x63, 0x0C, 0x4A, 0x00, 0x0C, 0x4A, 0x4A, 0x60, 0x4A, 0x00, 0x0C, 0x52, 0x00, 0x00,
  0x4A, 0x55, 0x0C, 0x52, 0x4C, 0x18, 0x56, 0x00, 0x0C, 0x4F, 0x00, 0x0C, 0x4F, 0x68, 0x3C, 0x52,
  0x00, 0x0C, 0x52, 0x49, 0x3C, 0x54, 0x52, 0x3C, 0x56, 0x4A, 0x78, 0x52, 0x00, 0x0C, 0x4A, 0x00,
  0x00, 0x52, 0x59, 0x0C, 0x4A, 0x45, 0x60, 0x54, 0x00, 0x00, 0x56, 0x00, 0x0C, 0x4F, 0x00, 0x00,
  0x4A, 0x00, 0x0C, 0x4A, 0x56, 0x00, 0x4F, 0x7A, 0x81, 0x40, 0x3A, 0x00, 0x30, 0x52, 0x00, 0x00,
  0x37, 0x28, 0x00, 0x4B, 0x4E, 0x18, 0x50, 0x4B, 0x00, 0x54, 0x6A, 0x0C, 0x38, 0x5E, 0x18, 0x37,
  0x00, 0x3C, 0x4A, 0x00, 0x18, 0x37, 0x23, 0x30, 0x37, 0x00, 0x0C, 0x4F, 0x00, 0x00, 0x50, 0x00,
  0x0C, 0x4F, 0x15, 0x00, 0x50, 0x40, 0x30, 0x54, 0x00, 0x18, 0x4F, 0x00, 0x00, 0x48, 0x56, 0x30,
  0x4B, 0x00, 0x0C, 0x4B, 0x53, 0x18, 0x50, 0x00, 0x24, 0x50, 0x4C, 0x00, 0x52, 0x75, 0x60, 0x4B,
  0x00, 0x0C, 0x4B, 0x5C, 0x0C, 0x50, 0x00, 0x0C, 0x54, 0x6B, 0x60, 0x50, 0x40, 0x81, 0x1C, 0x57,
  0x6E, 0x30, 0x54, 0x00, 0x48, 0x54, 0x27, 0x18, 0x50, 0x00, 0x24, 0x48, 0x00, 0x18, 0x52, 0x00,
  0x00, 0x54, 0x00, 0x0C, 0x4B, 0x00, 0x00, 0x38, 0x00, 0x18, 0x57, 0x00, 0x00, 0x3A, 0x2E, 0x0C,
  0x36, 0x2C, 0x00, 0x46, 0x4E, 0x0C, 0x4B, 0x52, 0x00, 0x4F, 0x74, 0x00, 0x52, 0x73, 0x0C, 0x37,
  0x65, 0x18, 0x3A, 0x00, 0x18, 0x36, 0x00, 0x18, 0x46, 0x00, 0x0C, 0x46, 0x4D, 0x18, 0x36, 0x26,
  0x48, 0x36, 0x00, 0x3C, 0x52, 0x00, 0x00, 0x46, 0x00, 0x0C, 0x46, 0x52, 0x30, 0x4B, 0x00, 0x0C,
  0x4B, 0x4E, 0x3C, 0x4D, 0x5A, 0x24, 0x4F, 0x00, 0x24, 0x4F, 0x4C, 0x3C, 0x52, 0x49, 0x78, 0x4F,
  0x00, 0x0C, 0x4F, 0x59, 0x0C, 0x46, 0x00, 0x0C, 0x46, 0x14, 0x48, 0x4B, 0x00, 0x18, 0x46, 0x00,
  0x0C, 0x4B, 0x50, 0x3C, 0x52, 0x00, 0x24, 0x4D, 0x00, 0x0C, 0x4F, 0x00, 0x0C, 0x4B, 0x00, 0x00,
  0x4F, 0x7A, 0x0C, 0x46, 0x4D, 0x00, 0x4B, 0x45, 0x48, 0x37, 0x00, 0x24, 0x44, 0x49, 0x0C, 0x50,
  0x6E, 0x0C, 0x4B, 0x00, 0x00, 0x41, 0x62, 0x00, 0x48, 0x52, 0x0C, 0x4B, 0x50, 0x54, 0x44, 0x00,
  0x0C, 0x46, 0x00, 0x00, 0x44, 0x4E, 0x0C, 0x41, 0x00, 0x0C, 0x41, 0x65, 0x30, 0x50, 0x00, 0x24,
  0x48, 0x00, 0x0C, 0x48, 0x51, 0x0C, 0x4B, 0x00, 0x00, 0x44, 0x00, 0x0C, 0x44, 0x55, 0x00, 0x4B,
  0x3E, 0x00, 0x57, 0x71, 0x3C, 0x48, 0x00, 0x0C, 0x48, 0x53, 0x30, 0x4B, 0x00, 0x00, 0x56, 0x77,
  0x0C, 0x4F, 0x00, 0x00, 0x4B, 0x4F, 0x18, 0x57, 0x00, 0x24, 0x48, 0x00, 0x0C, 0x48, 0x31, 0x30,
  0x50, 0x4B, 0x0C, 0x48, 0x00, 0x0C, 0x48, 0x4C, 0x60, 0x4B, 0x00, 0x0C, 0x4B, 0x5C, 0x60, 0x56,
  0x00, 0x18, 0x48, 0x00, 0x0C, 0x48, 0x57, 0x00, 0x57, 0x71, 0x60, 0x50, 0x00, 0x18, 0x44, 0x00,
  0x0C, 0x44, 0x4E, 0x24, 0x57, 0x00, 0x0C, 0x57, 0x44, 0x0C, 0x41, 0x00, 0x18, 0x4B, 0x00, 0x24,
  0x48, 0x00, 0x00, 0x43, 0x51, 0x00, 0x59, 0x76, 0x0C, 0x44, 0x00, 0x00, 0x57, 0x00, 0x00, 0x48,
  0x58, 0x0C, 0x3F, 0x5C, 0x00, 0x44, 0x3B, 0x00, 0x4D, 0x54, 0x54, 0x43, 0x00, 0x0C, 0x3F, 0x00,
  0x00, 0x43, 0x42, 0x0C, 0x3F, 0x61, 0x18, 0x59, 0x00, 0x30, 0x43, 0x00, 0x0C, 0x43, 0x42, 0x24,
  0x44, 0x00, 0x0C, 0x5B, 0x73, 0x24, 0x59, 0x30, 0x3C, 0x59, 0x00, 0x18, 0x5B, 0x00, 0x0C, 0x4F,
  0x55, 0x00, 0x57, 0x6F, 0x60, 0x43, 0x00, 0x0C, 0x4F, 0x00, 0x00, 0x43, 0x4F, 0x0C, 0x48, 0x00,
  0x0C, 0x48, 0x56, 0x0C, 0x4D, 0x00, 0x0C, 0x4B, 0x4C, 0x0C, 0x57, 0x00, 0x81, 0x4C, 0x48, 0x00,
  0x0C, 0x48, 0x61, 0x18, 0x3F, 0x00, 0x18, 0x43, 0x00, 0x0C, 0x43, 0x1F, 0x0C, 0x4A, 0x55, 0x30,
  0x4B, 0x00, 0x0C, 0x4B, 0x5D, 0x0C, 0x43, 0x00, 0x60, 0x4A, 0x00, 0x0C, 0x4B, 0x00, 0x00, 0x4A,
  0x24, 0x0C, 0x4B, 0x60, 0x00, 0x57, 0x62, 0x0C, 0x42, 0x58, 0x00, 0x45, 0x4C, 0x18, 0x4A, 0x00,
  0x0C, 0x4A, 0x4F, 0x30, 0x48, 0x00, 0x18, 0x4A, 0x00, 0x0C, 0x4A, 0x55, 0x0C, 0x57, 0x00, 0x18,
  0x56, 0x68, 0x54, 0x54, 0x6A, 0x0C, 0x48, 0x58, 0x0C, 0x45, 0x00, 0x0C, 0x45, 0x2C, 0x18, 0x56,
  0x00, 0x30, 0x54, 0x00, 0x0C, 0x48, 0x00, 0x0C, 0x45, 0x00, 0x00, 0x48, 0x61, 0x0C, 0x45, 0x1D,
  0x18, 0x54, 0x5A, 0x0C, 0x4B, 0x00, 0x24, 0x54, 0x00, 0x0C, 0x4A, 0x00, 0x00, 0x54, 0x5D, 0x0C,
  0x45, 0x00, 0x18, 0x42, 0x00, 0x00, 0x43, 0x5E, 0x00, 0x47, 0x58, 0x00, 0x4A, 0x51, 0x00, 0x56,
  0x6D, 0x60, 0x54, 0x00, 0x0C, 0x54, 0x3D, 0x81, 0x04, 0x54, 0x00, 0x00, 0x56, 0x00, 0x00, 0x48,
  0x00, 0x0C, 0x53, 0x77, 0x81, 0x64, 0x43, 0x00, 0x0C, 0x4A, 0x00, 0x18, 0x54, 0x77, 0x0C, 0x47,
  0x00, 0x00, 0x3C, 0x5D, 0x00, 0x4B, 0x4F, 0x0C, 0x43, 0x50, 0x6C, 0x43, 0x00, 0x00, 0x53, 0x00,
  0x0C, 0x43, 0x53, 0x00, 0x53, 0x3D, 0x6C, 0x53, 0x00, 0x00, 0x5C, 0x65, 0x0C, 0x4D, 0x56, 0x0C,
  0x54, 0x00, 0x24, 0x4B, 0x00, 0x00, 0x54, 0x1D, 0x0C, 0x4B, 0x50, 0x00, 0x5B, 0x65, 0x30, 0x54,
  0x00, 0x00, 0x43, 0x00, 0x0C, 0x3C, 0x00, 0x00, 0x4B, 0x00, 0x00, 0x43, 0x4A, 0x00, 0x59, 0x5E,
  0x0C, 0x4D, 0x00, 0x00, 0x3C, 0x60, 0x00, 0x4A, 0x57, 0x00, 0x4B, 0x42, 0x0C, 0x4D, 0x4B, 0x18,
  0x5B, 0x00, 0x0C, 0x5C, 0x00, 0x00, 0x5B, 0x41, 0x0C, 0x57, 0x60, 0x18, 0x4B, 0x00, 0x0C, 0x43,
  0x00, 0x00, 0x5B, 0x00, 0x0C, 0x3C, 0x00, 0x00, 0x43, 0x50, 0x0C, 0x3C, 0x67, 0x00, 0x5B, 0x5D,
  0x24, 0x4B, 0x4B, 0x24, 0x4D, 0x00, 0x0C, 0x59, 0x00, 0x0C, 0x59, 0x43, 0x0C, 0x57, 0x00, 0x54,
  0x5B, 0x00, 0x18, 0x59, 0x00, 0x78, 0x5B, 0x22, 0x54, 0x5B, 0x00, 0x3C, 0x4A, 0x00, 0x0C, 0x43,
  0x00, 0x18, 0x4B, 0x00, 0x0C, 0x48, 0x63, 0x00, 0x4B, 0x4F, 0x00, 0x4F, 0x4E, 0x54, 0x3C, 0x00,
  0x18, 0x48, 0x00, 0x0C, 0x48, 0x6A, 0x81, 0x04, 0x4A, 0x54, 0x00, 0x4D, 0x52, 0x48, 0x4B, 0x00,
  0x18, 0x4F, 0x00, 0x18, 0x48, 0x00, 0x0C, 0x48, 0x6D, 0x3C, 0x5B, 0x63, 0x3C, 0x5B, 0x00, 0x00,
  0x60, 0x65, 0x0C, 0x4B, 0x51, 0x00, 0x4F, 0x52, 0x6C, 0x4A, 0x00, 0x0C, 0x5B, 0x5B, 0x24, 0x60,
  0x00, 0x0C, 0x60, 0x31, 0x30, 0x60, 0x00, 0x00, 0x4D, 0x00, 0x18, 0x5B, 0x00, 0x0C, 0x4F, 0x00,
  0x00, 0x4D, 0x59, 0x00, 0x50, 0x52, 0x0C, 0x4F, 0x2A, 0x0C, 0x59, 0x58, 0x30, 0x5B, 0x30, 0x18,
  0x4F, 0x00, 0x18, 0x5B, 0x00, 0x0C, 0x57, 0x61, 0x18, 0x59, 0x00, 0x0C, 0x59, 0x21, 0x30, 0x59,
  0x00, 0x00, 0x4B, 0x00, 0x18, 0x48, 0x00, 0x0C, 0x4D, 0x00, 0x0C, 0x46, 0x5D, 0x00, 0x4A, 0x57,
  0x00, 0x4D, 0x48, 0x60, 0x50, 0x00, 0x00, 0x57, 0x00, 0x0C, 0x46, 0x00, 0x0C, 0x46, 0x60, 0x81,
  0x10, 0x4D, 0x00, 0x00, 0x48, 0x53, 0x00, 0x4B, 0x50, 0x0C, 0x4D, 0x1D, 0x54, 0x4D, 0x00, 0x00,
  0x4A, 0x00, 0x0C, 0x46, 0x00, 0x00, 0x4A, 0x2D, 0x0C, 0x46, 0x5B, 0x24, 0x52, 0x50, 0x18, 0x59,
  0x64, 0x18, 0x4A, 0x00, 0x30, 0x52, 0x00, 0x00, 0x59, 0x00, 0x00, 0x4A, 0x53, 0x00, 0x4D, 0x56,
  0x0C, 0x59, 0x44, 0x00, 0x5E, 0x61, 0x48, 0x59, 0x00, 0x0C, 0x4B, 0x00, 0x18, 0x59, 0x62, 0x3C,
  0x5E, 0x00, 0x18, 0x48, 0x00, 0x30, 0x4F, 0x59, 0x0C, 0x46, 0x00, 0x00, 0x59, 0x00, 0x00, 0x4B,
  0x52, 0x0C, 0x46, 0x28, 0x00, 0x57, 0x58, 0x00, 0x59, 0x38, 0x30, 0x59, 0x00, 0x18, 0x4A, 0x00,
  0x0C, 0x4D, 0x00, 0x00, 0x59, 0x37, 0x18, 0x56, 0x68, 0x24, 0x59, 0x00, 0x0C, 0x57, 0x00, 0x30,
  0x46, 0x00, 0x24, 0x4B, 0x00, 0x00, 0x48, 0x54, 0x0C, 0x44, 0x5F, 0x00, 0x4B, 0x4B, 0x6C, 0x44,
  0x00, 0x0C, 0x44, 0x66, 0x18, 0x56, 0x00, 0x00, 0x4F, 0x00, 0x0C, 0x56, 0x24, 0x30, 0x56, 0x00,
  0x30, 0x46, 0x4C, 0x00, 0x4A, 0x51, 0x48, 0x4B, 0x00, 0x18, 0x48, 0x00, 0x0C, 0x48, 0x33, 0x0C,
  0x44, 0x00, 0x0C, 0x44, 0x66, 0x18, 0x48, 0x00, 0x18, 0x57, 0x5F, 0x48, 0x4B, 0x52, 0x00, 0x5C,
  0x62, 0x0C, 0x48, 0x51, 0x18, 0x57, 0x00, 0x48, 0x4A, 0x00, 0x0C, 0x5B, 0x67, 0x18, 0x46, 0x00,
  0x3C, 0x5C, 0x00, 0x0C, 0x5C, 0x23, 0x0C, 0x4B, 0x00, 0x0C, 0x4B, 0x38, 0x18, 0x4A, 0x54, 0x00,
  0x4D, 0x56, 0x0C, 0x5C, 0x00, 0x0C, 0x5C, 0x2D, 0x30, 0x4B, 0x00, 0x00, 0x59, 0x4D, 0x24, 0x5B,
  0x00, 0x00, 0x5C, 0x00, 0x0C, 0x57, 0x62, 0x18, 0x59, 0x00, 0x54, 0x44, 0x00, 0x18, 0x48, 0x00,
  0x00, 0x5B, 0x64, 0x0C, 0x43, 0x5E, 0x00, 0x48, 0x50, 0x0C, 0x59, 0x35, 0x24, 0x4D, 0x00, 0x24,
  0x59, 0x00, 0x0C, 0x43, 0x00, 0x00, 0x4A, 0x00, 0x0C, 0x57, 0x00, 0x00, 0x5B, 0x00, 0x00, 0x4A,
  0x1F, 0x0C, 0x57, 0x28, 0x00, 0x5B, 0x4A, 0x0C, 0x43, 0x5C, 0x3C, 0x4A, 0x00, 0x18, 0x57, 0x00,
  0x0C, 0x5B, 0x00, 0x18, 0x4D, 0x56, 0x18, 0x59, 0x54, 0x60, 0x43, 0x00, 0x0C, 0x43, 0x62, 0x00,
  0x4B, 0x53, 0x18, 0x57, 0x51, 0x0C, 0x59, 0x00, 0x0C, 0x59, 0x2A, 0x30, 0x59, 0x00, 0x00, 0x48,
  0x00, 0x0C, 0x48, 0x2B, 0x00, 0x59, 0x2A, 0x18, 0x4D, 0x00, 0x00, 0x47, 0x53, 0x00, 0x4A, 0x55,
  0x0C, 0x4D, 0x25, 0x00, 0x56, 0x59, 0x0C, 0x48, 0x00, 0x00, 0x59, 0x00, 0x48, 0x4D, 0x00, 0x00,
  0x57, 0x00, 0x0C, 0x4D, 0x26, 0x0C, 0x4B, 0x00, 0x00, 0x53, 0x63, 0x24, 0x56, 0x00, 0x00, 0x4D,
  0x00, 0x54, 0x4A, 0x00, 0x00, 0x53, 0x00, 0x0C, 0x4A, 0x5A, 0x00, 0x53, 0x66, 0x24, 0x56, 0x56,
  0x6C, 0x5F, 0x4E, 0x0C, 0x56, 0x00, 0x3C, 0x43, 0x00, 0x00, 0x47, 0x00, 0x0C, 0x5F, 0x00, 0x18,
  0x56, 0x24, 0x0C, 0x48, 0x62, 0x00, 0x4B, 0x52, 0x00, 0x4F, 0x50, 0x60, 0x56, 0x00, 0x00, 0x4A,
  0x00, 0x0C, 0x48, 0x00, 0x00, 0x53, 0x00, 0x0C, 0x48, 0x66, 0x30, 0x53, 0x0D, 0x3C, 0x53, 0x00,
  0x18, 0x4D, 0x57, 0x0C, 0x4A, 0x55, 0x60, 0x4B, 0x00, 0x00, 0x4F, 0x00, 0x0C, 0x4B, 0x22, 0x0C,
  0x54, 0x58, 0x3C, 0x5B, 0x60, 0x0C, 0x4B, 0x00, 0x30, 0x60, 0x60, 0x0C, 0x5B, 0x00, 0x00, 0x4B,
  0x53, 0x00, 0x4F, 0x53, 0x48, 0x54, 0x00, 0x00, 0x4D, 0x00, 0x24, 0x4A, 0x00, 0x0C, 0x5B, 0x5F,
  0x24, 0x60, 0x00, 0x54, 0x4F, 0x00, 0x00, 0x5B, 0x00, 0x0C, 0x4B, 0x00, 0x00, 0x4F, 0x50, 0x00,
  0x54, 0x4E, 0x00, 0x59, 0x67, 0x0C, 0x4B, 0x2C, 0x78, 0x57, 0x64, 0x18, 0x4B, 0x00, 0x30, 0x48,
  0x00, 0x0C, 0x59, 0x00, 0x30, 0x46, 0x5D, 0x00, 0x4A, 0x56, 0x00, 0x4D, 0x56, 0x30, 0x54, 0x00,
  0x30, 0x57, 0x00, 0x18, 0x46, 0x00, 0x0C, 0x46, 0x5A, 0x00, 0x57, 0x18, 0x24, 0x4F, 0x00, 0x18,
  0x57, 0x00, 0x48, 0x48, 0x53, 0x00, 0x4B, 0x51, 0x60, 0x4A, 0x00, 0x18, 0x52, 0x5D, 0x3C, 0x59,
  0x65, 0x3C, 0x4D, 0x00, 0x0C, 0x4A, 0x53, 0x00, 0x4D, 0x54, 0x00, 0x5E, 0x5C, 0x3C, 0x59, 0x00,
  0x24, 0x4B, 0x00, 0x24, 0x52, 0x00, 0x18, 0x59, 0x5F, 0x18, 0x5E, 0x00, 0x24, 0x48, 0x00, 0x0C,
  0x46, 0x00, 0x18, 0x4A, 0x00, 0x00, 0x52, 0x4F, 0x00, 0x57, 0x62, 0x0C, 0x4A, 0x56, 0x60, 0x4D,
  0x00, 0x0C, 0x4D, 0x1B, 0x0C, 0x56, 0x5E, 0x18, 0x59, 0x00, 0x48, 0x4D, 0x00, 0x0C, 0x57, 0x00,
  0x00, 0x56, 0x00, 0x0C, 0x56, 0x59, 0x0C, 0x48, 0x53, 0x0C, 0x4A, 0x00, 0x00, 0x52, 0x00, 0x00,
  0x44, 0x5D, 0x00, 0x4B, 0x51, 0x0C, 0x4A, 0x32, 0x00, 0x52, 0x19, 0x48, 0x4A, 0x00, 0x18, 0x44,
  0x00, 0x00, 0x52, 0x00, 0x0C, 0x44, 0x67, 0x60, 0x56, 0x00, 0x24, 0x46, 0x4D, 0x00, 0x4A, 0x56,
  0x3C, 0x4B, 0x00, 0x24, 0x48, 0x00, 0x48, 0x50, 0x60, 0x18, 0x57, 0x62, 0x3C, 0x46, 0x00, 0x0C,
  0x46, 0x26, 0x00, 0x48, 0x56, 0x00, 0x4B, 0x50, 0x24, 0x57, 0x00, 0x00, 0x5C, 0x5B, 0x24, 0x50,
  0x00, 0x30, 0x4A, 0x00, 0x00, 0x5B, 0x65, 0x0C, 0x46, 0x00, 0x0C, 0x5C, 0x00, 0x0C, 0x5C, 0x3C,
  0x48, 0x5C, 0x00, 0x0C, 0x48, 0x00, 0x0C, 0x44, 0x00, 0x00, 0x5B, 0x00, 0x00, 0x48, 0x5D, 0x00,
  0x50, 0x4D, 0x00, 0x59, 0x66, 0x78, 0x4B, 0x00, 0x00, 0x57, 0x64, 0x3C, 0x50, 0x00, 0x0C, 0x50,
  0x36, 0x24, 0x48, 0x00, 0x0C, 0x50, 0x00, 0x0C, 0x5B, 0x60, 0x0C, 0x43, 0x5D, 0x00, 0x4A, 0x52,
  0x18, 0x48, 0x49, 0x00, 0x50, 0x21, 0x24, 0x59, 0x00, 0x30, 0x50, 0x00, 0x0C, 0x54, 0x5D, 0x18,
  0x57, 0x00, 0x24, 0x5B, 0x00, 0x0C, 0x59, 0x12, 0x30, 0x59, 0x00, 0x00, 0x54, 0x00, 0x0C, 0x54,
  0x68, 0x81, 0x10, 0x5B, 0x65, 0x60, 0x48, 0x00, 0x0C, 0x4A, 0x00, 0x18, 0x47, 0x56, 0x18, 0x43,
  0x00, 0x00, 0x59, 0x67, 0x0C, 0x54, 0x00, 0x00, 0x43, 0x5D, 0x00, 0x4A, 0x52, 0x18, 0x5B, 0x00,
  0x24, 0x59, 0x00, 0x0C, 0x59, 0x65, 0x54, 0x53, 0x5B, 0x78, 0x53, 0x00, 0x3C, 0x59, 0x00, 0x0C,
  0x59, 0x25, 0x18, 0x53, 0x64, 0x54, 0x59, 0x00, 0x30, 0x47, 0x00, 0x18, 0x5B, 0x67, 0x60, 0x4A,
  0x00, 0x00, 0x53, 0x00, 0x18, 0x59, 0x67, 0x30, 0x5B, 0x00, 0x0C, 0x5B, 0x42, 0x0C, 0x43, 0x00,
  0x24, 0x5B, 0x00, 0x0C, 0x57, 0x63, 0x0C, 0x3C, 0x5D, 0x30, 0x4B, 0x52, 0x30, 0x4F, 0x50, 0x18,
  0x56, 0x67, 0x0C, 0x57, 0x00, 0x0C, 0x54, 0x51, 0x60, 0x59, 0x00, 0x18, 0x57, 0x5E, 0x81, 0x1C,
  0x56, 0x00, 0x0C, 0x56, 0x2B, 0x24, 0x54, 0x00, 0x48, 0x57, 0x00, 0x30, 0x56, 0x00, 0x48, 0x4B,
  0x00, 0x0C, 0x4F, 0x00, 0x6C, 0x57, 0x04, 0x3C, 0x57, 0x00, 0x81, 0x04, 0x3C, 0x00, 0x00, 0xFF,
  0x2F, 0x00
};

static const uint8_t  Jay[]  PROGMEM = {
  0x4D, 0x54, 0x68, 0x64, 0x00, 0x00, 0x00, 0x06, 0x00, 0x00, 0x00, 0x01, 0x00, 0x78, 0x4D, 0x54,
  0x72, 0x6B, 0x00, 0x00, 0x15, 0x09, 0x00, 0xFF, 0x03, 0x0C, 0x51, 0x69, 0x20, 0x4C, 0x69, 0x20,
  0x58, 0x69, 0x61, 0x6E, 0x67, 0x20, 0x00, 0xFF, 0x02, 0x03, 0x50, 0x4E, 0x45, 0x00, 0xFF, 0x58,
  0x04, 0x04, 0x02, 0x18, 0x08, 0x00, 0xFF, 0x59, 0x02, 0x00, 0x00, 0x00, 0xFF, 0x51, 0x03, 0x0C,
  0xE5, 0x0E, 0x00, 0xC0, 0x41, 0x00, 0xB0, 0x07, 0x78, 0x00, 0x0A, 0x40, 0x00, 0xC1, 0x21, 0x00,
  0xB1, 0x07, 0x78, 0x00, 0x0A, 0x40, 0x00, 0xC5, 0x00, 0x00, 0xB5, 0x07, 0x64, 0x00, 0x0A, 0x37,
  0x00, 0xC9, 0x00, 0x00, 0xB9, 0x07, 0x78, 0x00, 0x0A, 0x40, 0x04, 0xFF, 0x51, 0x03, 0x0C, 0xE5,
  0x0E, 0x01, 0xFF, 0x51, 0x03, 0x0C, 0xE5, 0x0E, 0x00, 0x91, 0x22, 0x64, 0x00, 0x95, 0x3C, 0x64,
  0x00, 0x99, 0x24, 0x64, 0x00, 0x2A, 0x64, 0x1E, 0x2A, 0x00, 0x00, 0x24, 0x00, 0x00, 0x28, 0x64,
  0x1E, 0x28, 0x00, 0x00, 0x90, 0x46, 0x64, 0x00, 0x99, 0x2A, 0x52, 0x00, 0x28, 0x64, 0x1E, 0x28,
  0x00, 0x00, 0x2A, 0x00, 0x00, 0x28, 0x64, 0x1E, 0x28, 0x00, 0x00, 0x90, 0x46, 0x00, 0x00, 0x95,
  0x3C, 0x00, 0x00, 0x91, 0x22, 0x00, 0x00, 0x90, 0x4B, 0x64, 0x00, 0x91, 0x24, 0x64, 0x00, 0x95,
  0x3F, 0x64, 0x00, 0x99, 0x31, 0x64, 0x00, 0x24, 0x64, 0x00, 0x2A, 0x64, 0x1E, 0x2A, 0x00, 0x00,
  0x31, 0x00, 0x00, 0x24, 0x00, 0x1E, 0x95, 0x3F, 0x00, 0x00, 0x3C, 0x64, 0x00, 0x99, 0x2A, 0x52,
  0x1E, 0x2A, 0x00, 0x00, 0x24, 0x64, 0x1E, 0x24, 0x00, 0x00, 0x95, 0x3C, 0x00, 0x00, 0x90, 0x4B,
  0x00, 0x00, 0x4A, 0x64, 0x00, 0x95, 0x3F, 0x64, 0x00, 0x99, 0x28, 0x64, 0x00, 0x2A, 0x64, 0x1E,
  0x2A, 0x00, 0x00, 0x91, 0x24, 0x00, 0x00, 0x99, 0x28, 0x00, 0x1E, 0x95, 0x3F, 0x00, 0x00, 0x90,
  0x4A, 0x00, 0x00, 0x4B, 0x64, 0x00, 0x91, 0x1F, 0x64, 0x00, 0x95, 0x3C, 0x64, 0x00, 0x99, 0x24,
  0x64, 0x00, 0x2A, 0x52, 0x1A, 0x90, 0x4B, 0x00, 0x04, 0x99, 0x24, 0x00, 0x00, 0x2A, 0x00, 0x00,
  0x90, 0x4B, 0x64, 0x1E, 0x95, 0x3C, 0x00, 0x00, 0x91, 0x1F, 0x00, 0x00, 0x20, 0x64, 0x00, 0x95,
  0x3F, 0x64, 0x00, 0x99, 0x2A, 0x64, 0x00, 0x24, 0x64, 0x1E, 0x24, 0x00, 0x00, 0x2A, 0x00, 0x1E,
  0x95, 0x3F, 0x00, 0x00, 0x3C, 0x64, 0x00, 0x99, 0x2A, 0x52, 0x1E, 0x2A, 0x00, 0x00, 0x90, 0x4B,
  0x00, 0x1E, 0x95, 0x3C, 0x00, 0x00, 0x3F, 0x64, 0x00, 0x99, 0x28, 0x64, 0x00, 0x2A, 0x64, 0x1E,
  0x2A, 0x00, 0x00, 0x28, 0x00, 0x1E, 0x95, 0x3F, 0x00, 0x00, 0x90, 0x4B, 0x64, 0x00, 0x95, 0x3C,
  0x64, 0x00, 0x99, 0x24, 0x64, 0x00, 0x2A, 0x52, 0x1E, 0x2A, 0x00, 0x00, 0x91, 0x20, 0x00, 0x00,
  0x99, 0x24, 0x00, 0x00, 0x28, 0x64, 0x15, 0x90, 0x4B, 0x00, 0x09, 0x99, 0x28, 0x00, 0x00, 0x95,
  0x3C, 0x00, 0x00, 0x90, 0x4B, 0x64, 0x00, 0x91, 0x22, 0x64, 0x00, 0x95, 0x3E, 0x64, 0x00, 0x99,
  0x2A, 0x64, 0x00, 0x24, 0x64, 0x1E, 0x24, 0x00, 0x00, 0x2A, 0x00, 0x1E, 0x95, 0x3E, 0x00, 0x00,
  0x90, 0x4B, 0x00, 0x00, 0x4A, 0x64, 0x00, 0x95, 0x3A, 0x64, 0x00, 0x99, 0x2A, 0x52, 0x1E, 0x2A,
  0x00, 0x00, 0x24, 0x64, 0x1E, 0x24, 0x00, 0x00, 0x95, 0x3A, 0x00, 0x00, 0x90, 0x4A, 0x00, 0x00,
  0x48, 0x64, 0x00, 0x95, 0x3E, 0x64, 0x00, 0x99, 0x2A, 0x64, 0x00, 0x28, 0x64, 0x1E, 0x28, 0x00,
  0x00, 0x2A, 0x00, 0x0F, 0x91, 0x22, 0x00, 0x0F, 0x95, 0x3E, 0x00, 0x00, 0x90, 0x48, 0x00, 0x00,
  0x4A, 0x64, 0x00, 0x91, 0x22, 0x64, 0x00, 0x95, 0x3A, 0x64, 0x00, 0x99, 0x2A, 0x52, 0x00, 0x24,
  0x64, 0x1E, 0x24, 0x00, 0x00, 0x91, 0x22, 0x00, 0x00, 0x90, 0x4A, 0x00, 0x00, 0x99, 0x2A, 0x00,
  0x00, 0x90, 0x48, 0x64, 0x00, 0x91, 0x24, 0x64, 0x1E, 0x24, 0x00, 0x00, 0x95, 0x3A, 0x00, 0x00,
  0x91, 0x27, 0x64, 0x00, 0x95, 0x3F, 0x64, 0x00, 0x99, 0x24, 0x64, 0x00, 0x2A, 0x64, 0x1E, 0x2A,
  0x00, 0x00, 0x90, 0x48, 0x00, 0x00, 0x99, 0x24, 0x00, 0x00, 0x90, 0x46, 0x64, 0x00, 0x99, 0x28,
  0x64, 0x0F, 0x91, 0x27, 0x00, 0x0F, 0x95, 0x3F, 0x00, 0x00, 0x99, 0x28, 0x00, 0x00, 0x91, 0x27,
  0x64, 0x00, 0x95, 0x3A, 0x64, 0x00, 0x99, 0x2A, 0x52, 0x1E, 0x2A, 0x00, 0x00, 0x90, 0x46, 0x00,
  0x1E, 0x95, 0x3A, 0x00, 0x00, 0x91, 0x27, 0x00, 0x00, 0x26, 0x64, 0x00, 0x95, 0x3E, 0x64, 0x00,
  0x99, 0x2A, 0x64, 0x00, 0x28, 0x64, 0x1E, 0x28, 0x00, 0x00, 0x2A, 0x00, 0x1E, 0x95, 0x3E, 0x00,
  0x00, 0x90, 0x46, 0x64, 0x00, 0x95, 0x3F, 0x64, 0x00, 0x99, 0x2A, 0x52, 0x00, 0x24, 0x64, 0x1E,
  0x24, 0x00, 0x00, 0x2A, 0x00, 0x00, 0x28, 0x64, 0x0F, 0x91, 0x26, 0x00, 0x06, 0x90, 0x46, 0x00,
  0x09, 0x95, 0x3F, 0x00, 0x00, 0x99, 0x28, 0x00, 0x00, 0x90, 0x46, 0x64, 0x00, 0x91, 0x24, 0x64,
  0x00, 0x95, 0x3F, 0x64, 0x00, 0x99, 0x24, 0x64, 0x00, 0x2A, 0x64, 0x1E, 0x2A, 0x00, 0x00, 0x24,
  0x00, 0x1E, 0x95, 0x3F, 0x00, 0x00, 0x3C, 0x64, 0x00, 0x99, 0x2A, 0x52, 0x1E, 0x2A, 0x00, 0x00,
  0x24, 0x64, 0x1E, 0x24, 0x00, 0x00, 0x95, 0x3C, 0x00, 0x00, 0x90, 0x46, 0x00, 0x00, 0x44, 0x64,
  0x00, 0x95, 0x3F, 0x64, 0x00, 0x99, 0x2A, 0x64, 0x00, 0x28, 0x64, 0x1E, 0x28, 0x00, 0x00, 0x91,
  0x24, 0x00, 0x00, 0x99, 0x2A, 0x00, 0x1E, 0x95, 0x3F, 0x00, 0x00, 0x90, 0x44, 0x00, 0x00, 0x43,
  0x64, 0x00, 0x91, 0x1F, 0x64, 0x00, 0x95, 0x3C, 0x64, 0x00, 0x99, 0x2A, 0x52, 0x00, 0x24, 0x64,
  0x1E, 0x24, 0x00, 0x00, 0x90, 0x43, 0x00, 0x00, 0x99, 0x2A, 0x00, 0x00, 0x90, 0x46, 0x64, 0x0F,
  0x91, 0x1F, 0x00, 0x0F, 0x95, 0x3C, 0x00, 0x00, 0x91, 0x20, 0x64, 0x00, 0x95, 0x3F, 0x64, 0x00,
  0x99, 0x24, 0x64, 0x00, 0x2A, 0x64, 0x1E, 0x2A, 0x00, 0x00, 0x24, 0x00, 0x1E, 0x95, 0x3F, 0x00,
  0x00, 0x3C, 0x64, 0x00, 0x99, 0x2A, 0x52, 0x0F, 0x90, 0x46, 0x00, 0x0F, 0x99, 0x2A, 0x00, 0x1E,
  0x95, 0x3C, 0x00, 0x00, 0x3F, 0x64, 0x00, 0x99, 0x28, 0x64, 0x00, 0x2A, 0x64, 0x1E, 0x2A, 0x00,
  0x00, 0x28, 0x00, 0x0F, 0x91, 0x20, 0x00, 0x0F, 0x95, 0x3F, 0x00, 0x00, 0x90, 0x46, 0x64, 0x00,
  0x91, 0x20, 0x64, 0x00, 0x95, 0x3C, 0x64, 0x00, 0x99, 0x24, 0x64, 0x00, 0x2A, 0x52, 0x1E, 0x2A,
  0x00, 0x00, 0x24, 0x00, 0x0F, 0x91, 0x20, 0x00, 0x06, 0x90, 0x46, 0x00, 0x09, 0x95, 0x3C, 0x00,
  0x00, 0x90, 0x46, 0x64, 0x00, 0x91, 0x22, 0x64, 0x00, 0x95, 0x3E, 0x64, 0x00, 0x99, 0x24, 0x64,
  0x00, 0x2A, 0x64, 0x1E, 0x2A, 0x00, 0x00, 0x24, 0x00, 0x1E, 0x95, 0x3E, 0x00, 0x00, 0x90, 0x46,
  0x00, 0x00, 0x48, 0x64, 0x00, 0x95, 0x3A, 0x64, 0x00, 0x99, 0x2A, 0x52, 0x1E, 0x2A, 0x00, 0x00,
  0x24, 0x64, 0x1E, 0x24, 0x00, 0x00, 0x95, 0x3A, 0x00, 0x00, 0x90, 0x48, 0x00, 0x00, 0x41, 0x64,
  0x00, 0x95, 0x3E, 0x64, 0x00, 0x99, 0x28, 0x64, 0x00, 0x2A, 0x64, 0x0F, 0x91, 0x22, 0x00, 0x0F,
  0x99, 0x28, 0x00, 0x00, 0x2A, 0x00, 0x1E, 0x95, 0x3E, 0x00, 0x00, 0x90, 0x41, 0x00, 0x00, 0x44,
  0x64, 0x00, 0x91, 0x22, 0x64, 0x00, 0x95, 0x3A, 0x64, 0x00, 0x99, 0x24, 0x64, 0x00, 0x2A, 0x52,
  0x1A, 0x90, 0x44, 0x00, 0x04, 0x99, 0x24, 0x00, 0x00, 0x91, 0x22, 0x00, 0x00, 0x99, 0x2A, 0x00,
  0x00, 0x90, 0x44, 0x64, 0x00, 0x91, 0x24, 0x64, 0x1E, 0x24, 0x00, 0x00, 0x95, 0x3A, 0x00, 0x00,
  0x91, 0x27, 0x64, 0x00, 0x95, 0x3F, 0x64, 0x00, 0x99, 0x2A, 0x64, 0x00, 0x24, 0x64, 0x1E, 0x24,
  0x00, 0x00, 0x90, 0x44, 0x00, 0x00, 0x99, 0x2A, 0x00, 0x00, 0x90, 0x43, 0x64, 0x00, 0x99, 0x28,
  0x64, 0x0F, 0x91, 0x27, 0x00, 0x0F, 0x95, 0x3F, 0x00, 0x00, 0x99, 0x28, 0x00, 0x00, 0x91, 0x27,
  0x64, 0x00, 0x95, 0x3A, 0x64, 0x00, 0x99, 0x2A, 0x52, 0x1E, 0x2A, 0x00, 0x00, 0x24, 0x64, 0x1E,
  0x24, 0x00, 0x00, 0x95, 0x3A, 0x00, 0x00, 0x91, 0x27, 0x00, 0x00, 0x90, 0x43, 0x00, 0x00, 0x91,
  0x23, 0x64, 0x00, 0x95, 0x3B, 0x64, 0x00, 0x99, 0x28, 0x64, 0x00, 0x2A, 0x64, 0x1E, 0x2A, 0x00,
  0x00, 0x28, 0x00, 0x00, 0x24, 0x64, 0x1E, 0x24, 0x00, 0x00, 0x90, 0x46, 0x64, 0x00, 0x99, 0x2A,
  0x52, 0x00, 0x24, 0x64, 0x1E, 0x24, 0x00, 0x00, 0x2A, 0x00, 0x00, 0x28, 0x64, 0x1E, 0x28, 0x00,
  0x00, 0x90, 0x46, 0x00, 0x00, 0x95, 0x3B, 0x00, 0x00, 0x91, 0x23, 0x00, 0x00, 0x90, 0x4B, 0x64,
  0x00, 0x91, 0x24, 0x64, 0x00, 0x95, 0x3F, 0x64, 0x00, 0x99, 0x31, 0x64, 0x00, 0x24, 0x64, 0x00,
  0x2A, 0x64, 0x1E, 0x2A, 0x00, 0x00, 0x31, 0x00, 0x00, 0x24, 0x00, 0x1E, 0x95, 0x3F, 0x00, 0x00,
  0x3C, 0x64, 0x00, 0x99, 0x2A, 0x52, 0x1E, 0x2A, 0x00, 0x00, 0x24, 0x64, 0x1E, 0x24, 0x00, 0x00,
  0x95, 0x3C, 0x00, 0x00, 0x90, 0x4B, 0x00, 0x00, 0x4A, 0x64, 0x00, 0x95, 0x3F, 0x64, 0x00, 0x99,
  0x28, 0x64, 0x00, 0x2A, 0x64, 0x1E, 0x2A, 0x00, 0x00, 0x91, 0x24, 0x00, 0x00, 0x99, 0x28, 0x00,
  0x1E, 0x95, 0x3F, 0x00, 0x00, 0x90, 0x4A, 0x00, 0x00, 0x4B, 0x64, 0x00, 0x91, 0x1F, 0x64, 0x00,
  0x95, 0x3C, 0x64, 0x00, 0x99, 0x2A, 0x52, 0x00, 0x24, 0x64, 0x1A, 0x90, 0x4B, 0x00, 0x04, 0x99,
  0x2A, 0x00, 0x00, 0x24, 0x00, 0x00, 0x90, 0x4B, 0x64, 0x0F, 0x91, 0x1F, 0x00, 0x0F, 0x95, 0x3C,
  0x00, 0x00, 0x91, 0x20, 0x64, 0x00, 0x95, 0x3F, 0x64, 0x00, 0x99, 0x2A, 0x64, 0x00, 0x24, 0x64,
  0x1E, 0x24, 0x00, 0x00, 0x2A, 0x00, 0x1E, 0x95, 0x3F, 0x00, 0x00, 0x3C, 0x64, 0x00, 0x99, 0x2A,
  0x52, 0x0F, 0x90, 0x4B, 0x00, 0x0F, 0x99, 0x2A, 0x00, 0x1E, 0x95, 0x3C, 0x00, 0x00, 0x3F, 0x64,
  0x00, 0x99, 0x28, 0x64, 0x00, 0x2A, 0x64, 0x1E, 0x2A, 0x00, 0x00, 0x28, 0x00, 0x0F, 0x91, 0x20,
  0x00, 0x0F, 0x95, 0x3F, 0x00, 0x00, 0x90, 0x4B, 0x64, 0x00, 0x91, 0x20, 0x64, 0x00, 0x95, 0x3C,
  0x64, 0x00, 0x99, 0x2A, 0x52, 0x00, 0x24, 0x64, 0x1E, 0x24, 0x00, 0x00, 0x2A, 0x00, 0x00, 0x28,
  0x64, 0x15, 0x90, 0x4B, 0x00, 0x09, 0x91, 0x20, 0x00, 0x00, 0x95, 0x3C, 0x00, 0x00, 0x99, 0x28,
  0x00, 0x00, 0x90, 0x4B, 0x64, 0x00, 0x91, 0x22, 0x64, 0x00, 0x95, 0x3E, 0x64, 0x00, 0x99, 0x31,
  0x64, 0x00, 0x24, 0x64, 0x00, 0x2A, 0x64, 0x1E, 0x2A, 0x00, 0x00, 0x31, 0x00, 0x00, 0x24, 0x00,
  0x1E, 0x90, 0x4B, 0x00, 0x00, 0x95, 0x3E, 0x00, 0x00, 0x90, 0x4A, 0x64, 0x00, 0x95, 0x3A, 0x64,
  0x00, 0x99, 0x2A, 0x52, 0x1E, 0x2A, 0x00, 0x00, 0x24, 0x64, 0x1E, 0x24, 0x00, 0x00, 0x95, 0x3A,
  0x00, 0x00, 0x90, 0x4A, 0x00, 0x00, 0x4B, 0x64, 0x00, 0x95, 0x3E, 0x64, 0x00, 0x99, 0x28, 0x64,
  0x00, 0x2A, 0x64, 0x1E, 0x2A, 0x00, 0x00, 0x28, 0x00, 0x0F, 0x91, 0x22, 0x00, 0x0F, 0x95, 0x3E,
  0x00, 0x00, 0x90, 0x4B, 0x00, 0x00, 0x4D, 0x64, 0x00, 0x91, 0x22, 0x64, 0x00, 0x95, 0x3A, 0x64,
  0x00, 0x99, 0x24, 0x64, 0x00, 0x2A, 0x52, 0x1A, 0x90, 0x4D, 0x00, 0x04, 0x99, 0x24, 0x00, 0x00,
  0x2A, 0x00, 0x00, 0x90, 0x4D, 0x64, 0x1E, 0x95, 0x3A, 0x00, 0x00, 0x91, 0x22, 0x00, 0x00, 0x27,
  0x64, 0x00, 0x95, 0x3F, 0x64, 0x00, 0x99, 0x2A, 0x64, 0x00, 0x24, 0x64, 0x1E, 0x24, 0x00, 0x00,
  0x90, 0x4D, 0x00, 0x00, 0x99, 0x2A, 0x00, 0x00, 0x90, 0x4B, 0x64, 0x00, 0x99, 0x28, 0x64, 0x1E,
  0x28, 0x00, 0x00, 0x95, 0x3F, 0x00, 0x00, 0x3A, 0x64, 0x00, 0x99, 0x2A, 0x52, 0x0F, 0x90, 0x4B,
  0x00, 0x0F, 0x99, 0x2A, 0x00, 0x00, 0x90, 0x46, 0x64, 0x1E, 0x46, 0x00, 0x00, 0x95, 0x3A, 0x00,
  0x00, 0x91, 0x27, 0x00, 0x00, 0x90, 0x4B, 0x64, 0x00, 0x91, 0x23, 0x64, 0x00, 0x95, 0x3E, 0x64,
  0x00, 0x99, 0x28, 0x64, 0x00, 0x2A, 0x64, 0x1E, 0x2A, 0x00, 0x00, 0x28, 0x00, 0x00, 0x28, 0x64,
  0x1E, 0x28, 0x00, 0x00, 0x95, 0x3E, 0x00, 0x00, 0x90, 0x4B, 0x00, 0x00, 0x4A, 0x64, 0x00, 0x95,
  0x3F, 0x64, 0x00, 0x99, 0x2A, 0x52, 0x00, 0x24, 0x64, 0x1E, 0x24, 0x00, 0x00, 0x2A, 0x00, 0x00,
  0x28, 0x64, 0x1E, 0x28, 0x00, 0x00, 0x95, 0x3F, 0x00, 0x00, 0x90, 0x4A, 0x00, 0x00, 0x91, 0x23,
  0x00, 0x00, 0x90, 0x4B, 0x64, 0x00, 0x91, 0x24, 0x64, 0x00, 0x95, 0x3F, 0x64, 0x00, 0x99, 0x31,
  0x64, 0x00, 0x24, 0x64, 0x00, 0x2A, 0x64, 0x1E, 0x2A, 0x00, 0x00, 0x31, 0x00, 0x00, 0x24, 0x00,
  0x0F, 0x90, 0x4B, 0x00, 0x0F, 0x95, 0x3F, 0x00, 0x00, 0x90, 0x4B, 0x64, 0x00, 0x95, 0x3C, 0x64,
  0x00, 0x99, 0x2A, 0x52, 0x1A, 0x90, 0x4B, 0x00, 0x04, 0x99, 0x2A, 0x00, 0x00, 0x90, 0x4B, 0x64,
  0x00, 0x99, 0x24, 0x64, 0x1E, 0x24, 0x00, 0x00, 0x95, 0x3C, 0x00, 0x00, 0x3F, 0x64, 0x00, 0x99,
  0x2A, 0x64, 0x00, 0x28, 0x64, 0x1E, 0x28, 0x00, 0x00, 0x2A, 0x00, 0x0F, 0x91, 0x24, 0x00, 0x00,
  0x90, 0x4B, 0x00, 0x0F, 0x95, 0x3F, 0x00, 0x00, 0x90, 0x4A, 0x64, 0x00, 0x91, 0x1F, 0x64, 0x00,
  0x95, 0x3C, 0x64, 0x00, 0x99, 0x2A, 0x52, 0x00, 0x24, 0x64, 0x1A, 0x90, 0x4A, 0x00, 0x04, 0x99,
  0x2A, 0x00, 0x00, 0x24, 0x00, 0x00, 0x90, 0x4A, 0x64, 0x0F, 0x91, 0x1F, 0x00, 0x0F, 0x95, 0x3C,
  0x00, 0x00, 0x91, 0x20, 0x64, 0x00, 0x95, 0x38, 0x64, 0x00, 0x3C, 0x64, 0x00, 0x99, 0x2A, 0x64,
  0x00, 0x24, 0x64, 0x1E, 0x24, 0x00, 0x00, 0x90, 0x4A, 0x00, 0x00, 0x99, 0x2A, 0x00, 0x00, 0x90,
  0x48, 0x64, 0x1E, 0x95, 0x38, 0x00, 0x00, 0x3C, 0x00, 0x00, 0x3F, 0x64, 0x00, 0x99, 0x2A, 0x52,
  0x1E, 0x2A, 0x00, 0x00, 0x90, 0x48, 0x00, 0x1E, 0x95, 0x3F, 0x00, 0x00, 0x90, 0x48, 0x64, 0x00,
  0x95, 0x3C, 0x64, 0x00, 0x3F, 0x64, 0x00, 0x99, 0x28, 0x64, 0x00, 0x2A, 0x64, 0x1E, 0x2A, 0x00,
  0x00, 0x28, 0x00, 0x0F, 0x91, 0x20, 0x00, 0x0F, 0x90, 0x48, 0x00, 0x00, 0x95, 0x3C, 0x00, 0x00,
  0x3F, 0x00, 0x00, 0x90, 0x4A, 0x64, 0x00, 0x91, 0x20, 0x64, 0x00, 0x95, 0x3E, 0x64, 0x00, 0x99,
  0x2A, 0x52, 0x00, 0x24, 0x64, 0x1E, 0x24, 0x00, 0x00, 0x90, 0x4A, 0x00, 0x00, 0x99, 0x2A, 0x00,
  0x00, 0x90, 0x48, 0x64, 0x00, 0x99, 0x28, 0x64, 0x0F, 0x91, 0x20, 0x00, 0x0F, 0x95, 0x3E, 0x00,
  0x00, 0x99, 0x28, 0x00, 0x00, 0x91, 0x22, 0x64, 0x00, 0x95, 0x3E, 0x64, 0x00, 0x99, 0x31, 0x64,
  0x00, 0x24, 0x64, 0x00, 0x2A, 0x64, 0x1E, 0x2A, 0x00, 0x00, 0x31, 0x00, 0x00, 0x90, 0x48, 0x00,
  0x00, 0x99, 0x24, 0x00, 0x00, 0x90, 0x46, 0x64, 0x1E, 0x95, 0x3E, 0x00, 0x00, 0x3A, 0x64, 0x00,
  0x99, 0x2A, 0x52, 0x1E, 0x2A, 0x00, 0x00, 0x24, 0x64, 0x1E, 0x24, 0x00, 0x00, 0x95, 0x3A, 0x00,
  0x00, 0x3E, 0x64, 0x00, 0x99, 0x2A, 0x64, 0x00, 0x28, 0x64, 0x1E, 0x28, 0x00, 0x00, 0x91, 0x22,
  0x00, 0x00, 0x99, 0x2A, 0x00, 0x00, 0x28, 0x64, 0x1E, 0x28, 0x00, 0x00, 0x95, 0x3E, 0x00, 0x00,
  0x90, 0x46, 0x00, 0x00, 0x91, 0x22, 0x64, 0x00, 0x95, 0x3A, 0x64, 0x00, 0x99, 0x2A, 0x52, 0x00,
  0x24, 0x64, 0x1E, 0x24, 0x00, 0x00, 0x2A, 0x00, 0x0F, 0x91, 0x22, 0x00, 0x0F, 0x95, 0x3A, 0x00,
  0x00, 0x91, 0x22, 0x64, 0x00, 0x95, 0x3E, 0x64, 0x00, 0x99, 0x24, 0x64, 0x00, 0x2A, 0x64, 0x1E,
  0x2A, 0x00, 0x00, 0x24, 0x00, 0x00, 0x28, 0x64, 0x0F, 0x91, 0x22, 0x00, 0x0F, 0x99, 0x28, 0x00,
  0x00, 0x95, 0x3E, 0x00, 0x00, 0x91, 0x22, 0x64, 0x00, 0x95, 0x3A, 0x64, 0x00, 0x99, 0x28, 0x64,
  0x00, 0x2A, 0x52, 0x1E, 0x2A, 0x00, 0x00, 0x28, 0x00, 0x00, 0x24, 0x64, 0x0F, 0x91, 0x22, 0x00,
  0x0F, 0xFF, 0x51, 0x03, 0x0C, 0xE5, 0x0E, 0x00, 0x99, 0x24, 0x00, 0x00, 0x95, 0x3A, 0x00, 0x00,
  0x90, 0x46, 0x78, 0x00, 0x91, 0x23, 0x64, 0x00, 0x95, 0x3F, 0x64, 0x00, 0x99, 0x24, 0x64, 0x1E,
  0x24, 0x00, 0x1E, 0x90, 0x46, 0x00, 0x00, 0x4B, 0x78, 0x00, 0x99, 0x28, 0x64, 0x1E, 0x28, 0x00,
  0x00, 0x28, 0x64, 0x18, 0x90, 0x4B, 0x00, 0x06, 0x91, 0x23, 0x00, 0x00, 0x95, 0x3F, 0x00, 0x00,
  0x99, 0x28, 0x00, 0x00, 0x90, 0x4B, 0x78, 0x00, 0x91, 0x24, 0x64, 0x00, 0x95, 0x3F, 0x64, 0x00,
  0x99, 0x2A, 0x64, 0x00, 0x24, 0x64, 0x00, 0x31, 0x64, 0x1E, 0x31, 0x00, 0x00, 0x2A, 0x00, 0x00,
  0x24, 0x00, 0x1E, 0x95, 0x3F, 0x00, 0x00, 0x3C, 0x64, 0x00, 0x99, 0x2A, 0x52, 0x1E, 0x2A, 0x00,
  0x1E, 0x95, 0x3C, 0x00, 0x00, 0x3F, 0x64, 0x00, 0x99, 0x28, 0x64, 0x00, 0x2A, 0x64, 0x1E, 0x2A,
  0x00, 0x00, 0x91, 0x24, 0x00, 0x00, 0x99, 0x28, 0x00, 0x1E, 0x95, 0x3F, 0x00, 0x00, 0x90, 0x4B,
  0x00, 0x00, 0x91, 0x1F, 0x64, 0x00, 0x95, 0x3C, 0x64, 0x00, 0x99, 0x24, 0x64, 0x00, 0x2A, 0x52,
  0x1E, 0x2A, 0x00, 0x00, 0x24, 0x00, 0x1E, 0x95, 0x3C, 0x00, 0x00, 0x91, 0x1F, 0x00, 0x00, 0x20,
  0x64, 0x00, 0x95, 0x3F, 0x64, 0x00, 0x99, 0x24, 0x64, 0x00, 0x2A, 0x64, 0x1E, 0x2A, 0x00, 0x00,
  0x24, 0x00, 0x1E, 0x95, 0x3F, 0x00, 0x00, 0x90, 0x46, 0x78, 0x00, 0x95, 0x3A, 0x64, 0x00, 0x99,
  0x2A, 0x52, 0x1E, 0x2A, 0x00, 0x18, 0x90, 0x46, 0x00, 0x06, 0x95, 0x3A, 0x00, 0x00, 0x90, 0x46,
  0x78, 0x00, 0x95, 0x3F, 0x64, 0x00, 0x99, 0x2A, 0x64, 0x00, 0x28, 0x64, 0x1E, 0x28, 0x00, 0x00,
  0x91, 0x20, 0x00, 0x00, 0x99, 0x2A, 0x00, 0x1D, 0x90, 0x46, 0x00, 0x01, 0x95, 0x3F, 0x00, 0x00,
  0x90, 0x4D, 0x78, 0x00, 0x91, 0x20, 0x64, 0x00, 0x95, 0x3A, 0x64, 0x00, 0x99, 0x2A, 0x52, 0x1E,
  0x2A, 0x00, 0x18, 0x90, 0x4D, 0x00, 0x06, 0x95, 0x3A, 0x00, 0x00, 0x91, 0x20, 0x00, 0x00, 0x90,
  0x4D, 0x78, 0x00, 0x91, 0x22, 0x64, 0x00, 0x95, 0x3E, 0x64, 0x00, 0x99, 0x2A, 0x64, 0x00, 0x24,
  0x64, 0x1E, 0x24, 0x00, 0x00, 0x2A, 0x00, 0x1E, 0x95, 0x3E, 0x00, 0x00, 0x3A, 0x64, 0x00, 0x99,
  0x2A, 0x52, 0x1E, 0x2A, 0x00, 0x1E, 0x95, 0x3A, 0x00, 0x00, 0x3E, 0x64, 0x00, 0x99, 0x28, 0x64,
  0x00, 0x2A, 0x64, 0x1E, 0x2A, 0x00, 0x00, 0x91, 0x22, 0x00, 0x00, 0x90, 0x4D, 0x00, 0x00, 0x99,
  0x28, 0x00, 0x1E, 0x95, 0x3E, 0x00, 0x00, 0x91, 0x22, 0x64, 0x00, 0x95, 0x3A, 0x64, 0x00, 0x99,
  0x24, 0x64, 0x00, 0x2A, 0x52, 0x1E, 0x2A, 0x00, 0x00, 0x24, 0x00, 0x00, 0x91, 0x22, 0x00, 0x00,
  0x24, 0x64, 0x1E, 0x24, 0x00, 0x00, 0x95, 0x3A, 0x00, 0x00, 0x91, 0x27, 0x64, 0x00, 0x95, 0x3F,
  0x64, 0x00, 0x99, 0x24, 0x64, 0x00, 0x2A, 0x64, 0x1E, 0x2A, 0x00, 0x00, 0x24, 0x00, 0x00, 0x91,
  0x27, 0x00, 0x1E, 0x95, 0x3F, 0x00, 0x00, 0x90, 0x46, 0x78, 0x00, 0x91, 0x27, 0x64, 0x00, 0x95,
  0x3A, 0x64, 0x00, 0x99, 0x2A, 0x52, 0x1E, 0x2A, 0x00, 0x18, 0x90, 0x46, 0x00, 0x06, 0x95, 0x3A,
  0x00, 0x00, 0x91, 0x27, 0x00, 0x00, 0x90, 0x46, 0x78, 0x00, 0x91, 0x26, 0x64, 0x00, 0x95, 0x3E,
  0x64, 0x00, 0x99, 0x2A, 0x64, 0x00, 0x28, 0x64, 0x1E, 0x28, 0x00, 0x00, 0x2A, 0x00, 0x1D, 0x90,
  0x46, 0x00, 0x01, 0x95, 0x3E, 0x00, 0x00, 0x90, 0x4F, 0x78, 0x00, 0x95, 0x3F, 0x64, 0x00, 0x99,
  0x2A, 0x52, 0x1E, 0x2A, 0x00, 0x18, 0x90, 0x4F, 0x00, 0x06, 0x95, 0x3F, 0x00, 0x00, 0x91, 0x26,
  0x00, 0x00, 0x90, 0x4F, 0x78, 0x00, 0x91, 0x24, 0x64, 0x00, 0x95, 0x3F, 0x64, 0x00, 0x99, 0x31,
  0x64, 0x00, 0x2A, 0x64, 0x00, 0x24, 0x64, 0x1E, 0x24, 0x00, 0x00, 0x31, 0x00, 0x00, 0x2A, 0x00,
  0x1E, 0x90, 0x4F, 0x00, 0x00, 0x95, 0x3F, 0x00, 0x00, 0x90, 0x4D, 0x78, 0x00, 0x95, 0x3C, 0x64,
  0x00, 0x99, 0x2A, 0x52, 0x1E, 0x2A, 0x00, 0x18, 0x90, 0x4D, 0x00, 0x06, 0x95, 0x3C, 0x00, 0x00,
  0x91, 0x24, 0x00, 0x00, 0x90, 0x4D, 0x78, 0x00, 0x95, 0x3F, 0x64, 0x00, 0x99, 0x28, 0x64, 0x00,
  0x2A, 0x64, 0x1E, 0x2A, 0x00, 0x00, 0x28, 0x00, 0x1E, 0x95, 0x3F, 0x00, 0x00, 0x90, 0x4D, 0x00,
  0x00, 0x4B, 0x78, 0x00, 0x91, 0x1F, 0x64, 0x00, 0x95, 0x3C, 0x64, 0x00, 0x99, 0x2A, 0x52, 0x00,
  0x24, 0x64, 0x1E, 0x24, 0x00, 0x00, 0x2A, 0x00, 0x18, 0x90, 0x4B, 0x00, 0x06, 0x95, 0x3C, 0x00,
  0x00, 0x91, 0x1F, 0x00, 0x00, 0x90, 0x4B, 0x78, 0x00, 0x91, 0x20, 0x64, 0x00, 0x95, 0x3F, 0x64,
  0x00, 0x99, 0x2A, 0x64, 0x00, 0x24, 0x64, 0x1E, 0x24, 0x00, 0x00, 0x2A, 0x00, 0x1E, 0x95, 0x3F,
  0x00, 0x00, 0x90, 0x4B, 0x00, 0x00, 0x4D, 0x78, 0x00, 0x95, 0x3C, 0x64, 0x00, 0x99, 0x2A, 0x52,
  0x1E, 0x2A, 0x00, 0x1E, 0x95, 0x3C, 0x00, 0x00, 0x90, 0x4D, 0x00, 0x00, 0x4B, 0x78, 0x00, 0x95,
  0x3F, 0x64, 0x00, 0x99, 0x28, 0x64, 0x00, 0x2A, 0x64, 0x1E, 0x2A, 0x00, 0x00, 0x91, 0x20, 0x00,
  0x00, 0x99, 0x28, 0x00, 0x1D, 0x90, 0x4B, 0x00, 0x01, 0x95, 0x3F, 0x00, 0x00, 0x90, 0x4F, 0x78,
  0x00, 0x91, 0x20, 0x64, 0x00, 0x95, 0x3C, 0x64, 0x00, 0x99, 0x24, 0x64, 0x00, 0x2A, 0x52, 0x1E,
  0x2A, 0x00, 0x00, 0x24, 0x00, 0x00, 0x28, 0x64, 0x18, 0x90, 0x4F, 0x00, 0x06, 0x91, 0x20, 0x00,
  0x00, 0x95, 0x3C, 0x00, 0x00, 0x99, 0x28, 0x00, 0x00, 0x90, 0x4F, 0x78, 0x00, 0x91, 0x22, 0x64,
  0x00, 0x95, 0x3F, 0x64, 0x00, 0x99, 0x31, 0x64, 0x00, 0x24, 0x64, 0x00, 0x2A, 0x64, 0x1E, 0x2A,
  0x00, 0x00, 0x31, 0x00, 0x00, 0x24, 0x00, 0x0F, 0x91, 0x22, 0x00, 0x0F, 0x95, 0x3F, 0x00, 0x00,
  0x91, 0x22, 0x64, 0x00, 0x95, 0x3C, 0x64, 0x00, 0x99, 0x24, 0x64, 0x00, 0x2A, 0x52, 0x1E, 0x2A,
  0x00, 0x00, 0x90, 0x4F, 0x00, 0x00, 0x99, 0x24, 0x00, 0x00, 0x90, 0x4D, 0x78, 0x00, 0x99, 0x28,
  0x64, 0x0F, 0x91, 0x22, 0x00, 0x0F, 0x95, 0x3C, 0x00, 0x00, 0x99, 0x28, 0x00, 0x00, 0x91, 0x22,
  0x64, 0x00, 0x95, 0x3F, 0x64, 0x00, 0x99, 0x28, 0x64, 0x00, 0x2A, 0x64, 0x1E, 0x2A, 0x00, 0x00,
  0x28, 0x00, 0x0F, 0x91, 0x22, 0x00, 0x0F, 0x95, 0x3F, 0x00, 0x00, 0x91, 0x22, 0x64, 0x00, 0x95,
  0x3C, 0x64, 0x00, 0x99, 0x24, 0x64, 0x00, 0x2A, 0x52, 0x1E, 0x2A, 0x00, 0x00, 0x24, 0x00, 0x0F,
  0x91, 0x22, 0x00, 0x0F, 0x95, 0x3C, 0x00, 0x00, 0x90, 0x4D, 0x00, 0x00, 0x91, 0x22, 0x64, 0x00,
  0x95, 0x3E, 0x64, 0x00, 0x99, 0x24, 0x64, 0x00, 0x2A, 0x64, 0x1E, 0x2A, 0x00, 0x00, 0x24, 0x00,
  0x00, 0x28, 0x64, 0x0F, 0x91, 0x22, 0x00, 0x0F, 0x99, 0x28, 0x00, 0x00, 0x95, 0x3E, 0x00, 0x00,
  0x90, 0x46, 0x78, 0x00, 0x91, 0x22, 0x64, 0x00, 0x95, 0x3A, 0x64, 0x00, 0x99, 0x2A, 0x52, 0x00,
  0x28, 0x64, 0x1E, 0x28, 0x00, 0x00, 0x2A, 0x00, 0x00, 0x28, 0x64, 0x0F, 0x91, 0x22, 0x00, 0x0F,
  0x90, 0x46, 0x00, 0x00, 0x95, 0x3A, 0x00, 0x00, 0x99, 0x28, 0x00, 0x00, 0x90, 0x4B, 0x78, 0x00,
  0x91, 0x23, 0x64, 0x00, 0x95, 0x3B, 0x64, 0x00, 0x99, 0x24, 0x64, 0x00, 0x2A, 0x64, 0x1E, 0x2A,
  0x00, 0x00, 0x24, 0x00, 0x00, 0x28, 0x64, 0x18, 0x90, 0x4B, 0x00, 0x06, 0x99, 0x28, 0x00, 0x00,
  0x90, 0x4B, 0x78, 0x00, 0x99, 0x28, 0x64, 0x00, 0x2A, 0x52, 0x1B, 0x90, 0x4B, 0x00, 0x03, 0x99,
  0x28, 0x00, 0x00, 0x2A, 0x00, 0x00, 0x91, 0x23, 0x00, 0x00, 0x90, 0x4B, 0x78, 0x00, 0x99, 0x28,
  0x64, 0x1E, 0x28, 0x00, 0x00, 0x95, 0x3B, 0x00, 0x00, 0x91, 0x24, 0x64, 0x00, 0x95, 0x3F, 0x64,
  0x00, 0x99, 0x24, 0x64, 0x00, 0x2A, 0x64, 0x00, 0x31, 0x64, 0x1E, 0x31, 0x00, 0x00, 0x24, 0x00,
  0x00, 0x2A, 0x00, 0x1E, 0x95, 0x3F, 0x00, 0x00, 0x3C, 0x64, 0x00, 0x99, 0x2A, 0x52, 0x1E, 0x2A,
  0x00, 0x00, 0x24, 0x64, 0x1E, 0x24, 0x00, 0x00, 0x95, 0x3C, 0x00, 0x00, 0x90, 0x4B, 0x00, 0x00,
  0x95, 0x3F, 0x64, 0x00, 0x99, 0x2A, 0x64, 0x00, 0x28, 0x64, 0x1E, 0x28, 0x00, 0x00, 0x2A, 0x00,
  0x00, 0x91, 0x24, 0x00, 0x1E, 0x95, 0x3F, 0x00, 0x00, 0x90, 0x4B, 0x78, 0x00, 0x91, 0x1F, 0x64,
  0x00, 0x95, 0x3C, 0x64, 0x00, 0x99, 0x24, 0x64, 0x00, 0x2A, 0x52, 0x1E, 0x2A, 0x00, 0x00, 0x24,
  0x00, 0x18, 0x90, 0x4B, 0x00, 0x06, 0x95, 0x3C, 0x00, 0x00, 0x91, 0x1F, 0x00, 0x00, 0x90, 0x4B,
  0x78, 0x00, 0x91, 0x20, 0x64, 0x00, 0x95, 0x3F, 0x64, 0x00, 0x99, 0x24, 0x64, 0x00, 0x2A, 0x64,
  0x1E, 0x2A, 0x00, 0x00, 0x24, 0x00, 0x1E, 0x95, 0x3F, 0x00, 0x00, 0x90, 0x4B, 0x00, 0x00, 0x4A,
  0x78, 0x00, 0x95, 0x3C, 0x64, 0x00, 0x99, 0x2A, 0x52, 0x1E, 0x2A, 0x00, 0x1E, 0x95, 0x3C, 0x00,
  0x00, 0x90, 0x4A, 0x00, 0x00, 0x48, 0x78, 0x00, 0x95, 0x3F, 0x64, 0x00, 0x99, 0x28, 0x64, 0x00,
  0x2A, 0x64, 0x1E, 0x2A, 0x00, 0x00, 0x91, 0x20, 0x00, 0x00, 0x99, 0x28, 0x00, 0x1E, 0x95, 0x3F,
  0x00, 0x00, 0x90, 0x48, 0x00, 0x00, 0x46, 0x78, 0x00, 0x91, 0x20, 0x64, 0x00, 0x95, 0x3C, 0x64,
  0x00, 0x99, 0x24, 0x64, 0x00, 0x2A, 0x52, 0x1E, 0x2A, 0x00, 0x00, 0x24, 0x00, 0x00, 0x28, 0x64,
  0x1E, 0x28, 0x00, 0x00, 0x95, 0x3C, 0x00, 0x00, 0x91, 0x20, 0x00, 0x00, 0x90, 0x46, 0x00, 0x00,
  0x4A, 0x78, 0x00, 0x91, 0x22, 0x64, 0x00, 0x95, 0x3E, 0x64, 0x00, 0x99, 0x2A, 0x64, 0x00, 0x24,
  0x64, 0x1E, 0x24, 0x00, 0x00, 0x2A, 0x00, 0x1E, 0x95, 0x3E, 0x00, 0x00, 0x90, 0x4A, 0x00, 0x00,
  0x4B, 0x78, 0x00, 0x95, 0x3A, 0x64, 0x00, 0x99, 0x2A, 0x52, 0x1E, 0x2A, 0x00, 0x00, 0x24, 0x64,
  0x1E, 0x24, 0x00, 0x00, 0x95, 0x3A, 0x00, 0x00, 0x90, 0x4B, 0x00, 0x00, 0x4D, 0x78, 0x00, 0x95,
  0x3E, 0x64, 0x00, 0x99, 0x2A, 0x64, 0x00, 0x28, 0x64, 0x1E, 0x28, 0x00, 0x00, 0x91, 0x22, 0x00,
  0x00, 0x99, 0x2A, 0x00, 0x1E, 0x95, 0x3E, 0x00, 0x00, 0x91, 0x22, 0x64, 0x00, 0x95, 0x3A, 0x64,
  0x00, 0x99, 0x24, 0x64, 0x00, 0x2A, 0x52, 0x1E, 0x2A, 0x00, 0x00, 0x91, 0x22, 0x00, 0x00, 0x90,
  0x4D, 0x00, 0x00, 0x99, 0x24, 0x00, 0x00, 0x90, 0x4B, 0x78, 0x00, 0x91, 0x24, 0x64, 0x1E, 0x24,
  0x00, 0x00, 0x95, 0x3A, 0x00, 0x00, 0x91, 0x27, 0x64, 0x00, 0x95, 0x3F, 0x64, 0x00, 0x99, 0x24,
  0x64, 0x00, 0x2A, 0x64, 0x1E, 0x2A, 0x00, 0x00, 0x91, 0x27, 0x00, 0x00, 0x90, 0x4B, 0x00, 0x00,
  0x99, 0x24, 0x00, 0x00, 0x28, 0x64, 0x1E, 0x28, 0x00, 0x00, 0x95, 0x3F, 0x00, 0x00, 0x90, 0x46,
  0x78, 0x00, 0x91, 0x27, 0x64, 0x00, 0x95, 0x3A, 0x64, 0x00, 0x99, 0x2A, 0x52, 0x1E, 0x2A, 0x00,
  0x1E, 0x90, 0x46, 0x00, 0x00, 0x91, 0x27, 0x00, 0x00, 0x95, 0x3A, 0x00, 0x00, 0x90, 0x4B, 0x78,
  0x00, 0x91, 0x26, 0x64, 0x00, 0x95, 0x3E, 0x64, 0x00, 0x99, 0x28, 0x64, 0x00, 0x2A, 0x64, 0x1E,
  0x2A, 0x00, 0x00, 0x28, 0x00, 0x18, 0x90, 0x4B, 0x00, 0x06, 0x95, 0x3E, 0x00, 0x00, 0x90, 0x4B,
  0x78, 0x00, 0x95, 0x3F, 0x64, 0x00, 0x99, 0x24, 0x64, 0x00, 0x2A, 0x52, 0x1B, 0x90, 0x4B, 0x00,
  0x03, 0x99, 0x24, 0x00, 0x00, 0x2A, 0x00, 0x00, 0x90, 0x4B, 0x78, 0x00, 0x99, 0x28, 0x64, 0x1E,
  0x28, 0x00, 0x00, 0x91, 0x26, 0x00, 0x00, 0x95, 0x3F, 0x00, 0x00, 0x91, 0x24, 0x64, 0x00, 0x95,
  0x3F, 0x64, 0x00, 0x99, 0x24, 0x64, 0x00, 0x2A, 0x64, 0x1E, 0x2A, 0x00, 0x00, 0x24, 0x00, 0x1E,
  0x95, 0x3F, 0x00, 0x00, 0x3C, 0x64, 0x00, 0x99, 0x2A, 0x52, 0x1E, 0x2A, 0x00, 0x00, 0x90, 0x4B,
  0x00, 0x00, 0x99, 0x24, 0x64, 0x1E, 0x24, 0x00, 0x00, 0x95, 0x3C, 0x00, 0x00, 0x91, 0x24, 0x00,
  0x00, 0x95, 0x3F, 0x64, 0x00, 0x99, 0x2A, 0x64, 0x00, 0x28, 0x64, 0x1E, 0x28, 0x00, 0x00, 0x2A,
  0x00, 0x1E, 0x95, 0x3F, 0x00, 0x00, 0x90, 0x4B, 0x78, 0x00, 0x91, 0x1F, 0x64, 0x00, 0x95, 0x3C,
  0x64, 0x00, 0x99, 0x2A, 0x52, 0x00, 0x24, 0x64, 0x1E, 0x24, 0x00, 0x00, 0x2A, 0x00, 0x18, 0x90,
  0x4B, 0x00, 0x06, 0x95, 0x3C, 0x00, 0x00, 0x91, 0x1F, 0x00, 0x00, 0x90, 0x4B, 0x78, 0x00, 0x91,
  0x20, 0x64, 0x00, 0x95, 0x3F, 0x64, 0x00, 0x99, 0x2A, 0x64, 0x00, 0x24, 0x64, 0x1E, 0x24, 0x00,
  0x00, 0x2A, 0x00, 0x1E, 0x95, 0x3F, 0x00, 0x00, 0x90, 0x4B, 0x00, 0x00, 0x4A, 0x78, 0x00, 0x95,
  0x3C, 0x64, 0x00, 0x99, 0x2A, 0x52, 0x1E, 0x2A, 0x00, 0x1E, 0x95, 0x3C, 0x00, 0x00, 0x90, 0x4A,
  0x00, 0x00, 0x48, 0x78, 0x00, 0x95, 0x3F, 0x64, 0x00, 0x99, 0x28, 0x64, 0x00, 0x2A, 0x64, 0x1E,
  0x2A, 0x00, 0x00, 0x91, 0x20, 0x00, 0x00, 0x99, 0x28, 0x00, 0x1E, 0x95, 0x3F, 0x00, 0x00, 0x90,
  0x48, 0x00, 0x00, 0x46, 0x78, 0x00, 0x91, 0x20, 0x64, 0x00, 0x95, 0x3C, 0x64, 0x00, 0x99, 0x24,
  0x64, 0x00, 0x2A, 0x52, 0x1E, 0x2A, 0x00, 0x00, 0x24, 0x00, 0x1E, 0x90, 0x46, 0x00, 0x00, 0x91,
  0x20, 0x00, 0x00, 0x95, 0x3C, 0x00, 0x00, 0x90, 0x4D, 0x78, 0x00, 0x91, 0x22, 0x64, 0x00, 0x95,
  0x3E, 0x64, 0x00, 0x99, 0x2A, 0x64, 0x00, 0x24, 0x64, 0x1E, 0x24, 0x00, 0x00, 0x2A, 0x00, 0x0F,
  0x91, 0x22, 0x00, 0x0F, 0x95, 0x3E, 0x00, 0x00, 0x90, 0x4D, 0x00, 0x00, 0x4F, 0x78, 0x00, 0x91,
  0x22, 0x64, 0x00, 0x95, 0x3A, 0x64, 0x00, 0x99, 0x2A, 0x52, 0x1E, 0x2A, 0x00, 0x00, 0x24, 0x64,
  0x0F, 0x91, 0x22, 0x00, 0x0E, 0x90, 0x4F, 0x00, 0x01, 0x95, 0x3A, 0x00, 0x00, 0x99, 0x24, 0x00,
  0x00, 0x90, 0x50, 0x78, 0x00, 0x91, 0x22, 0x64, 0x00, 0x95, 0x3E, 0x64, 0x00, 0x99, 0x28, 0x64,
  0x00, 0x2A, 0x64, 0x1E, 0x2A, 0x00, 0x00, 0x28, 0x00, 0x0F, 0x91, 0x22, 0x00, 0x0F, 0x95, 0x3E,
  0x00, 0x00, 0x91, 0x22, 0x64, 0x00, 0x95, 0x3A, 0x64, 0x00, 0x99, 0x2A, 0x52, 0x00, 0x24, 0x64,
  0x1E, 0x24, 0x00, 0x00, 0x91, 0x22, 0x00, 0x00, 0x90, 0x50, 0x00, 0x00, 0x99, 0x2A, 0x00, 0x00,
  0x90, 0x4F, 0x78, 0x00, 0x91, 0x24, 0x64, 0x1E, 0x24, 0x00, 0x00, 0x90, 0x4F, 0x00, 0x00, 0x95,
  0x3A, 0x00, 0x00, 0x91, 0x27, 0x64, 0x00, 0x95, 0x3F, 0x64, 0x00, 0x99, 0x24, 0x64, 0x00, 0x2A,
  0x64, 0x1E, 0x2A, 0x00, 0x00, 0x24, 0x00, 0x00, 0x28, 0x64, 0x1E, 0x28, 0x00, 0x00, 0x95, 0x3F,
  0x00, 0x00, 0x90, 0x46, 0x78, 0x00, 0x95, 0x3A, 0x64, 0x00, 0x99, 0x2A, 0x52, 0x1E, 0x2A, 0x00,
  0x00, 0x91, 0x27, 0x00, 0x00, 0x99, 0x24, 0x64, 0x1E, 0x24, 0x00, 0x00, 0x95, 0x3A, 0x00, 0x00,
  0x90, 0x46, 0x00, 0x00, 0x4B, 0x78, 0x00, 0x91, 0x23, 0x64, 0x00, 0x95, 0x3B, 0x64, 0x00, 0x99,
  0x2A, 0x64, 0x00, 0x28, 0x64, 0x1E, 0x28, 0x00, 0x00, 0x2A, 0x00, 0x00, 0x24, 0x64, 0x18, 0x90,
  0x4B, 0x00, 0x06, 0x99, 0x24, 0x00, 0x00, 0x90, 0x4B, 0x78, 0x00, 0x99, 0x24, 0x64, 0x00, 0x2A,
  0x52, 0x1B, 0x90, 0x4B, 0x00, 0x03, 0x99, 0x24, 0x00, 0x00, 0x2A, 0x00, 0x00, 0x91, 0x23, 0x00,
  0x00, 0x90, 0x4B, 0x78, 0x00, 0x99, 0x28, 0x64, 0x1E, 0x28, 0x00, 0x00, 0x95, 0x3B, 0x00, 0x00,
  0x91, 0x24, 0x64, 0x00, 0x95, 0x3F, 0x64, 0x00, 0x99, 0x24, 0x64, 0x00, 0x2A, 0x64, 0x00, 0x31,
  0x64, 0x1E, 0x31, 0x00, 0x00, 0x24, 0x00, 0x00, 0x2A, 0x00, 0x1E, 0x95, 0x3F, 0x00, 0x00, 0x3C,
  0x64, 0x00, 0x99, 0x2A, 0x52, 0x1E, 0x2A, 0x00, 0x00, 0x24, 0x64, 0x1E, 0x24, 0x00, 0x00, 0x95,
  0x3C, 0x00, 0x00, 0x90, 0x4B, 0x00, 0x00, 0x95, 0x3F, 0x64, 0x00, 0x99, 0x28, 0x64, 0x00, 0x2A,
  0x64, 0x1E, 0x2A, 0x00, 0x00, 0x28, 0x00, 0x00, 0x91, 0x24, 0x00, 0x1E, 0x95, 0x3F, 0x00, 0x00,
  0x90, 0x4B, 0x78, 0x00, 0x91, 0x1F, 0x64, 0x00, 0x95, 0x3C, 0x64, 0x00, 0x99, 0x24, 0x64, 0x00,
  0x2A, 0x52, 0x1E, 0x2A, 0x00, 0x00, 0x24, 0x00, 0x18, 0x90, 0x4B, 0x00, 0x06, 0x95, 0x3C, 0x00,
  0x00, 0x91, 0x1F, 0x00, 0x00, 0x90, 0x4B, 0x78, 0x00, 0x91, 0x20, 0x64, 0x00, 0x95, 0x3F, 0x64,
  0x00, 0x99, 0x2A, 0x64, 0x00, 0x24, 0x64, 0x1E, 0x24, 0x00, 0x00, 0x2A, 0x00, 0x1E, 0x95, 0x3F,
  0x00, 0x00, 0x90, 0x4B, 0x00, 0x00, 0x4A, 0x78, 0x00, 0x95, 0x3C, 0x64, 0x00, 0x99, 0x2A, 0x52,
  0x1E, 0x2A, 0x00, 0x1E, 0x95, 0x3C, 0x00, 0x00, 0x90, 0x4A, 0x00, 0x00, 0x48, 0x78, 0x00, 0x95,
  0x3F, 0x64, 0x00, 0x99, 0x28, 0x64, 0x00, 0x2A, 0x64, 0x1E, 0x2A, 0x00, 0x00, 0x91, 0x20, 0x00,
  0x00, 0x99, 0x28, 0x00, 0x1E, 0x95, 0x3F, 0x00, 0x00, 0x90, 0x48, 0x00, 0x00, 0x46, 0x78, 0x00,
  0x91, 0x20, 0x64, 0x00, 0x95, 0x3C, 0x64, 0x00, 0x99, 0x2A, 0x52, 0x00, 0x24, 0x64, 0x1E, 0x24,
  0x00, 0x00, 0x2A, 0x00, 0x00, 0x28, 0x64, 0x1E, 0x28, 0x00, 0x00, 0x95, 0x3C, 0x00, 0x00, 0x91,
  0x20, 0x00, 0x00, 0x90, 0x46, 0x00, 0x00, 0x4D, 0x78, 0x00, 0x91, 0x22, 0x64, 0x00, 0x95, 0x3E,
  0x64, 0x00, 0x99, 0x31, 0x64, 0x00, 0x24, 0x64, 0x00, 0x2A, 0x64, 0x1E, 0x2A, 0x00, 0x00, 0x31,
  0x00, 0x00, 0x24, 0x00, 0x1E, 0x90, 0x4D, 0x00, 0x00, 0x95, 0x3E, 0x00, 0x00, 0x90, 0x4B, 0x78,
  0x00, 0x95, 0x3A, 0x64, 0x00, 0x99, 0x2A, 0x52, 0x1E, 0x2A, 0x00, 0x00, 0x91, 0x22, 0x00, 0x00,
  0x99, 0x24, 0x64, 0x1E, 0x24, 0x00, 0x00, 0x95, 0x3A, 0x00, 0x00, 0x90, 0x4B, 0x00, 0x00, 0x4A,
  0x78, 0x00, 0x91, 0x23, 0x64, 0x00, 0x95, 0x3B, 0x64, 0x00, 0x99, 0x28, 0x64, 0x00, 0x2A, 0x64,
  0x1E, 0x2A, 0x00, 0x00, 0x28, 0x00, 0x1E, 0x90, 0x4A, 0x00, 0x00, 0x4B, 0x78, 0x00, 0x99, 0x24,
  0x64, 0x00, 0x2A, 0x52, 0x18, 0x90, 0x4B, 0x00, 0x06, 0x99, 0x24, 0x00, 0x00, 0x2A, 0x00, 0x00,
  0x91, 0x23, 0x00, 0x00, 0x90, 0x4B, 0x78, 0x1E, 0x95, 0x3B, 0x00, 0x00, 0x91, 0x24, 0x64, 0x00,
  0x95, 0x3F, 0x64, 0x00, 0x99, 0x24, 0x64, 0x00, 0x2A, 0x64, 0x1E, 0x2A, 0x00, 0x00, 0x24, 0x00,
  0x00, 0x28, 0x64, 0x1E, 0x28, 0x00, 0x00, 0x95, 0x3F, 0x00, 0x00, 0x90, 0x4B, 0x00, 0x00, 0x95,
  0x3C, 0x64, 0x00, 0x99, 0x2A, 0x52, 0x1E, 0x2A, 0x00, 0x00, 0x91, 0x24, 0x00, 0x1E, 0x95, 0x3C,
  0x00, 0x00, 0x91, 0x1F, 0x64, 0x00, 0x95, 0x3E, 0x64, 0x00, 0x99, 0x28, 0x64, 0x00, 0x2A, 0x64,
  0x1E, 0x2A, 0x00, 0x00, 0x28, 0x00, 0x00, 0x28, 0x64, 0x1E, 0x28, 0x00, 0x00, 0x95, 0x3E, 0x00,
  0x00, 0x90, 0x4B, 0x78, 0x00, 0x95, 0x3F, 0x64, 0x00, 0x99, 0x24, 0x64, 0x00, 0x2A, 0x52, 0x1E,
  0x2A, 0x00, 0x00, 0x91, 0x1F, 0x00, 0x00, 0x99, 0x24, 0x00, 0x00, 0x28, 0x64, 0x18, 0x90, 0x4B,
  0x00, 0x06, 0x99, 0x28, 0x00, 0x00, 0x95, 0x3F, 0x00, 0x00, 0x90, 0x4B, 0x78, 0x00, 0x91, 0x1D,
  0x64, 0x00, 0x95, 0x3F, 0x64, 0x00, 0x99, 0x24, 0x64, 0x00, 0x2A, 0x64, 0x00, 0x31, 0x64, 0x1E,
  0x31, 0x00, 0x00, 0x24, 0x00, 0x00, 0x2A, 0x00, 0x1E, 0x90, 0x4B, 0x00, 0x00, 0x95, 0x3F, 0x00,
  0x00, 0x90, 0x4F, 0x78, 0x00, 0x95, 0x3C, 0x64, 0x00, 0x99, 0x2A, 0x52, 0x1E, 0x2A, 0x00, 0x00,
  0x91, 0x1D, 0x00, 0x00, 0x99, 0x24, 0x64, 0x1E, 0x24, 0x00, 0x00, 0x95, 0x3C, 0x00, 0x00, 0x90,
  0x4F, 0x00, 0x00, 0x4D, 0x78, 0x00, 0x95, 0x3F, 0x64, 0x00, 0x99, 0x28, 0x64, 0x00, 0x2A, 0x64,
  0x0B, 0xFF, 0x51, 0x03, 0x0C, 0xE5, 0x0E, 0x04, 0xFF, 0x51, 0x03, 0x0C, 0xE5, 0x0E, 0x0F, 0x99,
  0x2A, 0x00, 0x00, 0x28, 0x00, 0x1E, 0x95, 0x3F, 0x00, 0x00, 0x90, 0x4D, 0x00, 0x00, 0x4B, 0x78,
  0x00, 0x91, 0x1F, 0x64, 0x00, 0x95, 0x3C, 0x64, 0x00, 0x99, 0x2A, 0x52, 0x00, 0x24, 0x64, 0x1E,
  0x24, 0x00, 0x00, 0x91, 0x1F, 0x00, 0x00, 0x99, 0x2A, 0x00, 0x00, 0x91, 0x20, 0x64, 0x18, 0x90,
  0x4B, 0x00, 0x06, 0x91, 0x20, 0x00, 0x00, 0x95, 0x3C, 0x00, 0x00, 0x90, 0x4B, 0x78, 0x00, 0x91,
  0x22, 0x64, 0x00, 0x95, 0x3F, 0x64, 0x00, 0x99, 0x24, 0x64, 0x00, 0x2A, 0x64, 0x1E, 0x2A, 0x00,
  0x00, 0x24, 0x00, 0x1E, 0x95, 0x3F, 0x00, 0x00, 0x90, 0x4B, 0x00, 0x00, 0x4A, 0x78, 0x00, 0x95,
  0x3A, 0x64, 0x00, 0x99, 0x2A, 0x52, 0x1E, 0x2A, 0x00, 0x1E, 0x91, 0x22, 0x00, 0x00, 0x90, 0x4A,
  0x00, 0x00, 0x95, 0x3A, 0x00, 0x00, 0x90, 0x4D, 0x78, 0x00, 0x95, 0x3F, 0x64, 0x00, 0x99, 0x28,
  0x64, 0x00, 0x2A, 0x64, 0x1E, 0x2A, 0x00, 0x00, 0x28, 0x00, 0x1E, 0x95, 0x3F, 0x00, 0x00, 0x91,
  0x22, 0x64, 0x00, 0x95, 0x3A, 0x64, 0x00, 0x99, 0x2A, 0x52, 0x00, 0x24, 0x64, 0x1E, 0x24, 0x00,
  0x00, 0x91, 0x22, 0x00, 0x00, 0x90, 0x4D, 0x00, 0x00, 0x99, 0x2A, 0x00, 0x00, 0x90, 0x4B, 0x78,
  0x00, 0x91, 0x24, 0x64, 0x00, 0x99, 0x28, 0x64, 0x1E, 0x28, 0x00, 0x00, 0x91, 0x24, 0x00, 0x00,
  0x95, 0x3A, 0x00, 0x00, 0x91, 0x27, 0x64, 0x00, 0x95, 0x3F, 0x64, 0x00, 0x99, 0x31, 0x64, 0x00,
  0x2A, 0x64, 0x00, 0x24, 0x64, 0x1E, 0x24, 0x00, 0x00, 0x31, 0x00, 0x00, 0x2A, 0x00, 0x1E, 0x91,
  0x27, 0x00, 0x00, 0x95, 0x3F, 0x00, 0x00, 0x3A, 0x64, 0x00, 0x99, 0x2A, 0x52, 0x1E, 0x2A, 0x00,
  0x00, 0x91, 0x27, 0x64, 0x00, 0x99, 0x24, 0x64, 0x1E, 0x24, 0x00, 0x00, 0x95, 0x3A, 0x00, 0x00,
  0x3F, 0x64, 0x00, 0x99, 0x28, 0x64, 0x00, 0x2A, 0x64, 0x1E, 0x2A, 0x00, 0x00, 0x91, 0x27, 0x00,
  0x00, 0x99, 0x28, 0x00, 0x00, 0x28, 0x64, 0x1E, 0x28, 0x00, 0x00, 0x95, 0x3F, 0x00, 0x00, 0x91,
  0x27, 0x64, 0x00, 0x95, 0x3A, 0x64, 0x00, 0x99, 0x2A, 0x52, 0x00, 0x24, 0x64, 0x1E, 0x24, 0x00,
  0x00, 0x91, 0x27, 0x00, 0x00, 0x99, 0x2A, 0x00, 0x1E, 0x95, 0x3A, 0x00, 0x00, 0x91, 0x27, 0x64,
  0x00, 0x95, 0x3F, 0x64, 0x00, 0x99, 0x24, 0x64, 0x00, 0x2A, 0x64, 0x1E, 0x2A, 0x00, 0x00, 0x24,
  0x00, 0x00, 0x28, 0x64, 0x1E, 0x28, 0x00, 0x00, 0x95, 0x3F, 0x00, 0x00, 0x90, 0x4B, 0x00, 0x00,
  0x95, 0x3A, 0x64, 0x00, 0x99, 0x28, 0x64, 0x00, 0x2A, 0x52, 0x1E, 0x2A, 0x00, 0x00, 0x28, 0x00,
  0x00, 0x24, 0x64, 0x1E, 0x24, 0x00, 0x00, 0x95, 0x3A, 0x00, 0x00, 0x91, 0x27, 0x00, 0x00, 0x95,
  0x3F, 0x64, 0x00, 0x99, 0x28, 0x64, 0x00, 0x2A, 0x64, 0x1E, 0x2A, 0x00, 0x00, 0x28, 0x00, 0x00,
  0x24, 0x64, 0x1E, 0x24, 0x00, 0x00, 0x2A, 0x52, 0x00, 0x24, 0x64, 0x1E, 0x24, 0x00, 0x00, 0x2A,
  0x00, 0x00, 0x28, 0x64, 0x1E, 0x28, 0x00, 0x00, 0x95, 0x3F, 0x00, 0x00, 0xFF, 0x2F, 0x00,
};


